<?xml version="1.0" encoding="utf-8"?>
<!-- Generator: Adobe Illustrator 15.1.0, SVG Export Plug-In . SVG Version: 6.00 Build 0)  -->
<!DOCTYPE svg PUBLIC "-//W3C//DTD SVG 1.1//EN" "http://www.w3.org/Graphics/SVG/1.1/DTD/svg11.dtd">
<svg version="1.1" id="Calque_1" xmlns="http://www.w3.org/2000/svg" xmlns:xlink="http://www.w3.org/1999/xlink" x="0px" y="0px"
	 width="15704.79px" height="2853.439px" viewBox="0 0 15704.79 2853.439" enable-background="new 0 0 15704.79 2853.439"
	 xml:space="preserve">
<rect id="characterstart" x="234.919" y="1286.957" fill="#7CD2E2" stroke="#000000" stroke-miterlimit="10" width="131.544" height="622.82"/>
<rect id="groundcage1_16_" x="-0.001" y="1908.783" stroke="#000000" stroke-miterlimit="10" width="1289.854" height="471.584"/>
<rect id="groundcage2" x="1289.854" y="1908.783" stroke="#000000" stroke-miterlimit="10" width="1289.853" height="471.584"/>
<rect id="groundcage1_18_" x="2579.706" y="1908.783" stroke="#000000" stroke-miterlimit="10" width="1289.855" height="471.584"/>
<rect id="groundcage3" x="3869.562" y="1908.783" stroke="#000000" stroke-miterlimit="10" width="1289.854" height="471.584"/>
<rect id="platformcage2_3_" x="2914.892" y="952.915" fill="#9BCB56" stroke="#000000" stroke-miterlimit="10" width="561.131" height="318.619"/>
<rect id="platformcage3" x="1231.501" y="1590.15" fill="#DD192C" stroke="#000000" stroke-miterlimit="10" width="561.13" height="318.62"/>
<rect id="platformcage1_9_" x="3476.023" y="1271.533" fill="#70BF58" stroke="#000000" stroke-miterlimit="10" width="561.132" height="318.617"/>
<rect id="platformcage1_86_" x="4598.285" y="1590.158" fill="#70BF58" stroke="#000000" stroke-miterlimit="10" width="561.13" height="318.618"/>
<rect id="platformcage2_7_" x="4598.285" y="634.289" fill="#9BCB56" stroke="#000000" stroke-miterlimit="10" width="561.13" height="318.619"/>
<rect id="platformcage2_8_" x="5159.416" y="634.289" fill="#9BCB56" stroke="#000000" stroke-miterlimit="10" width="561.131" height="318.618"/>
<rect id="end_1_" x="15298.064" y="1275.139" fill="#FBD849" stroke="#000000" stroke-miterlimit="10" width="193.984" height="311.408"/>
<rect id="groundcage4" x="10879.966" y="1910.271" stroke="#000000" stroke-miterlimit="10" width="1289.855" height="471.584"/>
<rect id="groundcage1_23_" x="12169.821" y="2227.688" stroke="#000000" stroke-miterlimit="10" width="1289.854" height="471.583"/>
<rect id="groundcage3_2_" x="13459.676" y="2227.688" stroke="#000000" stroke-miterlimit="10" width="1289.856" height="471.584"/>
<rect id="groundcage1_25_" x="14414.935" y="1591.653" stroke="#000000" stroke-miterlimit="10" width="1289.855" height="471.581"/>
<rect id="groundcage1_2_" x="5159.416" y="1909.279" stroke="#000000" stroke-miterlimit="10" width="1289.855" height="471.584"/>
<rect id="groundcage1_3_" x="6449.271" y="1909.279" stroke="#000000" stroke-miterlimit="10" width="1289.856" height="471.584"/>
<rect id="groundcage2_1_" x="7739.127" y="1909.279" stroke="#000000" stroke-miterlimit="10" width="1289.854" height="471.584"/>
<rect id="groundcage1_51_" x="10879.966" y="2381.855" stroke="#000000" stroke-miterlimit="10" width="1289.855" height="471.584"/>
<rect id="groundcage3_1_" x="7010.401" y="2381.855" stroke="#000000" stroke-miterlimit="10" width="1289.854" height="471.584"/>
<rect id="groundcage1_54_" x="9590.11" y="2381.855" stroke="#000000" stroke-miterlimit="10" width="1289.855" height="471.584"/>
<rect id="groundcage1_53_" x="8300.256" y="2381.855" stroke="#000000" stroke-miterlimit="10" width="1289.854" height="471.584"/>
<rect id="spades_8_" x="12169.82" y="2172.423" fill="#C94A96" stroke="#000000" stroke-miterlimit="10" width="561.132" height="55.265"/>
<rect id="spades_13_" x="12730.953" y="2172.423" fill="#C94A96" stroke="#000000" stroke-miterlimit="10" width="561.13" height="55.265"/>
<rect id="spades_16_" x="13292.084" y="2172.423" fill="#C94A96" stroke="#000000" stroke-miterlimit="10" width="561.13" height="55.265"/>
<rect id="spades_14_" x="13853.213" y="2172.423" fill="#C94A96" stroke="#000000" stroke-miterlimit="10" width="561.13" height="55.265"/>
<rect id="groundcage1_5_" x="14414.343" y="2063.234" stroke="#000000" stroke-miterlimit="10" width="1289.855" height="471.584"/>
<rect id="spades_6_" x="4037.155" y="1854.016" fill="#C94A96" stroke="#000000" stroke-miterlimit="10" width="561.13" height="55.265"/>
<rect id="spades_2_" x="5720.547" y="1854.016" fill="#C94A96" stroke="#000000" stroke-miterlimit="10" width="561.131" height="55.265"/>
<rect id="spades_4_" x="6842.812" y="1854.016" fill="#C94A96" stroke="#000000" stroke-miterlimit="10" width="561.127" height="55.265"/>
<rect id="platformcage2_1_" x="7403.938" y="1588.777" fill="#9BCB56" stroke="#000000" stroke-miterlimit="10" width="561.133" height="318.619"/>
<rect id="spades_1_" x="9028.981" y="2326.675" fill="#C94A96" stroke="#000000" stroke-miterlimit="10" width="561.129" height="55.266"/>
<rect id="groundcage1_20_" x="9590.11" y="1910.271" stroke="#000000" stroke-miterlimit="10" width="1289.855" height="471.584"/>
<rect id="platformcage3_1_" x="1792.632" y="1588.785" fill="#DD192C" stroke="#000000" stroke-miterlimit="10" width="561.13" height="318.619"/>
<rect id="platformcage3_3_" x="2353.763" y="1589.468" fill="#DD192C" stroke="#000000" stroke-miterlimit="10" width="561.13" height="318.619"/>
<rect id="platformcage3_2_" x="2914.893" y="1588.103" fill="#DD192C" stroke="#000000" stroke-miterlimit="10" width="561.13" height="318.619"/>
<rect id="platformcage3_4_" x="2353.763" y="1271.533" fill="#DD192C" stroke="#000000" stroke-miterlimit="10" width="561.13" height="318.62"/>
<rect id="platformcage1_6_" x="1792.631" y="1271.534" fill="#70BF58" stroke="#000000" stroke-miterlimit="10" width="561.131" height="318.619"/>
<rect id="platformcage2_2_" x="2914.892" y="1271.533" fill="#9BCB56" stroke="#000000" stroke-miterlimit="10" width="561.131" height="318.619"/>
<rect id="platformcage3_5_" x="3476.025" y="951.545" fill="#DD192C" stroke="#000000" stroke-miterlimit="10" width="561.129" height="318.62"/>
<rect id="platformcage3_6_" x="3476.023" y="1590.158" fill="#DD192C" stroke="#000000" stroke-miterlimit="10" width="561.131" height="318.619"/>
<rect id="platformcage3_10_" x="4598.288" y="1271.533" fill="#DD192C" stroke="#000000" stroke-miterlimit="10" width="561.13" height="318.62"/>
<rect id="platformcage3_11_" x="5159.419" y="1588.785" fill="#DD192C" stroke="#000000" stroke-miterlimit="10" width="561.13" height="318.619"/>
<rect id="platformcage3_19_" x="11608.689" y="1591.652" fill="#DD192C" stroke="#000000" stroke-miterlimit="10" width="561.129" height="318.619"/>
<rect id="platformcage4" x="10486.43" y="1591.652" fill="#535BA2" stroke="#000000" stroke-miterlimit="10" width="561.131" height="318.619"/>
<rect id="platformcage3_21_" x="9925.301" y="1591.652" fill="#DD192C" stroke="#000000" stroke-miterlimit="10" width="561.128" height="318.619"/>
<rect id="platformcage4_1_" x="11047.561" y="1588.777" fill="#535BA2" stroke="#000000" stroke-miterlimit="10" width="561.131" height="318.619"/>
<rect id="platformcage4_2_" x="7965.071" y="1588.786" fill="#535BA2" stroke="#000000" stroke-miterlimit="10" width="561.131" height="318.619"/>
<rect id="platformcage4_3_" x="7403.939" y="1270.167" fill="#535BA2" stroke="#000000" stroke-miterlimit="10" width="561.131" height="318.619"/>
<rect id="platformcage4_12_" x="6281.678" y="634.803" fill="#535BA2" stroke="#000000" stroke-miterlimit="10" width="561.131" height="318.619"/>
<rect id="platformcage4_11_" x="6281.678" y="1590.66" fill="#535BA2" stroke="#000000" stroke-miterlimit="10" width="561.131" height="318.619"/>
<rect id="platformcage4_10_" x="6281.678" y="1272.041" fill="#535BA2" stroke="#000000" stroke-miterlimit="10" width="561.131" height="318.619"/>
<rect id="platformcage4_9_" x="6281.678" y="953.422" fill="#535BA2" stroke="#000000" stroke-miterlimit="10" width="561.131" height="318.619"/>
<rect id="platformcage4_5_" x="5159.416" y="953.422" fill="#535BA2" stroke="#000000" stroke-miterlimit="10" width="561.131" height="318.619"/>
<rect id="platformcage4_4_" x="5159.416" y="1272.042" fill="#535BA2" stroke="#000000" stroke-miterlimit="10" width="561.131" height="318.619"/>
<rect id="platformcage4_6_" x="4598.285" y="953.422" fill="#535BA2" stroke="#000000" stroke-miterlimit="10" width="561.131" height="318.619"/>
</svg>
