<?xml version="1.0" encoding="utf-8"?>
<!-- Generator: Adobe Illustrator 15.1.0, SVG Export Plug-In . SVG Version: 6.00 Build 0)  -->
<!DOCTYPE svg PUBLIC "-//W3C//DTD SVG 1.1//EN" "http://www.w3.org/Graphics/SVG/1.1/DTD/svg11.dtd">
<svg version="1.1" id="Calque_1" xmlns="http://www.w3.org/2000/svg" xmlns:xlink="http://www.w3.org/1999/xlink" x="0px" y="0px"
	 width="16383px" height="16353px" viewBox="0 0 16383 16353" enable-background="new 0 0 16383 16353" xml:space="preserve">
<rect id="shadows_1_" x="8563.908" y="12091.721" fill="#686868" stroke="#F98238" stroke-miterlimit="10" width="3341.47" height="1527.083"/>
<rect id="characterstart_4_" x="3014.352" y="3438.276" fill="#7CD2E2" stroke="#000000" stroke-miterlimit="10" width="85.193" height="403.363"/>
<rect id="groundcage1_3_" x="2763.635" y="3845.481" stroke="#000000" stroke-miterlimit="10" width="835.366" height="305.416"/>
<rect id="groundcage4" x="3599.002" y="3845.481" stroke="#000000" stroke-miterlimit="10" width="835.365" height="305.416"/>
<rect id="groundcage1_15_" x="4434.369" y="3845.484" stroke="#000000" stroke-miterlimit="10" width="835.366" height="305.416"/>
<rect id="groundcage1_5_" x="5269.734" y="3845.481" stroke="#000000" stroke-miterlimit="10" width="835.365" height="305.416"/>
<rect id="groundcage3" x="1928.269" y="3538.144" stroke="#000000" stroke-miterlimit="10" width="835.366" height="305.416"/>
<rect id="groundcage3_1_" x="1928.269" y="3234.649" stroke="#000000" stroke-miterlimit="10" width="835.366" height="305.416"/>
<rect id="groundcage3_2_" x="1928.27" y="2929.233" stroke="#000000" stroke-miterlimit="10" width="835.366" height="305.416"/>
<rect id="groundcage1_4_" x="1928.269" y="3845.481" stroke="#000000" stroke-miterlimit="10" width="835.366" height="305.416"/>
<rect id="groundcage2" x="2763.635" y="2623.817" stroke="#000000" stroke-miterlimit="10" width="835.366" height="305.416"/>
<rect id="groundcage2_1_" x="3599.001" y="2623.817" stroke="#000000" stroke-miterlimit="10" width="835.366" height="305.416"/>
<rect id="groundcage2_2_" x="5269.734" y="3385.436" stroke="#000000" stroke-miterlimit="10" width="835.367" height="305.416"/>
<rect id="groundcage1_10_" x="1928.269" y="2623.817" stroke="#000000" stroke-miterlimit="10" width="835.366" height="305.416"/>
<rect id="groundcage1_14_" x="4434.368" y="3387.357" stroke="#000000" stroke-miterlimit="10" width="835.367" height="305.416"/>
<rect id="groundcage1_22_" x="6105.101" y="3387.357" stroke="#000000" stroke-miterlimit="10" width="835.367" height="305.416"/>
<rect id="pillevolutiona_1_" x="3892.733" y="3583.317" fill="#4877B5" stroke="#000000" stroke-miterlimit="10" width="50.685" height="61.854"/>
<rect id="groundcage1_26_" x="5269.735" y="4914.439" stroke="#000000" stroke-miterlimit="10" width="835.366" height="305.416"/>
<rect id="groundcage1_23_" x="4434.369" y="4914.439" stroke="#000000" stroke-miterlimit="10" width="835.366" height="305.416"/>
<rect id="groundcage4_2_" x="3599.002" y="4914.439" stroke="#000000" stroke-miterlimit="10" width="835.365" height="305.416"/>
<rect id="groundcage1_31_" x="2763.635" y="4914.439" stroke="#000000" stroke-miterlimit="10" width="835.366" height="305.416"/>
<rect id="groundcage1_33_" x="1928.269" y="4914.439" stroke="#000000" stroke-miterlimit="10" width="835.365" height="305.416"/>
<rect id="groundcage1_25_" x="6152.398" y="5067.147" stroke="#000000" stroke-miterlimit="10" width="835.366" height="305.416"/>
<rect id="groundcage1_83_" x="1928.269" y="8885.133" stroke="#000000" stroke-miterlimit="10" width="835.367" height="305.416"/>
<rect id="groundcage1_82_" x="1928.271" y="9343.255" stroke="#000000" stroke-miterlimit="10" width="835.366" height="305.416"/>
<rect id="groundcage1_101_" x="1928.271" y="9648.672" stroke="#000000" stroke-miterlimit="10" width="835.366" height="305.416"/>
<rect id="groundcage1_108_" x="1928.271" y="9954.091" stroke="#000000" stroke-miterlimit="10" width="835.365" height="305.416"/>
<rect id="groundcage1_107_" x="1928.271" y="10259.508" stroke="#000000" stroke-miterlimit="10" width="835.365" height="305.416"/>
<rect id="groundcage1_96_" x="3599.002" y="9342.785" stroke="#000000" stroke-miterlimit="10" width="835.367" height="305.416"/>
<rect id="groundcage1_95_" x="4481.666" y="9495.493" stroke="#000000" stroke-miterlimit="10" width="835.365" height="305.416"/>
<rect id="groundcage1_94_" x="4481.665" y="9190.076" stroke="#000000" stroke-miterlimit="10" width="835.366" height="305.415"/>
<rect id="groundcage4_4_" x="2763.637" y="9342.783" stroke="#000000" stroke-miterlimit="10" width="835.365" height="305.415"/>
<rect id="groundcage1_87_" x="3646.299" y="9648.2" stroke="#000000" stroke-miterlimit="10" width="835.367" height="305.416"/>
<rect id="spadesdown_2_" x="4277.801" y="9612.217" fill="#C94A96" stroke="#000000" stroke-miterlimit="10" width="363.414" height="35.983"/>
<rect id="groundcage1_117_" x="1880.974" y="10870.344" stroke="#000000" stroke-miterlimit="10" width="835.366" height="305.416"/>
<rect id="groundcage1_116_" x="1928.27" y="10564.928" stroke="#000000" stroke-miterlimit="10" width="835.367" height="305.415"/>
<rect id="groundcage1_115_" x="1045.607" y="10870.344" stroke="#000000" stroke-miterlimit="10" width="835.367" height="305.416"/>
<rect id="spadesdown_4_" x="1724.407" y="10852.352" fill="#C94A96" stroke="#000000" stroke-miterlimit="10" width="363.413" height="35.983"/>
<rect id="groundcage1_121_" x="6152.398" y="5677.979" stroke="#000000" stroke-miterlimit="10" width="835.367" height="305.416"/>
<rect id="groundcage1_119_" x="5317.031" y="5830.688" stroke="#000000" stroke-miterlimit="10" width="835.367" height="305.416"/>
<rect id="spadesdown_5_" x="5937.013" y="5830.688" fill="#C94A96" stroke="#000000" stroke-miterlimit="10" width="363.413" height="35.983"/>
<rect id="groundcage1_128_" x="8658.5" y="5066.813" stroke="#000000" stroke-miterlimit="10" width="835.365" height="305.416"/>
<rect id="groundcage1_126_" x="7823.133" y="5066.813" stroke="#000000" stroke-miterlimit="10" width="835.365" height="305.416"/>
<rect id="groundcage1_120_" x="6987.766" y="5066.813" stroke="#000000" stroke-miterlimit="10" width="835.365" height="305.416"/>
<rect id="groundcage1_134_" x="11164.6" y="5066.813" stroke="#000000" stroke-miterlimit="10" width="835.365" height="305.416"/>
<rect id="groundcage1_132_" x="10329.232" y="5066.813" stroke="#000000" stroke-miterlimit="10" width="835.365" height="305.416"/>
<rect id="groundcage4_1_" x="9493.865" y="5066.813" stroke="#000000" stroke-miterlimit="10" width="835.365" height="305.416"/>
<rect id="groundcage1_142_" x="11999.965" y="5066.813" stroke="#000000" stroke-miterlimit="10" width="835.37" height="305.416"/>
<rect id="groundcage1_145_" x="12835.336" y="5830.356" stroke="#000000" stroke-miterlimit="10" width="835.364" height="305.416"/>
<rect id="groundcage1_148_" x="11999.967" y="5372.229" stroke="#000000" stroke-miterlimit="10" width="835.368" height="305.416"/>
<rect id="groundcage1_147_" x="11999.967" y="5830.354" stroke="#000000" stroke-miterlimit="10" width="835.368" height="305.416"/>
<rect id="groundcage1_168_" x="10281.934" y="5830.355" stroke="#000000" stroke-miterlimit="10" width="835.366" height="305.416"/>
<rect id="groundcage1_167_" x="9399.271" y="6135.771" stroke="#000000" stroke-miterlimit="10" width="835.367" height="305.416"/>
<rect id="groundcage1_166_" x="11164.598" y="5830.356" stroke="#000000" stroke-miterlimit="10" width="835.367" height="305.415"/>
<rect id="groundcage1_165_" x="10329.234" y="5372.229" stroke="#000000" stroke-miterlimit="10" width="835.366" height="305.416"/>
<rect id="groundcage1_164_" x="11164.602" y="5372.229" stroke="#000000" stroke-miterlimit="10" width="835.367" height="305.416"/>
<rect id="groundcage1_172_" x="8563.903" y="5830.355" stroke="#000000" stroke-miterlimit="10" width="835.367" height="305.416"/>
<rect id="groundcage1_171_" x="9446.567" y="5830.356" stroke="#000000" stroke-miterlimit="10" width="835.367" height="305.415"/>
<rect id="groundcage1_170_" x="8658.496" y="5372.229" stroke="#000000" stroke-miterlimit="10" width="835.367" height="305.416"/>
<rect id="groundcage1_169_" x="9493.863" y="5372.229" stroke="#000000" stroke-miterlimit="10" width="835.367" height="305.416"/>
<rect id="spadesdown_7_" x="9166.154" y="6099.788" fill="#C94A96" stroke="#000000" stroke-miterlimit="10" width="363.413" height="35.983"/>
<rect id="groundcage1_214_" x="8516.609" y="7662.853" stroke="#000000" stroke-miterlimit="10" width="835.367" height="305.416"/>
<rect id="groundcage1_211_" x="7681.243" y="7662.853" stroke="#000000" stroke-miterlimit="10" width="835.366" height="305.416"/>
<rect id="spadesdown_10_" x="8283.492" y="7626.868" fill="#C94A96" stroke="#000000" stroke-miterlimit="10" width="363.413" height="35.984"/>
<rect id="groundcage1_174_" x="11199.301" y="6135.771" stroke="#000000" stroke-miterlimit="10" width="835.368" height="305.416"/>
<rect id="groundcage1_173_" x="10363.934" y="6135.771" stroke="#000000" stroke-miterlimit="10" width="835.366" height="305.416"/>
<rect id="spadesdown_8_" x="10953.094" y="6099.788" fill="#C94A96" stroke="#000000" stroke-miterlimit="10" width="363.413" height="35.983"/>
<rect id="groundcage1_177_" x="6987.764" y="5372.229" stroke="#000000" stroke-miterlimit="10" width="835.366" height="305.416"/>
<rect id="groundcage1_176_" x="7823.129" y="5372.229" stroke="#000000" stroke-miterlimit="10" width="835.367" height="305.416"/>
<rect id="groundcage1_183_" x="7681.243" y="7052.02" stroke="#000000" stroke-miterlimit="10" width="835.364" height="305.416"/>
<rect id="groundcage1_215_" x="6845.878" y="7052.02" stroke="#000000" stroke-miterlimit="10" width="835.366" height="305.416"/>
<rect id="groundcage1_222_" x="5127.843" y="7052.021" stroke="#000000" stroke-miterlimit="10" width="835.367" height="305.416"/>
<rect id="groundcage1_221_" x="6010.507" y="7052.022" stroke="#000000" stroke-miterlimit="10" width="835.368" height="305.415"/>
<rect id="groundcage1_233_" x="4245.18" y="8427.054" stroke="#000000" stroke-miterlimit="10" width="835.366" height="305.416"/>
<rect id="groundcage1_237_" x="5080.546" y="8426.724" stroke="#000000" stroke-miterlimit="10" width="835.366" height="305.416"/>
<rect id="groundcage1_218_" x="6010.507" y="7357.436" stroke="#000000" stroke-miterlimit="10" width="835.368" height="305.416"/>
<rect id="groundcage1_217_" x="5175.14" y="7357.436" stroke="#000000" stroke-miterlimit="10" width="835.367" height="305.416"/>
<rect id="spadesdown_11_" x="5799.004" y="7321.454" fill="#C94A96" stroke="#000000" stroke-miterlimit="10" width="363.413" height="35.983"/>
<rect id="groundcage1_227_" x="4292.476" y="7052.022" stroke="#000000" stroke-miterlimit="10" width="835.367" height="305.415"/>
<rect id="groundcage1_235_" x="3409.813" y="8427.054" stroke="#000000" stroke-miterlimit="10" width="835.366" height="305.416"/>
<rect id="groundcage1_246_" x="11999.965" y="5066.813" stroke="#000000" stroke-miterlimit="10" width="835.37" height="305.416"/>
<rect id="groundcage1_244_" x="11999.967" y="5372.229" stroke="#000000" stroke-miterlimit="10" width="835.368" height="305.416"/>
<rect id="groundcage1_258_" x="7633.943" y="7968.598" stroke="#000000" stroke-miterlimit="10" width="835.368" height="305.416"/>
<rect id="groundcage4_5_" x="5915.912" y="8426.724" stroke="#000000" stroke-miterlimit="10" width="835.365" height="305.416"/>
<rect id="groundcage1_238_" x="6751.278" y="8426.724" stroke="#000000" stroke-miterlimit="10" width="835.368" height="305.416"/>
<rect id="groundcage1_264_" x="6798.575" y="9342.971" stroke="#000000" stroke-miterlimit="10" width="835.367" height="305.416"/>
<rect id="groundcage1_262_" x="7633.942" y="9342.971" stroke="#000000" stroke-miterlimit="10" width="835.364" height="305.416"/>
<rect id="groundcage1_275_" x="8469.311" y="9342.976" stroke="#000000" stroke-miterlimit="10" width="835.366" height="305.416"/>
<rect id="groundcage1_274_" x="9351.974" y="9648.391" stroke="#000000" stroke-miterlimit="10" width="835.367" height="305.416"/>
<rect id="groundcage_x27_" x="9351.974" y="9342.977" stroke="#000000" stroke-miterlimit="10" width="835.367" height="305.415"/>
<rect id="groundcage1_268_" x="8516.607" y="9648.391" stroke="#000000" stroke-miterlimit="10" width="835.366" height="305.416"/>
<rect id="spadesdown_13_" x="9148.109" y="9612.408" fill="#C94A96" stroke="#000000" stroke-miterlimit="10" width="363.413" height="35.983"/>
<rect id="groundcage4_3_" x="10187.341" y="9342.979" stroke="#000000" stroke-miterlimit="10" width="835.369" height="305.416"/>
<rect id="groundcage1_261_" x="11070.004" y="9342.98" stroke="#000000" stroke-miterlimit="10" width="835.366" height="305.415"/>
<rect id="groundcage1_265_" x="11905.371" y="9342.979" stroke="#000000" stroke-miterlimit="10" width="835.367" height="305.416"/>
<rect id="groundcage1_281_" x="10187.34" y="9648.394" stroke="#000000" stroke-miterlimit="10" width="835.37" height="305.416"/>
<rect id="groundcage1_280_" x="11070.005" y="9648.396" stroke="#000000" stroke-miterlimit="10" width="835.365" height="305.415"/>
<rect id="groundcage1_278_" x="12740.738" y="9495.688" stroke="#000000" stroke-miterlimit="10" width="835.367" height="305.415"/>
<rect id="spadesdown_12_" x="12587.418" y="9459.705" fill="#C94A96" stroke="#000000" stroke-miterlimit="10" width="363.41" height="35.983"/>
<rect id="groundcage1_287_" x="10187.339" y="9953.808" stroke="#000000" stroke-miterlimit="10" width="835.367" height="305.416"/>
<rect id="groundcage1_286_" x="10187.339" y="10411.937" stroke="#000000" stroke-miterlimit="10" width="835.367" height="305.416"/>
<rect id="groundcage1_289_" x="11070.004" y="9953.808" stroke="#000000" stroke-miterlimit="10" width="835.365" height="305.416"/>
<rect id="groundcage1_288_" x="11070.004" y="10411.937" stroke="#000000" stroke-miterlimit="10" width="835.365" height="305.416"/>
<rect id="groundcage1_297_" x="8516.603" y="9953.807" stroke="#000000" stroke-miterlimit="10" width="835.367" height="305.416"/>
<rect id="groundcage1_296_" x="8469.307" y="10411.937" stroke="#000000" stroke-miterlimit="10" width="835.369" height="305.416"/>
<rect id="groundcage1_295_" x="9351.97" y="9953.808" stroke="#000000" stroke-miterlimit="10" width="835.369" height="305.416"/>
<rect id="groundcage1_294_" x="9351.97" y="10411.937" stroke="#000000" stroke-miterlimit="10" width="835.369" height="305.416"/>
<rect id="groundcage1_292_" x="7586.646" y="11633.555" stroke="#000000" stroke-miterlimit="10" width="835.367" height="305.416"/>
<rect id="groundcage3_69_" x="6751.278" y="11480.847" stroke="#000000" stroke-miterlimit="10" width="835.367" height="305.416"/>
<rect id="spadesdown_15_" x="7430.077" y="11597.57" fill="#C94A96" stroke="#000000" stroke-miterlimit="10" width="363.415" height="35.983"/>
<rect id="groundcage1_330_" x="8952.646" y="11633.555" stroke="#000000" stroke-miterlimit="10" width="835.367" height="305.416"/>
<rect id="spadesdown_16_" x="9156.939" y="11597.57" fill="#C94A96" stroke="#000000" stroke-miterlimit="10" width="363.413" height="35.983"/>
<rect id="groundcage1_316_" x="11905.369" y="10411.932" stroke="#000000" stroke-miterlimit="10" width="835.369" height="305.416"/>
<rect id="groundcage4_6_" x="11905.369" y="10411.932" stroke="#000000" stroke-miterlimit="10" width="835.369" height="305.416"/>
<rect id="groundcage1_337_" x="10669.36" y="11633.273" stroke="#000000" stroke-miterlimit="10" width="835.367" height="305.416"/>
<rect id="spadesdown_17_" x="10873.654" y="11597.289" fill="#C94A96" stroke="#000000" stroke-miterlimit="10" width="363.413" height="35.983"/>
<rect id="groundcage1_356_" x="12740.738" y="13924.217" stroke="#000000" stroke-miterlimit="10" width="835.366" height="305.416"/>
<rect id="groundcage1_355_" x="11905.371" y="13618.801" stroke="#000000" stroke-miterlimit="10" width="835.367" height="305.416"/>
<rect id="groundcage1_353_" x="11905.371" y="13924.217" stroke="#000000" stroke-miterlimit="10" width="835.367" height="305.416"/>
<rect id="spadesdown_18_" x="12507.621" y="13888.232" fill="#C94A96" stroke="#000000" stroke-miterlimit="10" width="363.413" height="35.984"/>
<rect id="groundcage1_352_" x="11905.371" y="12855.26" stroke="#000000" stroke-miterlimit="10" width="835.367" height="305.416"/>
<rect id="groundcage1_351_" x="11905.371" y="13313.384" stroke="#000000" stroke-miterlimit="10" width="835.367" height="305.416"/>
<rect id="groundcage1_372_" x="9399.273" y="13313.384" stroke="#000000" stroke-miterlimit="10" width="835.366" height="305.416"/>
<rect id="groundcage1_371_" x="10234.641" y="13313.384" stroke="#000000" stroke-miterlimit="10" width="835.366" height="305.416"/>
<rect id="groundcage4_8_" x="11070.009" y="13313.387" stroke="#000000" stroke-miterlimit="10" width="835.369" height="305.416"/>
<rect id="groundcage1_366_" x="8563.908" y="13313.384" stroke="#000000" stroke-miterlimit="10" width="835.366" height="305.416"/>
<rect id="groundcage1_363_" x="11070.008" y="12855.26" stroke="#000000" stroke-miterlimit="10" width="835.37" height="305.416"/>
<rect id="groundcage3_108_" x="11070.008" y="12549.844" stroke="#000000" stroke-miterlimit="10" width="835.37" height="305.416"/>
<rect id="groundcage3_112_" x="11070.008" y="12244.428" stroke="#000000" stroke-miterlimit="10" width="835.37" height="305.416"/>
<rect id="end_2_" x="9482.814" y="12911.392" fill="#FBD849" stroke="#000000" stroke-miterlimit="10" width="251.265" height="403.363"/>
<rect id="pillevolutiond_1_" x="10810.086" y="13058.917" fill="#9A549C" stroke="#F98238" stroke-miterlimit="10" width="50.681" height="61.855"/>
<rect id="spadesdown_19_" x="10328.727" y="13275.479" fill="#C94A96" stroke="#000000" stroke-miterlimit="10" width="363.413" height="35.984"/>
<rect id="spadesdown_14_" x="9965.314" y="13275.479" fill="#C94A96" stroke="#000000" stroke-miterlimit="10" width="363.413" height="35.984"/>
<rect id="groundcage3_3_" x="4434.369" y="3081.941" stroke="#000000" stroke-miterlimit="10" width="835.366" height="305.416"/>
<rect id="groundcage3_4_" x="4434.369" y="2776.525" stroke="#000000" stroke-miterlimit="10" width="835.366" height="305.416"/>
<rect id="groundcage3_5_" x="6152.398" y="3692.776" stroke="#000000" stroke-miterlimit="10" width="835.366" height="305.416"/>
<rect id="groundcage3_6_" x="6152.398" y="3998.189" stroke="#000000" stroke-miterlimit="10" width="835.366" height="305.416"/>
<rect id="groundcage3_7_" x="6152.398" y="4303.608" stroke="#000000" stroke-miterlimit="10" width="835.366" height="305.416"/>
<rect id="groundcage3_10_" x="12939.085" y="4914.105" stroke="#000000" stroke-miterlimit="10" width="835.363" height="305.416"/>
<rect id="groundcage3_9_" x="12939.085" y="5219.519" stroke="#000000" stroke-miterlimit="10" width="835.363" height="305.416"/>
<rect id="groundcage3_8_" x="12939.085" y="5524.938" stroke="#000000" stroke-miterlimit="10" width="835.363" height="305.416"/>
<rect id="groundcage3_13_" x="1045.605" y="4761.729" stroke="#000000" stroke-miterlimit="10" width="835.366" height="305.416"/>
<rect id="groundcage3_12_" x="1045.605" y="5067.143" stroke="#000000" stroke-miterlimit="10" width="835.366" height="305.416"/>
<rect id="groundcage3_11_" x="1045.605" y="5372.562" stroke="#000000" stroke-miterlimit="10" width="835.366" height="305.416"/>
<rect id="groundcage3_16_" x="1045.605" y="5677.979" stroke="#000000" stroke-miterlimit="10" width="835.366" height="305.416"/>
<rect id="groundcage3_15_" x="1045.605" y="5983.393" stroke="#000000" stroke-miterlimit="10" width="835.366" height="305.416"/>
<rect id="groundcage3_14_" x="1045.605" y="6288.812" stroke="#000000" stroke-miterlimit="10" width="835.366" height="305.416"/>
<rect id="groundcage3_22_" x="1045.605" y="6593.752" stroke="#000000" stroke-miterlimit="10" width="835.366" height="305.416"/>
<rect id="groundcage3_21_" x="1045.605" y="6899.165" stroke="#000000" stroke-miterlimit="10" width="835.366" height="305.416"/>
<rect id="groundcage3_20_" x="1045.605" y="7204.584" stroke="#000000" stroke-miterlimit="10" width="835.366" height="305.416"/>
<rect id="groundcage3_19_" x="1045.605" y="7510.002" stroke="#000000" stroke-miterlimit="10" width="835.366" height="305.416"/>
<rect id="groundcage3_18_" x="1045.605" y="7815.415" stroke="#000000" stroke-miterlimit="10" width="835.366" height="305.416"/>
<rect id="groundcage3_17_" x="1045.605" y="8120.834" stroke="#000000" stroke-miterlimit="10" width="835.366" height="305.416"/>
<rect id="groundcage3_28_" x="1045.605" y="8427.006" stroke="#000000" stroke-miterlimit="10" width="835.366" height="305.416"/>
<rect id="groundcage3_27_" x="1045.605" y="8732.419" stroke="#000000" stroke-miterlimit="10" width="835.366" height="305.416"/>
<rect id="groundcage3_26_" x="1045.605" y="9037.838" stroke="#000000" stroke-miterlimit="10" width="835.366" height="305.416"/>
<rect id="groundcage3_25_" x="1045.605" y="9343.256" stroke="#000000" stroke-miterlimit="10" width="835.366" height="305.416"/>
<rect id="groundcage3_24_" x="1045.605" y="9648.668" stroke="#000000" stroke-miterlimit="10" width="835.366" height="305.417"/>
<rect id="groundcage3_29_" x="1045.607" y="10564.927" stroke="#000000" stroke-miterlimit="10" width="835.366" height="305.416"/>
<rect id="groundcage3_30_" x="1045.605" y="10259.508" stroke="#000000" stroke-miterlimit="10" width="835.366" height="305.416"/>
<rect id="groundcage3_23_" x="1045.605" y="9954.088" stroke="#000000" stroke-miterlimit="10" width="835.366" height="305.416"/>
<rect id="groundcage3_33_" x="1928.269" y="5219.855" stroke="#000000" stroke-miterlimit="10" width="835.366" height="305.416"/>
<rect id="groundcage3_32_" x="1928.269" y="5525.269" stroke="#000000" stroke-miterlimit="10" width="835.366" height="305.416"/>
<rect id="groundcage3_31_" x="1928.269" y="5830.688" stroke="#000000" stroke-miterlimit="10" width="835.366" height="305.416"/>
<rect id="groundcage3_44_" x="5269.735" y="5219.854" stroke="#000000" stroke-miterlimit="10" width="835.366" height="305.416"/>
<rect id="groundcage3_43_" x="5269.735" y="5525.273" stroke="#000000" stroke-miterlimit="10" width="835.366" height="305.417"/>
<rect id="groundcage3_36_" x="1928.269" y="6136.104" stroke="#000000" stroke-miterlimit="10" width="835.366" height="305.416"/>
<rect id="groundcage3_35_" x="1928.269" y="6441.517" stroke="#000000" stroke-miterlimit="10" width="835.366" height="305.416"/>
<rect id="groundcage3_34_" x="1928.269" y="6746.936" stroke="#000000" stroke-miterlimit="10" width="835.366" height="305.416"/>
<rect id="groundcage3_39_" x="1928.269" y="7051.876" stroke="#000000" stroke-miterlimit="10" width="835.366" height="305.416"/>
<rect id="groundcage3_38_" x="1928.269" y="7357.289" stroke="#000000" stroke-miterlimit="10" width="835.366" height="305.416"/>
<rect id="groundcage3_37_" x="1928.269" y="7662.708" stroke="#000000" stroke-miterlimit="10" width="835.366" height="305.416"/>
<rect id="groundcage3_42_" x="1928.269" y="7968.93" stroke="#000000" stroke-miterlimit="10" width="835.366" height="305.416"/>
<rect id="groundcage3_41_" x="1928.269" y="8274.343" stroke="#000000" stroke-miterlimit="10" width="835.366" height="305.416"/>
<rect id="groundcage3_40_" x="1928.269" y="8579.762" stroke="#000000" stroke-miterlimit="10" width="835.366" height="305.416"/>
<rect id="groundcage3_45_" x="6152.398" y="5372.565" stroke="#000000" stroke-miterlimit="10" width="835.366" height="305.416"/>
<rect id="groundcage3_46_" x="5269.734" y="4150.897" stroke="#000000" stroke-miterlimit="10" width="835.365" height="305.416"/>
<rect id="groundcage3_47_" x="7681.243" y="6288.479" stroke="#000000" stroke-miterlimit="10" width="835.366" height="305.416"/>
<rect id="groundcage3_48_" x="7681.243" y="5983.396" stroke="#000000" stroke-miterlimit="10" width="835.366" height="305.416"/>
<rect id="groundcage3_49_" x="7681.243" y="5677.647" stroke="#000000" stroke-miterlimit="10" width="835.366" height="305.416"/>
<rect id="groundcage3_50_" x="8563.902" y="6135.771" stroke="#000000" stroke-miterlimit="10" width="835.366" height="305.416"/>
<rect id="groundcage3_51_" x="8563.903" y="6441.188" stroke="#000000" stroke-miterlimit="10" width="835.367" height="305.416"/>
<rect id="groundcage3_52_" x="8563.903" y="6746.604" stroke="#000000" stroke-miterlimit="10" width="835.367" height="305.416"/>
<rect id="groundcage3_53_" x="8563.902" y="7052.02" stroke="#000000" stroke-miterlimit="10" width="835.366" height="305.416"/>
<rect id="groundcage3_54_" x="8563.902" y="7357.436" stroke="#000000" stroke-miterlimit="10" width="835.366" height="305.416"/>
<rect id="groundcage3_55_" x="4292.478" y="7357.768" stroke="#000000" stroke-miterlimit="10" width="835.366" height="305.416"/>
<rect id="groundcage3_56_" x="4292.477" y="7662.708" stroke="#000000" stroke-miterlimit="10" width="835.366" height="305.416"/>
<rect id="groundcage3_57_" x="3409.814" y="7205.06" stroke="#000000" stroke-miterlimit="10" width="835.365" height="305.416"/>
<rect id="groundcage3_58_" x="3409.814" y="6899.165" stroke="#000000" stroke-miterlimit="10" width="835.365" height="305.416"/>
<rect id="groundcage3_60_" x="3409.814" y="7815.8" stroke="#000000" stroke-miterlimit="10" width="835.365" height="305.416"/>
<rect id="groundcage3_61_" x="3409.814" y="8120.834" stroke="#000000" stroke-miterlimit="10" width="835.365" height="305.416"/>
<rect id="groundcage3_59_" x="3409.814" y="7509.905" stroke="#000000" stroke-miterlimit="10" width="835.365" height="305.416"/>
<rect id="groundcage3_62_" x="7681.243" y="7357.768" stroke="#000000" stroke-miterlimit="10" width="835.366" height="305.416"/>
<rect id="groundcage3_63_" x="7633.941" y="8273.543" stroke="#000000" stroke-miterlimit="10" width="835.365" height="305.415"/>
<rect id="groundcage3_64_" x="7633.943" y="8579.432" stroke="#000000" stroke-miterlimit="10" width="835.366" height="305.416"/>
<rect id="groundcage3_65_" x="6751.279" y="8732.142" stroke="#000000" stroke-miterlimit="10" width="835.367" height="305.416"/>
<rect id="groundcage3_66_" x="6751.28" y="9037.558" stroke="#000000" stroke-miterlimit="10" width="835.366" height="305.416"/>
<rect id="groundcage3_67_" x="12788.032" y="9190.263" stroke="#000000" stroke-miterlimit="10" width="835.365" height="305.416"/>
<rect id="groundcage3_68_" x="6751.278" y="11175.431" stroke="#000000" stroke-miterlimit="10" width="835.366" height="305.416"/>
<rect id="groundcage3_71_" x="6751.278" y="10870.342" stroke="#000000" stroke-miterlimit="10" width="835.367" height="305.416"/>
<rect id="groundcage3_70_" x="6751.278" y="10564.926" stroke="#000000" stroke-miterlimit="10" width="835.366" height="305.416"/>
<rect id="groundcage3_72_" x="6751.278" y="10258.904" stroke="#000000" stroke-miterlimit="10" width="835.366" height="305.416"/>
<rect id="groundcage3_73_" x="7633.94" y="10717.634" stroke="#000000" stroke-miterlimit="10" width="835.366" height="305.416"/>
<rect id="groundcage3_74_" x="7633.94" y="11022.723" stroke="#000000" stroke-miterlimit="10" width="835.366" height="305.416"/>
<rect id="groundcage3_75_" x="7633.94" y="11328.14" stroke="#000000" stroke-miterlimit="10" width="835.366" height="305.416"/>
<rect id="groundcage4_7_" x="7633.94" y="10412.218" stroke="#000000" stroke-miterlimit="10" width="835.366" height="305.416"/>
<rect id="groundcage3_77_" x="8469.309" y="10717.353" stroke="#000000" stroke-miterlimit="10" width="835.365" height="305.416"/>
<rect id="groundcage3_80_" x="8469.309" y="11022.723" stroke="#000000" stroke-miterlimit="10" width="835.365" height="305.416"/>
<rect id="groundcage3_81_" x="8469.309" y="11327.857" stroke="#000000" stroke-miterlimit="10" width="835.365" height="305.416"/>
<rect id="groundcage3_78_" x="9351.972" y="10717.353" stroke="#000000" stroke-miterlimit="10" width="835.365" height="305.416"/>
<rect id="groundcage3_79_" x="9351.972" y="11022.723" stroke="#000000" stroke-miterlimit="10" width="835.365" height="305.416"/>
<rect id="groundcage3_82_" x="9351.972" y="11327.857" stroke="#000000" stroke-miterlimit="10" width="835.365" height="305.416"/>
<rect id="groundcage3_83_" x="10187.34" y="10717.634" stroke="#000000" stroke-miterlimit="10" width="835.365" height="305.416"/>
<rect id="groundcage3_85_" x="10187.34" y="11022.764" stroke="#000000" stroke-miterlimit="10" width="835.365" height="305.416"/>
<rect id="groundcage3_88_" x="10187.34" y="11327.857" stroke="#000000" stroke-miterlimit="10" width="835.365" height="305.416"/>
<rect id="groundcage3_84_" x="11070.004" y="10717.634" stroke="#000000" stroke-miterlimit="10" width="835.365" height="305.416"/>
<rect id="groundcage3_86_" x="11070.004" y="11022.764" stroke="#000000" stroke-miterlimit="10" width="835.365" height="305.416"/>
<rect id="groundcage3_87_" x="11070.004" y="11328.18" stroke="#000000" stroke-miterlimit="10" width="835.365" height="305.416"/>
<rect id="groundcage3_89_" x="12788.035" y="10259.224" stroke="#000000" stroke-miterlimit="10" width="835.365" height="305.416"/>
<rect id="groundcage3_90_" x="12788.035" y="10564.926" stroke="#000000" stroke-miterlimit="10" width="835.365" height="305.416"/>
<rect id="groundcage3_92_" x="12788.035" y="10869.871" stroke="#000000" stroke-miterlimit="10" width="835.365" height="305.416"/>
<rect id="groundcage3_91_" x="12788.035" y="11175.573" stroke="#000000" stroke-miterlimit="10" width="835.365" height="305.416"/>
<rect id="groundcage3_96_" x="12788.035" y="11480.837" stroke="#000000" stroke-miterlimit="10" width="835.365" height="305.416"/>
<rect id="groundcage3_95_" x="12788.035" y="11786.539" stroke="#000000" stroke-miterlimit="10" width="835.365" height="305.416"/>
<rect id="groundcage3_94_" x="12788.035" y="12091.484" stroke="#000000" stroke-miterlimit="10" width="835.365" height="305.416"/>
<rect id="groundcage3_93_" x="12788.035" y="12397.187" stroke="#000000" stroke-miterlimit="10" width="835.365" height="305.416"/>
<rect id="groundcage3_106_" x="11905.371" y="11022.324" stroke="#000000" stroke-miterlimit="10" width="835.365" height="305.416"/>
<rect id="groundcage3_107_" x="11905.371" y="10717.163" stroke="#000000" stroke-miterlimit="10" width="835.365" height="305.416"/>
<rect id="groundcage3_105_" x="11905.371" y="11328.026" stroke="#000000" stroke-miterlimit="10" width="835.365" height="305.416"/>
<rect id="groundcage3_104_" x="11905.371" y="11633.29" stroke="#000000" stroke-miterlimit="10" width="835.365" height="305.416"/>
<rect id="groundcage3_103_" x="11905.371" y="11938.992" stroke="#000000" stroke-miterlimit="10" width="835.365" height="305.416"/>
<rect id="groundcage3_102_" x="11905.371" y="12243.938" stroke="#000000" stroke-miterlimit="10" width="835.365" height="305.416"/>
<rect id="groundcage3_101_" x="11905.371" y="12549.64" stroke="#000000" stroke-miterlimit="10" width="835.365" height="305.416"/>
<rect id="groundcage3_100_" x="12788.035" y="12702.504" stroke="#000000" stroke-miterlimit="10" width="835.365" height="305.416"/>
<rect id="groundcage3_99_" x="12788.035" y="13008.206" stroke="#000000" stroke-miterlimit="10" width="835.365" height="305.416"/>
<rect id="groundcage3_98_" x="12788.035" y="13313.151" stroke="#000000" stroke-miterlimit="10" width="835.365" height="305.416"/>
<rect id="groundcage3_97_" x="12788.035" y="13618.854" stroke="#000000" stroke-miterlimit="10" width="835.365" height="305.416"/>
<rect id="groundcage3_109_" x="8563.908" y="12397.187" stroke="#000000" stroke-miterlimit="10" width="835.366" height="305.416"/>
<rect id="groundcage3_110_" x="8563.908" y="12702.554" stroke="#000000" stroke-miterlimit="10" width="835.366" height="305.416"/>
<rect id="groundcage3_111_" x="8563.908" y="13008.206" stroke="#000000" stroke-miterlimit="10" width="835.366" height="305.416"/>
<rect id="groundcage2_4_" x="6152.398" y="4609.023" stroke="#000000" stroke-miterlimit="10" width="835.367" height="305.416"/>
<rect id="groundcage2_3_" x="6987.766" y="4609.023" stroke="#000000" stroke-miterlimit="10" width="835.367" height="305.416"/>
<rect id="groundcage2_6_" x="7823.133" y="4609.023" stroke="#000000" stroke-miterlimit="10" width="835.367" height="305.416"/>
<rect id="groundcage2_5_" x="8658.5" y="4609.023" stroke="#000000" stroke-miterlimit="10" width="835.366" height="305.416"/>
<rect id="groundcage2_10_" x="9493.867" y="4609.023" stroke="#000000" stroke-miterlimit="10" width="835.366" height="305.416"/>
<rect id="groundcage2_9_" x="10329.234" y="4609.023" stroke="#000000" stroke-miterlimit="10" width="835.366" height="305.416"/>
<rect id="groundcage2_8_" x="11164.602" y="4609.023" stroke="#000000" stroke-miterlimit="10" width="835.366" height="305.416"/>
<rect id="groundcage2_15_" x="2763.635" y="4456.315" stroke="#000000" stroke-miterlimit="10" width="835.367" height="305.416"/>
<rect id="groundcage2_14_" x="3599.002" y="4456.315" stroke="#000000" stroke-miterlimit="10" width="835.365" height="305.416"/>
<rect id="groundcage2_17_" x="1092.903" y="4456.316" stroke="#000000" stroke-miterlimit="10" width="835.366" height="305.416"/>
<rect id="groundcage2_16_" x="1928.269" y="4456.316" stroke="#000000" stroke-miterlimit="10" width="835.366" height="305.416"/>
<rect id="groundcage2_13_" x="4434.369" y="4456.315" stroke="#000000" stroke-miterlimit="10" width="835.366" height="305.416"/>
<rect id="groundcage2_12_" x="5269.736" y="4456.315" stroke="#000000" stroke-miterlimit="10" width="835.366" height="305.416"/>
<rect id="groundcage2_7_" x="11999.969" y="4609.023" stroke="#000000" stroke-miterlimit="10" width="835.367" height="305.416"/>
<rect id="groundcage2_11_" x="12835.336" y="4609.023" stroke="#000000" stroke-miterlimit="10" width="835.364" height="305.416"/>
<rect id="groundcage2_23_" x="3504.408" y="6593.896" stroke="#000000" stroke-miterlimit="10" width="835.366" height="305.416"/>
<rect id="groundcage2_22_" x="4339.774" y="6593.896" stroke="#000000" stroke-miterlimit="10" width="835.367" height="305.416"/>
<rect id="groundcage2_21_" x="5175.142" y="6593.896" stroke="#000000" stroke-miterlimit="10" width="835.366" height="305.416"/>
<rect id="groundcage2_20_" x="6010.509" y="6593.896" stroke="#000000" stroke-miterlimit="10" width="835.366" height="305.416"/>
<rect id="groundcage2_44_" x="6845.877" y="6593.896" stroke="#000000" stroke-miterlimit="10" width="835.366" height="305.416"/>
<rect id="groundcage2_19_" x="5127.843" y="7968.93" stroke="#000000" stroke-miterlimit="10" width="835.366" height="305.416"/>
<rect id="groundcage2_25_" x="4292.477" y="7968.93" stroke="#000000" stroke-miterlimit="10" width="835.366" height="305.416"/>
<rect id="groundcage2_24_" x="5963.21" y="7968.93" stroke="#000000" stroke-miterlimit="10" width="835.366" height="305.416"/>
<rect id="groundcage2_26_" x="6798.576" y="7968.93" stroke="#000000" stroke-miterlimit="10" width="835.366" height="305.416"/>
<rect id="groundcage2_18_" x="7681.243" y="6593.896" stroke="#000000" stroke-miterlimit="10" width="835.366" height="305.416"/>
<rect id="groundcage2_32_" x="7633.943" y="8884.85" stroke="#000000" stroke-miterlimit="10" width="835.366" height="305.416"/>
<rect id="groundcage2_31_" x="8469.311" y="8884.85" stroke="#000000" stroke-miterlimit="10" width="835.365" height="305.416"/>
<rect id="groundcage2_30_" x="9304.676" y="8884.85" stroke="#000000" stroke-miterlimit="10" width="835.368" height="305.416"/>
<rect id="groundcage2_29_" x="10140.043" y="8884.85" stroke="#000000" stroke-miterlimit="10" width="835.366" height="305.416"/>
<rect id="groundcage2_28_" x="10975.41" y="8884.85" stroke="#000000" stroke-miterlimit="10" width="835.367" height="305.416"/>
<rect id="groundcage2_27_" x="11810.777" y="8884.85" stroke="#000000" stroke-miterlimit="10" width="835.367" height="305.416"/>
<rect id="groundcage2_33_" x="12646.145" y="8884.85" stroke="#000000" stroke-miterlimit="10" width="835.367" height="305.416"/>
<rect id="groundcage2_34_" x="2763.636" y="8884.85" stroke="#000000" stroke-miterlimit="10" width="835.366" height="305.416"/>
<rect id="groundcage2_35_" x="3599.002" y="8884.85" stroke="#000000" stroke-miterlimit="10" width="835.365" height="305.416"/>
<rect id="groundcage2_36_" x="4434.369" y="8884.85" stroke="#000000" stroke-miterlimit="10" width="835.366" height="305.416"/>
<rect id="groundcage2_37_" x="7681.243" y="9953.808" stroke="#000000" stroke-miterlimit="10" width="835.366" height="305.416"/>
<rect id="groundcage2_38_" x="6845.878" y="9953.807" stroke="#000000" stroke-miterlimit="10" width="835.366" height="305.416"/>
<rect id="groundcage2_39_" x="11905.371" y="9953.808" stroke="#000000" stroke-miterlimit="10" width="835.366" height="305.416"/>
<rect id="groundcage2_40_" x="12740.738" y="9953.808" stroke="#000000" stroke-miterlimit="10" width="835.366" height="305.416"/>
<rect id="groundcage2_41_" x="8563.908" y="12091.229" stroke="#000000" stroke-miterlimit="10" width="835.367" height="305.416"/>
<rect id="groundcage2_42_" x="9399.275" y="12091.72" stroke="#000000" stroke-miterlimit="10" width="835.366" height="305.416"/>
<rect id="groundcage2_43_" x="10234.643" y="12091.72" stroke="#000000" stroke-miterlimit="10" width="835.366" height="305.416"/>
</svg>
