<?xml version="1.0" encoding="utf-8"?>
<!-- Generator: Adobe Illustrator 15.1.0, SVG Export Plug-In . SVG Version: 6.00 Build 0)  -->
<!DOCTYPE svg PUBLIC "-//W3C//DTD SVG 1.1//EN" "http://www.w3.org/Graphics/SVG/1.1/DTD/svg11.dtd">
<svg version="1.1" id="Calque_1" xmlns="http://www.w3.org/2000/svg" xmlns:xlink="http://www.w3.org/1999/xlink" x="0px" y="0px"
	 width="5999.529px" height="4388.609px" viewBox="0 0 5999.529 4388.609" enable-background="new 0 0 5999.529 4388.609"
	 xml:space="preserve">
<rect id="pillevolutionb_1_" x="2271.692" y="3381.213" fill="#FB913B" stroke="#000000" stroke-miterlimit="10" width="60.671" height="74.041"/>
<rect id="characterstart_4_" x="315.082" y="3568.396" fill="#7CD2E2" stroke="#000000" stroke-miterlimit="10" width="101.975" height="482.823"/>
<rect id="end_3_" x="5117.834" y="817.608" fill="#FBD849" stroke="#000000" stroke-miterlimit="10" width="150.382" height="241.41"/>
<rect id="platformcage2_17_" x="2084.527" y="3776.014" fill="#9BCB56" stroke="#000000" stroke-miterlimit="10" width="435" height="247"/>
<rect id="groundcage1_27_" x="-0.001" y="4023.029" stroke="#000000" stroke-miterlimit="10" width="999.921" height="365.58"/>
<rect id="groundcage1_11_" x="999.92" y="4023.029" stroke="#000000" stroke-miterlimit="10" width="999.921" height="365.58"/>
<rect id="groundcage1_29_" x="1999.842" y="4023.029" stroke="#000000" stroke-miterlimit="10" width="999.922" height="365.58"/>
<rect id="groundcage1_28_" x="2999.764" y="4023.029" stroke="#000000" stroke-miterlimit="10" width="999.922" height="365.58"/>
<rect id="groundcage1_31_" x="3999.686" y="4023.029" stroke="#000000" stroke-miterlimit="10" width="999.921" height="365.58"/>
<rect id="groundcage1_30_" x="4999.607" y="4023.029" stroke="#000000" stroke-miterlimit="10" width="999.921" height="365.58"/>
<rect id="platformcage2_1_" x="2084.527" y="3529.014" fill="#9BCB56" stroke="#000000" stroke-miterlimit="10" width="435" height="247"/>
<rect id="platformcage2_13_" x="5129.528" y="3776.024" fill="#9BCB56" stroke="#000000" stroke-miterlimit="10" width="435" height="247"/>
<rect id="platformcage2_35_" x="4694.528" y="3776.024" fill="#9BCB56" stroke="#000000" stroke-miterlimit="10" width="435" height="247"/>
<rect id="platformcage1_12_" x="3824.527" y="3776.023" fill="#70BF58" stroke="#000000" stroke-miterlimit="10" width="435" height="247"/>
<rect id="platformcage1_17_" x="2954.527" y="3776.021" fill="#70BF58" stroke="#000000" stroke-miterlimit="10" width="435" height="247"/>
<rect id="platformcage1_1_" x="2954.527" y="3282.019" fill="#70BF58" stroke="#000000" stroke-miterlimit="10" width="435" height="246.999"/>
<rect id="platformcage2_22_" x="2954.527" y="3529.018" fill="#9BCB56" stroke="#000000" stroke-miterlimit="10" width="435" height="247"/>
<rect id="platformcage1_11_" x="2954.527" y="2788.019" fill="#70BF58" stroke="#000000" stroke-miterlimit="10" width="435" height="246.999"/>
<rect id="platformcage2_24_" x="2954.527" y="3035.018" fill="#9BCB56" stroke="#000000" stroke-miterlimit="10" width="435" height="247.001"/>
<rect id="platformcage1_5_" x="2954.527" y="2541.02" fill="#70BF58" stroke="#000000" stroke-miterlimit="10" width="435" height="246.999"/>
<rect id="platformcage2_26_" x="3824.527" y="3529.014" fill="#9BCB56" stroke="#000000" stroke-miterlimit="10" width="435" height="247"/>
<rect id="platformcage2_76_" x="3824.528" y="3282.015" fill="#9BCB56" stroke="#000000" stroke-miterlimit="10" width="435" height="247"/>
<rect id="platformcage1_16_" x="3824.527" y="3035.016" fill="#70BF58" stroke="#000000" stroke-miterlimit="10" width="435" height="246.999"/>
<rect id="platformcage1_15_" x="3824.527" y="2541.016" fill="#70BF58" stroke="#000000" stroke-miterlimit="10" width="435" height="246.999"/>
<rect id="platformcage2_23_" x="3824.527" y="2788.015" fill="#9BCB56" stroke="#000000" stroke-miterlimit="10" width="435.001" height="247.001"/>
<rect id="platformcage1_14_" x="3824.526" y="2294.016" fill="#70BF58" stroke="#000000" stroke-miterlimit="10" width="435" height="247"/>
<rect id="platformcage1_13_" x="3824.527" y="2047.016" fill="#70BF58" stroke="#000000" stroke-miterlimit="10" width="435" height="247"/>
<rect id="platformcage2_11_" x="3824.526" y="1800.016" fill="#9BCB56" stroke="#000000" stroke-miterlimit="10" width="435" height="247"/>
<rect id="platformcage2_9_" x="3824.527" y="1553.017" fill="#9BCB56" stroke="#000000" stroke-miterlimit="10" width="434.999" height="247"/>
<rect id="platformcage2_29_" x="3824.526" y="1306.017" fill="#9BCB56" stroke="#000000" stroke-miterlimit="10" width="435" height="247"/>
<rect id="platformcage2_27_" x="3824.527" y="1059.017" fill="#9BCB56" stroke="#000000" stroke-miterlimit="10" width="435" height="247"/>
<rect id="platformcage2_37_" x="5129.528" y="3529.016" fill="#9BCB56" stroke="#000000" stroke-miterlimit="10" width="435" height="247"/>
<rect id="platformcage2_25_" x="5129.529" y="3282.016" fill="#9BCB56" stroke="#000000" stroke-miterlimit="10" width="435" height="247"/>
<rect id="platformcage1_26_" x="5129.528" y="3035.016" fill="#70BF58" stroke="#000000" stroke-miterlimit="10" width="435" height="247"/>
<rect id="platformcage1_24_" x="5129.528" y="2788.016" fill="#70BF58" stroke="#000000" stroke-miterlimit="10" width="435" height="247"/>
<rect id="platformcage2_33_" x="5129.528" y="2541.016" fill="#9BCB56" stroke="#000000" stroke-miterlimit="10" width="434.999" height="247"/>
<rect id="platformcage2_32_" x="5129.527" y="2294.016" fill="#9BCB56" stroke="#000000" stroke-miterlimit="10" width="435" height="247"/>
<rect id="platformcage2_31_" x="5129.528" y="2047.017" fill="#9BCB56" stroke="#000000" stroke-miterlimit="10" width="435" height="247"/>
<rect id="platformcage1_18_" x="5129.528" y="1800.018" fill="#70BF58" stroke="#000000" stroke-miterlimit="10" width="435" height="247"/>
<rect id="platformcage2_28_" x="5129.528" y="1553.018" fill="#9BCB56" stroke="#000000" stroke-miterlimit="10" width="435" height="247"/>
<rect id="platformcage2_15_" x="5129.528" y="1306.018" fill="#9BCB56" stroke="#000000" stroke-miterlimit="10" width="435" height="247"/>
<rect id="platformcage1_21_" x="5129.528" y="1059.019" fill="#70BF58" stroke="#000000" stroke-miterlimit="10" width="435" height="247"/>
<rect id="platformcage1_90_" x="4694.528" y="3529.016" fill="#70BF58" stroke="#000000" stroke-miterlimit="10" width="435" height="246.999"/>
<rect id="platformcage1_89_" x="4694.528" y="3282.016" fill="#70BF58" stroke="#000000" stroke-miterlimit="10" width="435" height="247"/>
<rect id="platformcage1_28_" x="4694.528" y="3035.016" fill="#70BF58" stroke="#000000" stroke-miterlimit="10" width="435" height="247"/>
<rect id="platformcage1_27_" x="4694.527" y="2788.017" fill="#70BF58" stroke="#000000" stroke-miterlimit="10" width="435" height="246.999"/>
<rect id="platformcage1_25_" x="4694.527" y="2541.016" fill="#70BF58" stroke="#000000" stroke-miterlimit="10" width="435" height="247"/>
<rect id="platformcage2_38_" x="4694.527" y="2294.016" fill="#9BCB56" stroke="#000000" stroke-miterlimit="10" width="435" height="247"/>
<rect id="platformcage1_91_" x="4694.528" y="2047.018" fill="#70BF58" stroke="#000000" stroke-miterlimit="10" width="435" height="247"/>
<rect id="platformcage1_29_" x="4694.527" y="1800.018" fill="#70BF58" stroke="#000000" stroke-miterlimit="10" width="435" height="247"/>
<rect id="platformcage1_23_" x="4694.527" y="1553.018" fill="#70BF58" stroke="#000000" stroke-miterlimit="10" width="435" height="247"/>
<rect id="platformcage2_77_" x="4694.526" y="1306.018" fill="#9BCB56" stroke="#000000" stroke-miterlimit="10" width="435" height="247"/>
<rect id="platformcage2_34_" x="4694.528" y="1059.019" fill="#9BCB56" stroke="#000000" stroke-miterlimit="10" width="434.999" height="247"/>
<rect id="spades_7_" x="4259.528" y="3980.188" fill="#C94A96" stroke="#000000" stroke-miterlimit="10" width="435" height="42.842"/>
<rect id="spades_9_" x="3389.527" y="3980.188" fill="#C94A96" stroke="#000000" stroke-miterlimit="10" width="435" height="42.842"/>
<rect id="spades_10_" x="2519.527" y="3980.183" fill="#C94A96" stroke="#000000" stroke-miterlimit="10" width="435" height="42.842"/>
<rect id="spades_11_" x="1649.527" y="3980.183" fill="#C94A96" stroke="#000000" stroke-miterlimit="10" width="435" height="42.842"/>
<rect id="spades_4_" x="5564.529" y="3980.183" fill="#C94A96" stroke="#000000" stroke-miterlimit="10" width="435" height="42.842"/>
</svg>
