<?xml version="1.0" encoding="utf-8"?>
<!-- Generator: Adobe Illustrator 15.1.0, SVG Export Plug-In . SVG Version: 6.00 Build 0)  -->
<!DOCTYPE svg PUBLIC "-//W3C//DTD SVG 1.1//EN" "http://www.w3.org/Graphics/SVG/1.1/DTD/svg11.dtd">
<svg version="1.1" id="Calque_1" xmlns="http://www.w3.org/2000/svg" xmlns:xlink="http://www.w3.org/1999/xlink" x="0px" y="0px"
	 width="6056.141px" height="3292.97px" viewBox="0 0 6056.141 3292.97" enable-background="new 0 0 6056.141 3292.97"
	 xml:space="preserve">
<rect id="end_2_" x="3739.669" y="2840.606" fill="#FBD849" stroke="#000000" stroke-miterlimit="10" width="75.191" height="86.781"/>
<rect id="pillevolutiona" x="5155.806" y="780.589" fill="#4877B5" stroke="#000000" stroke-miterlimit="10" width="60.672" height="74.041"/>
<rect id="characterstart_2_" x="262.772" y="1239.79" fill="#7CD2E2" stroke="#000000" stroke-miterlimit="10" width="101.976" height="482.822"/>
<rect id="groundcage1_8_" x="-0.001" y="1722.316" stroke="#000000" stroke-miterlimit="10" width="999.922" height="365.581"/>
<rect id="groundcage1_32_" x="999.921" y="1722.316" stroke="#000000" stroke-miterlimit="10" width="999.922" height="365.581"/>
<rect id="groundcage1_34_" x="-0.001" y="2087.897" stroke="#000000" stroke-miterlimit="10" width="999.922" height="365.58"/>
<rect id="groundcage1_33_" x="999.921" y="2087.897" stroke="#000000" stroke-miterlimit="10" width="999.922" height="365.58"/>
<rect id="groundcage1_38_" x="-0.001" y="2453.479" stroke="#000000" stroke-miterlimit="10" width="999.922" height="365.581"/>
<rect id="groundcage1_37_" x="999.921" y="2453.479" stroke="#000000" stroke-miterlimit="10" width="999.922" height="365.58"/>
<rect id="groundcage1_36_" x="-0.001" y="2819.06" stroke="#000000" stroke-miterlimit="10" width="999.922" height="365.58"/>
<rect id="groundcage1_35_" x="999.921" y="2819.06" stroke="#000000" stroke-miterlimit="10" width="999.922" height="365.58"/>
<rect id="groundcage1_40_" x="1999.843" y="2927.388" stroke="#000000" stroke-miterlimit="10" width="999.922" height="365.581"/>
<rect id="groundcage1_39_" x="2999.765" y="2927.389" stroke="#000000" stroke-miterlimit="10" width="999.922" height="365.581"/>
<rect id="groundcage1_10_" x="3999.687" y="2819.06" stroke="#000000" stroke-miterlimit="10" width="999.922" height="365.58"/>
<rect id="groundcage1_41_" x="2056.455" y="1722.316" stroke="#000000" stroke-miterlimit="10" width="999.922" height="365.581"/>
<rect id="groundcage1_7_" x="3056.377" y="1722.317" stroke="#000000" stroke-miterlimit="10" width="999.922" height="365.58"/>
<rect id="groundcage1_45_" x="4056.299" y="1722.316" stroke="#000000" stroke-miterlimit="10" width="999.922" height="365.581"/>
<rect id="groundcage1_44_" x="5056.221" y="1722.317" stroke="#000000" stroke-miterlimit="10" width="999.922" height="365.58"/>
<rect id="groundcage1_42_" x="2056.455" y="2087.897" stroke="#000000" stroke-miterlimit="10" width="999.922" height="365.58"/>
<rect id="groundcage1_4_" x="3056.377" y="2087.897" stroke="#000000" stroke-miterlimit="10" width="999.922" height="365.58"/>
<rect id="groundcage1_46_" x="2056.455" y="2453.479" stroke="#000000" stroke-miterlimit="10" width="999.922" height="365.58"/>
<rect id="groundcage1_43_" x="3056.377" y="2453.479" stroke="#000000" stroke-miterlimit="10" width="999.922" height="365.58"/>
<rect id="groundcage1_48_" x="4056.299" y="2087.897" stroke="#000000" stroke-miterlimit="10" width="999.922" height="365.58"/>
<rect id="groundcage1_47_" x="5056.221" y="2087.897" stroke="#000000" stroke-miterlimit="10" width="999.922" height="365.58"/>
<rect id="platformcage2_12_" x="5186.143" y="1228.017" fill="#9BCB56" stroke="#000000" stroke-miterlimit="10" width="435" height="247"/>
<rect id="platformcage2_14_" x="4751.143" y="1228.018" fill="#9BCB56" stroke="#000000" stroke-miterlimit="10" width="435" height="247"/>
<rect id="platformcage1_95_" x="5186.142" y="981.017" fill="#70BF58" stroke="#000000" stroke-miterlimit="10" width="435.001" height="247"/>
<rect id="platformcage2_19_" x="5186.143" y="1475.018" fill="#9BCB56" stroke="#000000" stroke-miterlimit="10" width="435" height="247"/>
<rect id="platformcage1_94_" x="4751.142" y="981.017" fill="#70BF58" stroke="#000000" stroke-miterlimit="10" width="435.001" height="247"/>
<rect id="platformcage2_18_" x="3881.143" y="1475.018" fill="#9BCB56" stroke="#000000" stroke-miterlimit="10" width="435" height="247"/>
<rect id="platformcage1_93_" x="4751.142" y="1475.019" fill="#70BF58" stroke="#000000" stroke-miterlimit="10" width="435.001" height="247"/>
<rect id="platformcage1_19_" x="3881.142" y="1228.017" fill="#70BF58" stroke="#000000" stroke-miterlimit="10" width="435.001" height="247"/>
<rect id="platformcage1_22_" x="3011.142" y="1475.019" fill="#70BF58" stroke="#000000" stroke-miterlimit="10" width="435.001" height="247"/>
<rect id="groundcage1_65_" x="4056.299" y="2453.478" stroke="#000000" stroke-miterlimit="10" width="999.922" height="365.581"/>
<rect id="groundcage1_15_" x="5056.221" y="2453.479" stroke="#000000" stroke-miterlimit="10" width="999.922" height="365.581"/>
<rect id="spades_1_" x="4316.143" y="1679.326" fill="#C94A96" stroke="#000000" stroke-miterlimit="10" width="435" height="42.842"/>
<rect id="spades_3_" x="3446.143" y="1679.326" fill="#C94A96" stroke="#000000" stroke-miterlimit="10" width="435" height="42.842"/>
<rect id="spades_6_" x="5621.143" y="1679.326" fill="#C94A96" stroke="#000000" stroke-miterlimit="10" width="435" height="42.842"/>
</svg>
