<?xml version="1.0" encoding="utf-8"?>
<!-- Generator: Adobe Illustrator 15.1.0, SVG Export Plug-In . SVG Version: 6.00 Build 0)  -->
<!DOCTYPE svg PUBLIC "-//W3C//DTD SVG 1.1//EN" "http://www.w3.org/Graphics/SVG/1.1/DTD/svg11.dtd">
<svg version="1.1" id="Calque_1" xmlns="http://www.w3.org/2000/svg" xmlns:xlink="http://www.w3.org/1999/xlink" x="0px" y="0px"
	 width="16383px" height="5435.21px" viewBox="0 0 16383 5435.21" enable-background="new 0 0 16383 5435.21" xml:space="preserve">
<rect id="pillevolutionb_1_" x="2080.097" y="3205.373" fill="#FB913B" width="50.685" height="61.859"/>
<rect id="characterstart_4_" x="445.481" y="3333.532" fill="#7CD2E2" width="85.193" height="403.363"/>
<rect id="groundcage1_27_" x="182.25" y="3741.571" width="835.366" height="305.416"/>
<rect id="groundcage1_11_" x="1017.618" y="3741.571" width="835.366" height="305.416"/>
<rect id="groundcage4_1_" x="1852.984" y="3741.571" width="835.367" height="305.416"/>
<rect id="groundcage1_28_" x="2688.351" y="3741.571" width="835.366" height="305.416"/>
<rect id="groundcage1_31_" x="3523.717" y="3741.571" width="835.366" height="305.416"/>
<rect id="groundcage1_30_" x="4359.083" y="3741.571" width="835.367" height="305.416"/>
<rect id="platformcage1_12_" x="2650.558" y="3328.852" fill="#70BF58" width="363.414" height="206.352"/>
<rect id="platformcage2_26_" x="3377.384" y="3328.854" fill="#9BCB56" width="363.414" height="206.349"/>
<rect id="platformcage2_76_" x="3377.386" y="3122.502" fill="#9BCB56" width="363.413" height="206.352"/>
<rect id="platformcage2_10_" x="3377.384" y="1678.04" fill="#9BCB56" width="363.411" height="206.353"/>
<rect id="platformcage2_33_" x="4467.624" y="2503.445" fill="#9BCB56" width="363.411" height="206.355"/>
<rect id="platformcage2_32_" x="4467.623" y="2297.094" fill="#9BCB56" width="363.412" height="206.351"/>
<rect id="platformcage2_31_" x="4467.624" y="2090.744" fill="#9BCB56" width="363.414" height="206.351"/>
<rect id="platformcage2_6_" x="4467.624" y="1265.337" fill="#9BCB56" width="363.414" height="206.351"/>
<rect id="platformcage1_90_" x="4104.212" y="3328.854" fill="#70BF58" width="363.413" height="206.353"/>
<rect id="platformcage1_4_" x="4104.211" y="3535.214" fill="#70BF58" width="363.413" height="206.354"/>
<rect id="platformcage1_89_" x="4104.212" y="3122.502" fill="#70BF58" width="363.413" height="206.352"/>
<rect id="platformcage1_28_" x="4104.212" y="2916.151" fill="#70BF58" width="363.413" height="206.351"/>
<rect id="platformcage2_38_" x="4104.211" y="2297.094" fill="#9BCB56" width="363.412" height="206.351"/>
<rect id="groundcage3_11_" x="5194.449" y="3664.376" width="835.367" height="305.418"/>
<rect id="groundcage3_16_" x="6077.113" y="3741.57" width="835.367" height="305.418"/>
<rect id="groundcage3_17_" x="6077.113" y="4046.988" width="835.367" height="305.418"/>
<rect id="groundcage2_2_" x="6077.113" y="4352.408" width="835.367" height="305.418"/>
<rect id="groundcage3_12_" x="5194.449" y="3969.794" width="835.367" height="305.418"/>
<rect id="groundcage3_13_" x="5194.449" y="4275.212" width="835.367" height="305.418"/>
<rect id="groundcage3_14_" x="5194.449" y="4580.63" width="835.367" height="305.418"/>
<rect id="groundcage3_15_" x="5194.449" y="4886.048" width="835.367" height="305.418"/>
<rect id="groundcage1_40_" x="6029.816" y="4810.536" width="835.367" height="305.416"/>
<rect id="groundcage1_39_" x="6865.184" y="4810.536" width="835.367" height="305.416"/>
<rect id="groundcage4_2_" x="6912.48" y="3741.571" width="835.366" height="305.416"/>
<rect id="groundcage1_45_" x="7747.847" y="3741.571" width="835.366" height="305.416"/>
<rect id="groundcage1_44_" x="8583.213" y="3741.571" width="835.369" height="305.416"/>
<rect id="groundcage3_19_" x="6912.48" y="4046.987" width="835.366" height="305.42"/>
<rect id="groundcage2_3_" x="6912.48" y="4352.407" width="835.366" height="305.42"/>
<rect id="groundcage2_5_" x="7747.846" y="4046.988" width="835.367" height="305.418"/>
<rect id="groundcage2_4_" x="8583.213" y="4046.987" width="835.365" height="305.42"/>
<rect id="groundcage2_7_" x="12760.047" y="4342.876" width="835.366" height="305.42"/>
<rect id="groundcage2_8_" x="11924.678" y="4342.876" width="835.366" height="305.42"/>
<rect id="groundcage2_10_" x="11089.312" y="4342.876" width="835.366" height="305.42"/>
<rect id="groundcage2_9_" x="10253.945" y="4342.876" width="835.366" height="305.42"/>
<rect id="groundcage2_6_" x="9418.582" y="4046.987" width="835.366" height="305.42"/>
<rect id="shadows_3_" x="9866.139" y="2060.457" fill="#686868" width="5499.246" height="2137.929"/>
<rect id="shadows_2_" x="7762.309" y="227.954" fill="#686868" width="7603.074" height="2079.132"/>
<rect id="end_4_" x="8832.82" y="2011.481" fill="#FBD849" width="125.633" height="201.682"/>
<rect id="pillevolutiond_4_" x="13172.736" y="3862.036" fill="#9A549C" width="50.684" height="61.855"/>
<rect id="pillevolutiond_3_" x="11500.555" y="3408.366" fill="#9A549C" width="50.684" height="61.855"/>
<rect id="pillevolutionb_3_" x="14756.945" y="4617.368" fill="#BD5D32" width="50.688" height="61.856"/>
<rect id="platformcage2_9_" x="6284.684" y="3250.84" fill="#9BCB56" width="363.413" height="206.351"/>
<rect id="platformcage2_21_" x="5557.858" y="2631.781" fill="#9BCB56" width="363.412" height="206.354"/>
<rect id="platformcage1_59_" x="5557.859" y="1806.374" fill="#70BF58" width="363.413" height="206.351"/>
<rect id="platformcage2_16_" x="7374.925" y="3250.837" fill="#9BCB56" width="363.415" height="206.355"/>
<rect id="pillevolutiona_4_" x="8895.635" y="3653.015" fill="#4877B5" width="50.686" height="61.854"/>
<rect id="platformcage2_11_" x="11344.191" y="3580.767" fill="#9BCB56" width="363.412" height="206.352"/>
<rect id="platformcage2_49_" x="10253.949" y="2755.355" fill="#9BCB56" width="363.416" height="206.354"/>
<rect id="groundcage4_3_" x="8535.918" y="5016.429" width="835.368" height="305.414"/>
<rect id="groundcage1_1_" x="7700.551" y="5016.429" width="835.367" height="305.414"/>
<rect id="groundcage1_8_" x="9371.287" y="5016.429" width="835.368" height="305.414"/>
<rect id="pillevolutiond_1_" x="9950.225" y="2029.53" fill="#9A549C" width="50.688" height="61.854"/>
<rect id="pillevolutionb_2_" x="11188.551" y="3430.581" fill="#BD5D32" width="50.686" height="61.857"/>
<rect id="platformcage4_7_" x="1923.733" y="3535.214" fill="#535BA2" width="363.413" height="206.354"/>
<rect id="platformcage4_13_" x="1923.733" y="3328.861" fill="#535BA2" width="363.413" height="206.353"/>
<rect id="pillevolutionb_4_" x="8583.746" y="4626.897" fill="#FB913B" width="50.682" height="61.859"/>
<rect id="platformcage4_14_" x="7700.551" y="4810.536" fill="#535BA2" width="363.413" height="206.352"/>
<rect id="platformcage4_15_" x="8427.381" y="4810.536" fill="#535BA2" width="363.412" height="206.352"/>
<rect id="platformcage4_16_" x="9154.205" y="4809.22" fill="#535BA2" width="363.413" height="206.352"/>
<rect id="platformcage4_17_" x="13595.414" y="4450.163" fill="#535BA2" width="363.414" height="206.352"/>
<rect id="platformcage4_18_" x="13958.828" y="4450.163" fill="#535BA2" width="363.414" height="206.352"/>
<rect id="platformcage3_8_" x="13595.418" y="4037.458" fill="#DD192C" width="363.409" height="206.354"/>
<rect id="platformcage4_19_" x="13595.414" y="4243.81" fill="#535BA2" width="363.414" height="206.352"/>
<rect id="platformcage4_50_" x="10980.775" y="3580.763" fill="#535BA2" width="363.414" height="206.354"/>
<rect id="platformcage4_27_" x="10617.361" y="3374.411" fill="#535BA2" width="363.414" height="206.352"/>
<rect id="platformcage4_53_" x="10253.947" y="3374.411" fill="#535BA2" width="363.414" height="206.352"/>
<rect id="platformcage1_1_" x="13958.826" y="4243.808" fill="#70BF58" width="363.418" height="206.355"/>
<rect id="platformcage3_31_" x="10253.951" y="2961.71" fill="#DD192C" width="363.412" height="206.353"/>
<rect id="platformcage3_32_" x="10253.951" y="3580.767" fill="#DD192C" width="363.412" height="206.354"/>
<rect id="platformcage3_33_" x="10617.359" y="3580.767" fill="#DD192C" width="363.412" height="206.354"/>
<rect id="platformcage4_51_" x="10253.949" y="3168.061" fill="#535BA2" width="363.414" height="206.351"/>
<rect id="platformcage1_5_" x="10617.361" y="3168.059" fill="#70BF58" width="363.418" height="206.354"/>
<rect id="platformcage3_9_" x="2650.558" y="2709.799" fill="#DD192C" width="363.413" height="206.353"/>
<rect id="platformcage3_12_" x="2650.558" y="2917.652" fill="#DD192C" width="363.413" height="206.353"/>
<rect id="platformcage2_5_" x="2650.558" y="2503.446" fill="#9BCB56" width="363.413" height="206.355"/>
<rect id="platformcage4_20_" x="2650.558" y="3122.502" fill="#535BA2" width="363.413" height="206.352"/>
<rect id="platformcage4_21_" x="2650.558" y="3535.214" fill="#535BA2" width="363.414" height="206.354"/>
<rect id="platformcage4_22_" x="3377.383" y="2917.652" fill="#535BA2" width="363.413" height="206.353"/>
<rect id="platformcage4_23_" x="3377.385" y="3535.214" fill="#535BA2" width="363.414" height="206.354"/>
<rect id="platformcage4_24_" x="3377.386" y="2503.447" fill="#535BA2" width="363.413" height="206.352"/>
<rect id="platformcage1_3_" x="3377.385" y="2709.8" fill="#70BF58" width="363.414" height="206.351"/>
<rect id="platformcage3_14_" x="3377.386" y="2089.991" fill="#DD192C" width="363.413" height="206.353"/>
<rect id="platformcage3_13_" x="3377.386" y="2297.844" fill="#DD192C" width="363.413" height="206.353"/>
<rect id="platformcage3_15_" x="3377.386" y="1884.393" fill="#DD192C" width="363.413" height="206.353"/>
<rect id="platformcage3_16_" x="4104.21" y="1265.336" fill="#DD192C" width="363.413" height="206.353"/>
<rect id="platformcage3_17_" x="4104.21" y="1471.688" fill="#DD192C" width="363.413" height="206.353"/>
<rect id="platformcage3_18_" x="4467.625" y="1471.688" fill="#DD192C" width="363.413" height="206.353"/>
<rect id="platformcage3_20_" x="4467.625" y="1678.04" fill="#DD192C" width="363.413" height="206.353"/>
<rect id="platformcage3_26_" x="6284.684" y="2219.077" fill="#DD192C" width="363.414" height="206.353"/>
<rect id="platformcage3_25_" x="6284.684" y="2425.429" fill="#DD192C" width="363.414" height="206.353"/>
<rect id="platformcage3_28_" x="5557.859" y="2838.136" fill="#DD192C" width="363.413" height="206.353"/>
<rect id="platformcage3_29_" x="6284.684" y="2838.136" fill="#DD192C" width="363.414" height="206.353"/>
<rect id="platformcage3_30_" x="6284.684" y="2631.782" fill="#DD192C" width="363.413" height="206.353"/>
<rect id="platformcage3_27_" x="5557.859" y="3044.487" fill="#DD192C" width="363.413" height="206.353"/>
<rect id="platformcage3_22_" x="4467.624" y="3122.502" fill="#DD192C" width="363.413" height="206.352"/>
<rect id="platformcage3_23_" x="4467.621" y="3328.852" fill="#DD192C" width="363.414" height="206.353"/>
<rect id="platformcage3_24_" x="4467.624" y="3535.214" fill="#DD192C" width="363.413" height="206.354"/>
<rect id="platformcage4_25_" x="3377.383" y="1471.688" fill="#535BA2" width="363.413" height="206.352"/>
<rect id="platformcage4_28_" x="4104.211" y="1678.041" fill="#535BA2" width="363.414" height="206.352"/>
<rect id="platformcage4_29_" x="4104.209" y="1884.393" fill="#535BA2" width="363.413" height="206.352"/>
<rect id="platformcage4_46_" x="5557.859" y="2012.725" fill="#535BA2" width="363.413" height="206.352"/>
<rect id="platformcage4_45_" x="5557.856" y="2219.078" fill="#535BA2" width="363.415" height="206.352"/>
<rect id="platformcage4_47_" x="5557.859" y="2425.429" fill="#535BA2" width="363.413" height="206.352"/>
<rect id="platformcage4_32_" x="4104.208" y="2503.447" fill="#535BA2" width="363.414" height="206.352"/>
<rect id="platformcage4_31_" x="4104.211" y="2090.743" fill="#535BA2" width="363.414" height="206.352"/>
<rect id="platformcage4_33_" x="4104.211" y="2709.8" fill="#535BA2" width="363.414" height="206.353"/>
<rect id="platformcage4_34_" x="4467.624" y="2709.8" fill="#535BA2" width="363.413" height="206.353"/>
<rect id="platformcage4_35_" x="4467.621" y="2917.653" fill="#535BA2" width="363.414" height="206.353"/>
<rect id="platformcage4_30_" x="4467.622" y="1884.393" fill="#535BA2" width="363.414" height="206.352"/>
<rect id="platformcage4_37_" x="4831.036" y="3457.192" fill="#535BA2" width="363.414" height="206.354"/>
<rect id="platformcage4_36_" x="5194.449" y="3457.192" fill="#535BA2" width="363.414" height="206.354"/>
<rect id="platformcage4_39_" x="5557.856" y="3457.192" fill="#535BA2" width="363.415" height="206.354"/>
<rect id="platformcage4_48_" x="5557.856" y="3250.839" fill="#535BA2" width="363.415" height="206.352"/>
<rect id="platformcage4_49_" x="6284.684" y="3044.488" fill="#535BA2" width="363.414" height="206.352"/>
<rect id="platformcage4_38_" x="5921.27" y="3457.192" fill="#535BA2" width="363.414" height="206.354"/>
<rect id="platformcage4_41_" x="6284.684" y="3457.192" fill="#535BA2" width="363.414" height="206.354"/>
<rect id="platformcage4_40_" x="6648.098" y="3457.192" fill="#535BA2" width="363.413" height="206.354"/>
<rect id="platformcage4_43_" x="7011.511" y="3457.192" fill="#535BA2" width="363.414" height="206.354"/>
<rect id="platformcage4_42_" x="7374.924" y="3457.192" fill="#535BA2" width="363.414" height="206.354"/>
<rect id="platformcage4_44_" x="7738.339" y="3457.192" fill="#535BA2" width="363.414" height="206.352"/>
<rect id="platformcage4_26_" x="3377.383" y="1265.337" fill="#535BA2" width="363.413" height="206.352"/>
<rect id="spadesdown" x="1560.322" y="3705.584" fill="#C94A96" width="363.411" height="35.983"/>
<rect id="spadesdown_1_" x="2287.146" y="3705.588" fill="#C94A96" width="363.411" height="35.983"/>
<rect id="spadesdown_2_" x="3013.971" y="3705.584" fill="#C94A96" width="363.411" height="35.983"/>
<rect id="spadesdown_3_" x="3740.799" y="3705.584" fill="#C94A96" width="363.411" height="35.983"/>
<rect id="spadesdown_4_" x="4831.038" y="3421.208" fill="#C94A96" width="363.411" height="35.982"/>
<rect id="spadesdown_5_" x="5194.451" y="3421.208" fill="#C94A96" width="363.411" height="35.982"/>
<rect id="spadesdown_6_" x="5921.271" y="3421.208" fill="#C94A96" width="363.411" height="35.982"/>
<rect id="spadesdown_7_" x="6648.099" y="3421.208" fill="#C94A96" width="363.411" height="35.982"/>
<rect id="spadesdown_8_" x="7011.512" y="3421.208" fill="#C94A96" width="363.411" height="35.982"/>
<rect id="spadesdown_12_" x="8063.963" y="4981.236" fill="#C94A96" width="363.412" height="35.983"/>
<rect id="spadesdown_13_" x="8790.793" y="4979.588" fill="#C94A96" width="363.412" height="35.983"/>
<rect id="spadesdown_24_" x="10980.773" y="4001.475" fill="#C94A96" width="363.412" height="35.983"/>
<rect id="spadesdown_23_" x="11344.188" y="4001.474" fill="#C94A96" width="363.412" height="35.983"/>
<rect id="spadesdown_28_" x="10253.949" y="4001.475" fill="#C94A96" width="363.41" height="35.983"/>
<rect id="spadesdown_27_" x="10617.363" y="4001.474" fill="#C94A96" width="363.41" height="35.983"/>
<g id="Calque_2">
	<rect id="groundcage1_67_" x="9517.816" y="4809.22" width="835.367" height="305.418"/>
	<rect id="groundcage1_66_" x="10353.182" y="4809.22" width="835.369" height="305.418"/>
	<rect id="groundcage1_65_" x="11188.551" y="4809.22" width="835.369" height="305.418"/>
	<rect id="groundcage4_6_" x="12023.92" y="4809.22" width="835.363" height="305.418"/>
	<rect id="groundcage1_63_" x="12859.283" y="4809.22" width="835.367" height="305.418"/>
	<rect id="groundcage1_62_" x="13694.65" y="4809.22" width="835.365" height="305.418"/>
	<rect id="groundcage4_7_" x="14530.016" y="4809.22" width="835.367" height="305.418"/>
	<rect id="groundcage1_60_" x="15365.383" y="4809.22" width="835.367" height="305.418"/>
	<rect id="groundcage3_18_" x="15365.383" y="4501.88" width="835.367" height="305.418"/>
	<rect id="groundcage3_20_" x="15365.383" y="4196.462" width="835.367" height="305.418"/>
	<rect id="groundcage3_21_" x="15365.383" y="3891.044" width="835.367" height="305.418"/>
	<rect id="groundcage3_24_" x="15365.383" y="3585.626" width="835.367" height="305.418"/>
	<rect id="groundcage3_23_" x="15365.383" y="3280.208" width="835.367" height="305.418"/>
	<rect id="groundcage3_22_" x="15365.383" y="2974.79" width="835.367" height="305.418"/>
	<rect id="groundcage3_27_" x="15365.383" y="2669.372" width="835.367" height="305.418"/>
	<rect id="groundcage4_5_" x="10253.947" y="4037.458" width="835.365" height="305.418"/>
	<rect id="groundcage1_52_" x="11089.312" y="4037.458" width="835.367" height="305.418"/>
	<rect id="groundcage1_51_" x="11924.68" y="4037.458" width="835.365" height="305.418"/>
	<rect id="groundcage4_4_" x="12760.045" y="4037.458" width="835.369" height="305.418"/>
	<rect id="groundcage4" x="9418.582" y="2213.163" width="835.367" height="305.419"/>
	<rect id="groundcage1_24_" x="8583.213" y="2213.163" width="835.369" height="305.419"/>
	<rect id="groundcage2_1_" x="8583.213" y="2518.581" width="835.369" height="305.419"/>
	<rect id="groundcage2" x="7752.377" y="2213.163" width="835.367" height="305.419"/>
	<rect id="groundcage1_20_" x="9418.582" y="3741.571" width="835.363" height="305.416"/>
	<rect id="groundcage3" x="7752.377" y="75.246" width="835.367" height="305.416"/>
	<rect id="groundcage3_1_" x="7752.377" y="380.662" width="835.367" height="305.416"/>
	<rect id="groundcage3_2_" x="7752.377" y="686.077" width="835.367" height="305.416"/>
	<rect id="groundcage3_5_" x="7752.377" y="991.493" width="835.367" height="305.416"/>
	<rect id="groundcage3_4_" x="7752.377" y="1296.908" width="835.367" height="305.416"/>
	<rect id="groundcage3_7_" x="9418.58" y="2518.582" width="835.367" height="305.415"/>
	<rect id="groundcage3_8_" x="9418.58" y="2823.998" width="835.367" height="305.415"/>
	<rect id="groundcage3_9_" x="9418.58" y="3129.422" width="835.367" height="305.415"/>
	<rect id="groundcage3_10_" x="9418.58" y="3434.837" width="835.367" height="305.415"/>
	<rect id="groundcage3_3_" x="7752.377" y="1602.324" width="835.367" height="305.416"/>
	<rect id="groundcage3_6_" x="7752.377" y="1907.75" width="835.367" height="305.416"/>
	<rect id="blank_2_" x="15365.383" y="665.004" fill="#BD6334" width="835.367" height="2004.368"/>
</g>
<rect id="blank_1_" x="48.25" y="227.954" fill="#BD6334" width="134" height="3819.033"/>
<rect id="backlayer1_323_" x="726.116" y="2769.165" fill="#48C4C4" width="583.003" height="411.25"/>
<rect id="backlayer1_1_" x="8835.574" y="4375.006" fill="#48C4C4" width="583.004" height="411.25"/>
<rect id="backlayer4_2_" x="8835.574" y="3065.61" fill="#FEE85D" width="583.004" height="411.25"/>
<rect id="backlayer4_3_" x="14782.289" y="4038.187" fill="#FEE85D" width="583.005" height="411.25"/>
<rect id="backlayer1_2_" x="9134.057" y="1549.406" fill="#48C4C4" width="583.003" height="411.25"/>
</svg>
