<?xml version="1.0" encoding="utf-8"?>
<!-- Generator: Adobe Illustrator 15.1.0, SVG Export Plug-In . SVG Version: 6.00 Build 0)  -->
<!DOCTYPE svg PUBLIC "-//W3C//DTD SVG 1.1//EN" "http://www.w3.org/Graphics/SVG/1.1/DTD/svg11.dtd">
<svg version="1.1" xmlns="http://www.w3.org/2000/svg" xmlns:xlink="http://www.w3.org/1999/xlink" x="0px" y="0px"
	 width="11169.08px" height="2853.439px" viewBox="0 0 11169.08 2853.439" enable-background="new 0 0 11169.08 2853.439"
	 xml:space="preserve">
<g id="Calque_2">
	<rect id="backlayer1_27_" x="-173.101" y="-120.676" fill="#73C058" width="365.247" height="257.645"/>
	<rect id="backlayer1_26_" x="192.146" y="-120.676" fill="#73C058" width="365.246" height="257.645"/>
	<rect id="backlayer1_25_" x="557.393" y="-120.676" fill="#73C058" width="365.246" height="257.645"/>
	<rect id="backlayer1_24_" x="922.639" y="-120.676" fill="#73C058" width="365.246" height="257.645"/>
	<rect id="backlayer1_23_" x="1287.885" y="-120.676" fill="#73C058" width="365.246" height="257.645"/>
	<rect id="backlayer1_22_" x="1653.131" y="-120.676" fill="#73C058" width="365.247" height="257.645"/>
	<rect id="backlayer1_21_" x="2018.378" y="-120.676" fill="#73C058" width="365.246" height="257.645"/>
	<rect id="backlayer1_34_" x="2383.624" y="-120.676" fill="#73C058" width="365.246" height="257.645"/>
	<rect id="backlayer1_33_" x="2748.87" y="-120.676" fill="#73C058" width="365.246" height="257.645"/>
	<rect id="backlayer1_32_" x="3114.116" y="-120.676" fill="#73C058" width="365.246" height="257.645"/>
	<rect id="backlayer1_31_" x="3479.362" y="-120.676" fill="#73C058" width="365.247" height="257.645"/>
	<rect id="backlayer1_30_" x="3844.609" y="-120.676" fill="#73C058" width="365.245" height="257.645"/>
	<rect id="backlayer1_29_" x="4209.854" y="-120.676" fill="#73C058" width="365.247" height="257.645"/>
	<rect id="backlayer1_28_" x="4575.102" y="-120.676" fill="#73C058" width="365.246" height="257.645"/>
	<rect id="backlayer1_111_" x="-173.101" y="136.969" fill="#73C058" width="365.247" height="257.645"/>
	<rect id="backlayer1_110_" x="192.146" y="136.969" fill="#73C058" width="365.246" height="257.645"/>
	<rect id="backlayer1_108_" x="922.639" y="136.969" fill="#73C058" width="365.246" height="257.645"/>
	<rect id="backlayer1_107_" x="1287.885" y="136.969" fill="#73C058" width="365.246" height="257.645"/>
	<rect id="backlayer1_106_" x="1653.131" y="136.969" fill="#73C058" width="365.247" height="257.645"/>
	<rect id="backlayer1_105_" x="2018.378" y="136.969" fill="#73C058" width="365.246" height="257.645"/>
	<rect id="backlayer1_104_" x="-173.101" y="394.613" fill="#73C058" width="365.246" height="257.645"/>
	<rect id="backlayer1_103_" x="192.146" y="394.613" fill="#73C058" width="365.247" height="257.645"/>
	<rect id="backlayer1_102_" x="557.393" y="394.613" fill="#73C058" width="365.246" height="257.645"/>
	<rect id="backlayer1_101_" x="922.639" y="394.613" fill="#73C058" width="365.246" height="257.645"/>
	<rect id="backlayer1_98_" x="2018.377" y="394.613" fill="#73C058" width="365.247" height="257.645"/>
	<rect id="backlayer1_97_" x="-173.101" y="652.258" fill="#73C058" width="365.246" height="257.645"/>
	<rect id="backlayer1_96_" x="192.146" y="652.258" fill="#73C058" width="365.247" height="257.645"/>
	<rect id="backlayer1_93_" x="1287.885" y="652.258" fill="#73C058" width="365.246" height="257.645"/>
	<rect id="backlayer1_90_" x="-173.101" y="909.902" fill="#73C058" width="365.246" height="257.645"/>
	<rect id="backlayer1_89_" x="192.146" y="909.902" fill="#73C058" width="365.247" height="257.645"/>
	<rect id="backlayer1_88_" x="557.393" y="909.902" fill="#73C058" width="365.246" height="257.645"/>
	<rect id="backlayer1_87_" x="922.639" y="909.902" fill="#73C058" width="365.246" height="257.645"/>
	<rect id="backlayer1_83_" x="2383.624" y="136.969" fill="#73C058" width="365.246" height="257.645"/>
	<rect id="backlayer1_81_" x="3114.116" y="136.969" fill="#73C058" width="365.246" height="257.645"/>
	<rect id="backlayer1_80_" x="3479.362" y="136.969" fill="#73C058" width="365.247" height="257.645"/>
	<rect id="backlayer1_79_" x="3844.609" y="136.969" fill="#73C058" width="365.247" height="257.645"/>
	<rect id="backlayer1_78_" x="4209.856" y="136.969" fill="#73C058" width="365.245" height="257.645"/>
	<rect id="backlayer1_75_" x="2748.87" y="394.613" fill="#73C058" width="365.246" height="257.645"/>
	<rect id="backlayer1_74_" x="3114.116" y="394.613" fill="#73C058" width="365.246" height="257.645"/>
	<rect id="backlayer1_71_" x="4209.854" y="394.613" fill="#73C058" width="365.247" height="257.645"/>
	<rect id="backlayer1_70_" x="4575.102" y="394.613" fill="#73C058" width="365.246" height="257.645"/>
	<rect id="backlayer1_68_" x="2748.87" y="652.258" fill="#73C058" width="365.246" height="257.645"/>
	<rect id="backlayer1_66_" x="3479.362" y="652.258" fill="#73C058" width="365.247" height="257.645"/>
	<rect id="backlayer1_65_" x="3844.609" y="652.258" fill="#73C058" width="365.245" height="257.645"/>
	<rect id="backlayer1_63_" x="4575.102" y="652.258" fill="#73C058" width="365.246" height="257.645"/>
	<rect id="backlayer1_62_" x="2383.624" y="909.902" fill="#73C058" width="365.246" height="257.645"/>
	<rect id="backlayer1_61_" x="2748.87" y="909.902" fill="#73C058" width="365.246" height="257.645"/>
	<rect id="backlayer1_59_" x="3479.362" y="909.902" fill="#73C058" width="365.247" height="257.645"/>
	<rect id="backlayer1_58_" x="3844.609" y="909.902" fill="#73C058" width="365.245" height="257.645"/>
	<rect id="backlayer1_57_" x="4209.854" y="909.902" fill="#73C058" width="365.247" height="257.645"/>
	<rect id="backlayer1_56_" x="4575.102" y="909.902" fill="#73C058" width="365.246" height="257.645"/>
	<rect id="backlayer1_167_" x="-173.101" y="1167.547" fill="#73C058" width="365.247" height="257.645"/>
	<rect id="backlayer1_166_" x="192.146" y="1167.547" fill="#73C058" width="365.246" height="257.645"/>
	<rect id="backlayer1_165_" x="557.393" y="1167.547" fill="#73C058" width="365.246" height="257.645"/>
	<rect id="backlayer1_163_" x="1287.885" y="1167.547" fill="#73C058" width="365.246" height="257.645"/>
	<rect id="backlayer1_162_" x="1653.131" y="1167.547" fill="#73C058" width="365.247" height="257.645"/>
	<rect id="backlayer1_161_" x="2018.378" y="1167.547" fill="#73C058" width="365.246" height="257.645"/>
	<rect id="backlayer1_160_" x="-173.101" y="1425.191" fill="#73C058" width="365.246" height="257.645"/>
	<rect id="backlayer1_159_" x="192.146" y="1425.191" fill="#73C058" width="365.247" height="257.645"/>
	<rect id="backlayer1_158_" x="557.393" y="1425.191" fill="#73C058" width="365.246" height="257.645"/>
	<rect id="backlayer1_157_" x="922.639" y="1425.191" fill="#73C058" width="365.246" height="257.645"/>
	<rect id="backlayer1_156_" x="1287.885" y="1425.191" fill="#73C058" width="365.246" height="257.645"/>
	<rect id="backlayer1_155_" x="1653.131" y="1425.191" fill="#73C058" width="365.246" height="257.645"/>
	<rect id="backlayer1_154_" x="2018.377" y="1425.191" fill="#73C058" width="365.247" height="257.645"/>
	<rect id="backlayer1_153_" x="-173.101" y="1682.836" fill="#73C058" width="365.246" height="257.645"/>
	<rect id="backlayer1_152_" x="192.146" y="1682.836" fill="#73C058" width="365.247" height="257.645"/>
	<rect id="backlayer1_151_" x="557.393" y="1682.836" fill="#73C058" width="365.246" height="257.645"/>
	<rect id="backlayer1_150_" x="922.639" y="1682.836" fill="#73C058" width="365.246" height="257.645"/>
	<rect id="backlayer1_149_" x="1287.885" y="1682.836" fill="#73C058" width="365.246" height="257.645"/>
	<rect id="backlayer1_148_" x="1653.131" y="1682.836" fill="#73C058" width="365.246" height="257.645"/>
	<rect id="backlayer1_147_" x="2018.377" y="1682.836" fill="#73C058" width="365.247" height="257.645"/>
	<rect id="backlayer1_139_" x="2383.624" y="1167.547" fill="#73C058" width="365.246" height="257.645"/>
	<rect id="backlayer1_138_" x="2748.87" y="1167.547" fill="#73C058" width="365.246" height="257.645"/>
	<rect id="backlayer1_136_" x="3479.362" y="1167.547" fill="#73C058" width="365.247" height="257.645"/>
	<rect id="backlayer1_135_" x="3844.609" y="1167.547" fill="#73C058" width="365.247" height="257.645"/>
	<rect id="backlayer1_134_" x="4209.856" y="1167.547" fill="#73C058" width="365.245" height="257.645"/>
	<rect id="backlayer1_133_" x="4575.102" y="1167.547" fill="#73C058" width="365.247" height="257.645"/>
	<rect id="backlayer1_132_" x="2383.624" y="1425.191" fill="#73C058" width="365.246" height="257.645"/>
	<rect id="backlayer1_131_" x="2748.87" y="1425.191" fill="#73C058" width="365.246" height="257.645"/>
	<rect id="backlayer1_130_" x="3114.116" y="1425.191" fill="#73C058" width="365.246" height="257.645"/>
	<rect id="backlayer1_129_" x="3479.362" y="1425.191" fill="#73C058" width="365.247" height="257.645"/>
	<rect id="backlayer1_128_" x="3844.609" y="1425.191" fill="#73C058" width="365.245" height="257.645"/>
	<rect id="backlayer1_127_" x="4209.854" y="1425.191" fill="#73C058" width="365.247" height="257.645"/>
	<rect id="backlayer1_126_" x="4575.102" y="1425.191" fill="#73C058" width="365.246" height="257.645"/>
	<rect id="backlayer1_125_" x="2383.624" y="1682.836" fill="#73C058" width="365.246" height="257.645"/>
	<rect id="backlayer1_124_" x="2748.87" y="1682.836" fill="#73C058" width="365.246" height="257.645"/>
	<rect id="backlayer1_123_" x="3114.116" y="1682.836" fill="#73C058" width="365.246" height="257.645"/>
	<rect id="backlayer1_122_" x="3479.362" y="1682.836" fill="#73C058" width="365.247" height="257.645"/>
	<rect id="backlayer1_121_" x="3844.609" y="1682.836" fill="#73C058" width="365.245" height="257.645"/>
	<rect id="backlayer1_120_" x="4209.854" y="1682.836" fill="#73C058" width="365.247" height="257.645"/>
	<rect id="backlayer1_119_" x="4575.102" y="1682.836" fill="#73C058" width="365.246" height="257.645"/>
	<rect id="backlayer1_203_" x="4940.349" y="-120.676" fill="#73C058" width="365.246" height="257.645"/>
	<rect id="backlayer1_202_" x="5305.595" y="-120.676" fill="#73C058" width="365.246" height="257.645"/>
	<rect id="backlayer1_201_" x="5670.841" y="-120.676" fill="#73C058" width="365.247" height="257.645"/>
	<rect id="backlayer1_200_" x="6036.088" y="-120.676" fill="#73C058" width="365.245" height="257.645"/>
	<rect id="backlayer1_199_" x="4940.349" y="136.969" fill="#73C058" width="365.246" height="257.645"/>
	<rect id="backlayer1_197_" x="5670.842" y="136.969" fill="#73C058" width="365.246" height="257.645"/>
	<rect id="backlayer1_196_" x="6036.088" y="136.969" fill="#73C058" width="365.247" height="257.645"/>
	<rect id="backlayer1_195_" x="4940.349" y="394.613" fill="#73C058" width="365.246" height="257.645"/>
	<rect id="backlayer1_194_" x="5305.595" y="394.613" fill="#73C058" width="365.246" height="257.645"/>
	<rect id="backlayer1_193_" x="5670.841" y="394.613" fill="#73C058" width="365.247" height="257.645"/>
	<rect id="backlayer1_192_" x="6036.088" y="394.613" fill="#73C058" width="365.245" height="257.645"/>
	<rect id="backlayer1_189_" x="5670.841" y="652.258" fill="#73C058" width="365.247" height="257.645"/>
	<rect id="backlayer1_188_" x="6036.088" y="652.258" fill="#73C058" width="365.245" height="257.645"/>
	<rect id="backlayer1_187_" x="4940.349" y="909.902" fill="#73C058" width="365.246" height="257.645"/>
	<rect id="backlayer1_185_" x="5670.841" y="909.902" fill="#73C058" width="365.247" height="257.645"/>
	<rect id="backlayer1_183_" x="4940.349" y="1167.547" fill="#73C058" width="365.246" height="257.645"/>
	<rect id="backlayer1_182_" x="5305.595" y="1167.547" fill="#73C058" width="365.247" height="257.645"/>
	<rect id="backlayer1_181_" x="5670.842" y="1167.547" fill="#73C058" width="365.246" height="257.645"/>
	<rect id="backlayer1_180_" x="6036.088" y="1167.547" fill="#73C058" width="365.247" height="257.645"/>
	<rect id="backlayer1_179_" x="4940.349" y="1425.191" fill="#73C058" width="365.246" height="257.645"/>
	<rect id="backlayer1_178_" x="5305.595" y="1425.191" fill="#73C058" width="365.246" height="257.645"/>
	<rect id="backlayer1_177_" x="5670.841" y="1425.191" fill="#73C058" width="365.247" height="257.645"/>
	<rect id="backlayer1_175_" x="4940.349" y="1682.836" fill="#73C058" width="365.246" height="257.645"/>
	<rect id="backlayer1_174_" x="5305.595" y="1682.836" fill="#73C058" width="365.246" height="257.645"/>
	<rect id="backlayer1_173_" x="5670.841" y="1682.836" fill="#73C058" width="365.247" height="257.645"/>
	<rect id="backlayer1_172_" x="6036.088" y="1682.836" fill="#73C058" width="365.245" height="257.645"/>
	<rect id="backlayer1_590_" x="6399.051" y="-127.334" fill="#73C058" width="365.247" height="257.645"/>
	<rect id="backlayer1_589_" x="6764.299" y="-127.334" fill="#73C058" width="365.246" height="257.645"/>
	<rect id="backlayer1_588_" x="7129.545" y="-127.334" fill="#73C058" width="365.246" height="257.645"/>
	<rect id="backlayer1_587_" x="7494.791" y="-127.334" fill="#73C058" width="365.246" height="257.645"/>
	<rect id="backlayer1_586_" x="7860.037" y="-127.334" fill="#73C058" width="365.246" height="257.645"/>
	<rect id="backlayer1_585_" x="8225.283" y="-127.334" fill="#73C058" width="365.247" height="257.645"/>
	<rect id="backlayer1_584_" x="8590.53" y="-127.334" fill="#73C058" width="365.246" height="257.645"/>
	<rect id="backlayer1_562_" x="8955.776" y="-127.334" fill="#73C058" width="365.246" height="257.645"/>
	<rect id="backlayer1_561_" x="9321.022" y="-127.334" fill="#73C058" width="365.246" height="257.645"/>
	<rect id="backlayer1_560_" x="9686.269" y="-127.334" fill="#73C058" width="365.246" height="257.645"/>
	<rect id="backlayer1_559_" x="10051.514" y="-127.334" fill="#73C058" width="365.247" height="257.645"/>
	<rect id="backlayer1_558_" x="10416.762" y="-127.334" fill="#73C058" width="365.245" height="257.645"/>
	<rect id="backlayer1_557_" x="10782.006" y="-127.334" fill="#73C058" width="365.247" height="257.645"/>
	<rect id="backlayer1_554_" x="6764.299" y="130.31" fill="#73C058" width="365.246" height="257.645"/>
	<rect id="backlayer1_553_" x="7129.545" y="130.31" fill="#73C058" width="365.246" height="257.645"/>
	<rect id="backlayer1_552_" x="7494.791" y="130.31" fill="#73C058" width="365.246" height="257.645"/>
	<rect id="backlayer1_550_" x="8225.283" y="130.31" fill="#73C058" width="365.247" height="257.645"/>
	<rect id="backlayer1_549_" x="8590.53" y="130.31" fill="#73C058" width="365.246" height="257.645"/>
	<rect id="backlayer1_548_" x="6399.052" y="387.955" fill="#73C058" width="365.246" height="257.645"/>
	<rect id="backlayer1_546_" x="7129.545" y="387.955" fill="#73C058" width="365.246" height="257.645"/>
	<rect id="backlayer1_543_" x="8225.283" y="387.955" fill="#73C058" width="365.246" height="257.645"/>
	<rect id="backlayer1_541_" x="6399.052" y="645.599" fill="#73C058" width="365.246" height="257.645"/>
	<rect id="backlayer1_540_" x="6764.297" y="645.599" fill="#73C058" width="365.247" height="257.645"/>
	<rect id="backlayer1_539_" x="7129.545" y="645.599" fill="#73C058" width="365.246" height="257.645"/>
	<rect id="backlayer1_537_" x="7860.037" y="645.599" fill="#73C058" width="365.246" height="257.645"/>
	<rect id="backlayer1_533_" x="6764.297" y="903.244" fill="#73C058" width="365.247" height="257.645"/>
	<rect id="backlayer1_525_" x="9686.269" y="130.31" fill="#73C058" width="365.246" height="257.645"/>
	<rect id="backlayer1_523_" x="10416.762" y="130.31" fill="#73C058" width="365.247" height="257.645"/>
	<rect id="backlayer1_522_" x="10782.01" y="130.31" fill="#73C058" width="365.245" height="257.645"/>
	<rect id="backlayer1_518_" x="9686.269" y="387.955" fill="#73C058" width="365.246" height="257.645"/>
	<rect id="backlayer1_517_" x="10051.514" y="387.955" fill="#73C058" width="365.247" height="257.645"/>
	<rect id="backlayer1_516_" x="10416.762" y="387.955" fill="#73C058" width="365.245" height="257.645"/>
	<rect id="backlayer1_515_" x="10782.006" y="387.955" fill="#73C058" width="365.247" height="257.645"/>
	<rect id="backlayer1_513_" x="8955.776" y="645.599" fill="#73C058" width="365.246" height="257.645"/>
	<rect id="backlayer1_512_" x="9321.022" y="645.599" fill="#73C058" width="365.246" height="257.645"/>
	<rect id="backlayer1_510_" x="10051.514" y="645.599" fill="#73C058" width="365.247" height="257.645"/>
	<rect id="backlayer1_509_" x="10416.762" y="645.599" fill="#73C058" width="365.245" height="257.645"/>
	<rect id="backlayer1_508_" x="10782.006" y="645.599" fill="#73C058" width="365.247" height="257.645"/>
	<rect id="backlayer1_506_" x="8955.776" y="903.244" fill="#73C058" width="365.246" height="257.645"/>
	<rect id="backlayer1_504_" x="9686.269" y="903.244" fill="#73C058" width="365.246" height="257.645"/>
	<rect id="backlayer1_502_" x="10416.762" y="903.244" fill="#73C058" width="365.245" height="257.645"/>
	<rect id="backlayer1_501_" x="10782.006" y="903.244" fill="#73C058" width="365.247" height="257.645"/>
	<rect id="backlayer1_498_" x="6764.299" y="1160.888" fill="#73C058" width="365.246" height="257.645"/>
	<rect id="backlayer1_495_" x="7860.037" y="1160.888" fill="#73C058" width="365.246" height="257.645"/>
	<rect id="backlayer1_493_" x="8590.53" y="1160.888" fill="#73C058" width="365.246" height="257.645"/>
	<rect id="backlayer1_492_" x="6399.052" y="1418.533" fill="#73C058" width="365.246" height="257.645"/>
	<rect id="backlayer1_491_" x="6764.297" y="1418.533" fill="#73C058" width="365.247" height="257.645"/>
	<rect id="backlayer1_490_" x="7129.545" y="1418.533" fill="#73C058" width="365.246" height="257.645"/>
	<rect id="backlayer1_489_" x="7494.791" y="1418.533" fill="#73C058" width="365.246" height="257.645"/>
	<rect id="backlayer1_488_" x="7860.037" y="1418.533" fill="#73C058" width="365.246" height="257.645"/>
	<rect id="backlayer1_487_" x="8225.283" y="1418.533" fill="#73C058" width="365.246" height="257.645"/>
	<rect id="backlayer1_485_" x="6399.052" y="1676.178" fill="#73C058" width="365.246" height="257.645"/>
	<rect id="backlayer1_484_" x="6764.297" y="1676.178" fill="#73C058" width="365.247" height="257.645"/>
	<rect id="backlayer1_483_" x="7129.545" y="1676.178" fill="#73C058" width="365.246" height="257.645"/>
	<rect id="backlayer1_482_" x="7494.791" y="1676.178" fill="#73C058" width="365.246" height="257.645"/>
	<rect id="backlayer1_481_" x="7860.037" y="1676.178" fill="#73C058" width="365.246" height="257.645"/>
	<rect id="backlayer1_480_" x="8225.283" y="1676.178" fill="#73C058" width="365.246" height="257.645"/>
	<rect id="backlayer1_479_" x="8590.529" y="1676.178" fill="#73C058" width="365.247" height="257.645"/>
	<rect id="backlayer1_470_" x="9321.022" y="1160.888" fill="#73C058" width="365.246" height="257.645"/>
	<rect id="backlayer1_468_" x="10051.514" y="1160.888" fill="#73C058" width="365.247" height="257.645"/>
	<rect id="backlayer1_467_" x="10416.762" y="1160.888" fill="#73C058" width="365.247" height="257.645"/>
	<rect id="backlayer1_466_" x="10782.01" y="1160.888" fill="#73C058" width="365.245" height="257.645"/>
	<rect id="backlayer1_461_" x="10051.514" y="1418.533" fill="#73C058" width="365.247" height="257.645"/>
	<rect id="backlayer1_460_" x="10416.762" y="1418.533" fill="#73C058" width="365.245" height="257.645"/>
	<rect id="backlayer1_459_" x="10782.006" y="1418.533" fill="#73C058" width="365.247" height="257.645"/>
	<rect id="backlayer1_457_" x="8955.776" y="1676.178" fill="#73C058" width="365.246" height="257.645"/>
	<rect id="backlayer1_456_" x="9321.022" y="1676.178" fill="#73C058" width="365.246" height="257.645"/>
	<rect id="backlayer1_455_" x="9686.269" y="1676.178" fill="#73C058" width="365.246" height="257.645"/>
	<rect id="backlayer1_454_" x="10051.514" y="1676.178" fill="#73C058" width="365.247" height="257.645"/>
	<rect id="backlayer1_453_" x="10416.762" y="1676.178" fill="#73C058" width="365.245" height="257.645"/>
	<rect id="backlayer1_452_" x="10782.006" y="1676.178" fill="#73C058" width="365.247" height="257.645"/>
</g>
<g id="Calque_1">
	<rect id="characterstart" x="652.115" y="1296.37" fill="#7CD2E2" width="85.176" height="403.285"/>
	<rect id="groundcage1_16_" x="500" y="1699.011" width="835.199" height="305.357"/>
	<rect id="groundcage1_1_" x="1335.2" y="1699.011" width="835.199" height="305.357"/>
	<rect id="groundcage1_3_" x="2170.398" y="1699.011" width="835.2" height="305.357"/>
	<rect id="groundcage4" x="3005.598" y="1699.011" width="835.199" height="305.357"/>
	<rect id="groundcage1_8_" x="3840.796" y="1699.011" width="835.199" height="305.357"/>
	<rect id="groundcage4_1_" x="4675.996" y="1699.011" width="835.199" height="305.357"/>
	<rect id="groundcage1_6_" x="5511.194" y="1699.011" width="835.201" height="305.357"/>
	<rect id="groundcage1_14_" x="6709.735" y="2004.689" width="835.199" height="305.357"/>
	<rect id="groundcage1_13_" x="7544.934" y="2004.689" width="835.2" height="305.357"/>
	<rect id="groundcage4_2_" x="5874.534" y="2004.689" width="835.201" height="305.357"/>
	<rect id="groundcage1_4_" x="6709.735" y="1699.011" width="835.199" height="305.357"/>
	<rect id="groundcage4_3_" x="9215.335" y="1905.506" width="835.199" height="305.357"/>
	<rect id="groundcage1_12_" x="9833.88" y="1799.021" width="835.199" height="305.357"/>
	<rect id="groundcage1_2_" x="9833.88" y="2104.379" width="835.199" height="305.357"/>
	<rect id="groundcage1_11_" x="8380.135" y="1905.506" width="835.199" height="305.357"/>
	<rect id="groundcage1_10_" x="9833.88" y="1493.664" width="835.199" height="305.357"/>
	<rect id="groundcage1_5_" x="7544.936" y="1698.113" width="835.199" height="305.357"/>
	<rect id="platformcage2_3_" x="2387.436" y="1080.073" fill="#9BCB56" width="363.341" height="206.31"/>
	<rect id="platformcage3" x="1297.416" y="1492.692" fill="#DD192C" width="363.339" height="206.311"/>
	<rect id="platformcage1_9_" x="2750.777" y="1286.382" fill="#70BF58" width="363.341" height="206.31"/>
	<rect id="platformcage1_86_" x="3477.457" y="1492.696" fill="#70BF58" width="363.34" height="206.311"/>
	<rect id="platformcage2_7_" x="3477.457" y="873.758" fill="#9BCB56" width="363.34" height="206.31"/>
	<rect id="platformcage2_8_" x="3840.797" y="873.758" fill="#9BCB56" width="363.341" height="206.31"/>
	<rect id="platformcage2_1_" x="5294.158" y="1491.804" fill="#9BCB56" width="363.342" height="206.31"/>
	<rect id="platformcage3_1_" x="1660.755" y="1491.808" fill="#DD192C" width="363.34" height="206.312"/>
	<rect id="platformcage3_3_" x="2024.096" y="1492.25" fill="#DD192C" width="363.34" height="206.312"/>
	<rect id="platformcage3_2_" x="2387.436" y="1491.365" fill="#DD192C" width="363.34" height="206.312"/>
	<rect id="platformcage3_4_" x="2024.096" y="1286.382" fill="#DD192C" width="363.34" height="206.311"/>
	<rect id="platformcage1_6_" x="1660.755" y="1286.382" fill="#70BF58" width="363.34" height="206.311"/>
	<rect id="platformcage2_2_" x="2387.436" y="1286.382" fill="#9BCB56" width="363.341" height="206.311"/>
	<rect id="platformcage3_5_" x="2750.777" y="1079.186" fill="#DD192C" width="363.34" height="206.312"/>
	<rect id="platformcage3_6_" x="2750.777" y="1492.696" fill="#DD192C" width="363.34" height="206.312"/>
	<rect id="platformcage3_10_" x="3477.459" y="1286.382" fill="#DD192C" width="363.34" height="206.311"/>
	<rect id="platformcage3_11_" x="3840.799" y="1491.808" fill="#DD192C" width="363.34" height="206.312"/>
	<rect id="platformcage3_19_" x="8016.796" y="1493.664" fill="#DD192C" width="363.34" height="206.311"/>
	<rect id="platformcage4" x="7290.114" y="1493.664" fill="#535BA2" width="363.342" height="206.311"/>
	<rect id="platformcage3_21_" x="6926.778" y="1493.664" fill="#DD192C" width="363.336" height="206.311"/>
	<rect id="platformcage4_1_" x="7653.456" y="1491.804" fill="#535BA2" width="363.342" height="206.31"/>
	<rect id="platformcage4_2_" x="5657.499" y="1491.808" fill="#535BA2" width="363.341" height="206.312"/>
	<rect id="platformcage4_3_" x="5294.159" y="1285.498" fill="#535BA2" width="363.341" height="206.31"/>
	<rect id="platformcage4_12_" x="4567.477" y="874.09" fill="#535BA2" width="363.342" height="206.311"/>
	<rect id="platformcage4_11_" x="4567.478" y="1493.021" fill="#535BA2" width="363.341" height="206.312"/>
	<rect id="platformcage4_10_" x="4567.477" y="1286.711" fill="#535BA2" width="363.342" height="206.31"/>
	<rect id="platformcage4_9_" x="4567.477" y="1080.4" fill="#535BA2" width="363.342" height="206.311"/>
	<rect id="platformcage4_5_" x="3840.797" y="1080.4" fill="#535BA2" width="363.341" height="206.311"/>
	<rect id="platformcage4_4_" x="3840.797" y="1286.711" fill="#535BA2" width="363.341" height="206.31"/>
	<rect id="platformcage4_6_" x="3477.457" y="1080.4" fill="#535BA2" width="363.34" height="206.311"/>
	<rect id="end_2_" x="10251.479" y="1090.38" fill="#FBD849" width="251.217" height="403.284"/>
	<rect id="spadesdown_3_" x="4204.139" y="1663.356" fill="#C94A96" width="363.338" height="35.976"/>
	<rect id="spadesdown_1_" x="3114.118" y="1663.031" fill="#C94A96" width="363.338" height="35.976"/>
	<rect id="spadesdown_2_" x="4930.819" y="1663.356" fill="#C94A96" width="363.338" height="35.976"/>
	<rect id="spadesdown_4_" x="6346.396" y="1968.713" fill="#C94A96" width="363.34" height="35.977"/>
	<rect id="spadesdown_5_" x="8380.137" y="1869.531" fill="#C94A96" width="363.339" height="35.975"/>
	<rect id="spadesdown_6_" x="8743.475" y="1869.531" fill="#C94A96" width="363.337" height="35.975"/>
	<rect id="spadesdown_7_" x="9106.812" y="1869.531" fill="#C94A96" width="363.338" height="35.975"/>
	<rect id="spadesdown_8_" x="9470.149" y="1869.531" fill="#C94A96" width="363.342" height="35.975"/>
	<rect id="blank_1_" x="284.483" fill="#BD6334" width="215.518" height="2004.368"/>
	<rect id="blank" x="10669.08" y="53.816" fill="#BD6334" width="215.519" height="2004.368"/>
</g>
</svg>
