<?xml version="1.0" encoding="utf-8"?>
<!-- Generator: Adobe Illustrator 15.1.0, SVG Export Plug-In . SVG Version: 6.00 Build 0)  -->
<!DOCTYPE svg PUBLIC "-//W3C//DTD SVG 1.1//EN" "http://www.w3.org/Graphics/SVG/1.1/DTD/svg11.dtd">
<svg version="1.1" id="Calque_1" xmlns="http://www.w3.org/2000/svg" xmlns:xlink="http://www.w3.org/1999/xlink" x="0px" y="0px"
	 width="8956.169px" height="2517.93px" viewBox="0 0 8956.169 2517.93" enable-background="new 0 0 8956.169 2517.93"
	 xml:space="preserve">
<rect id="groundcage2_1_" x="-0.284" y="1931.019" stroke="#000000" stroke-miterlimit="10" width="1001.796" height="586.628"/>
<rect id="groundcage1_2_" x="1001.512" y="1931.019" stroke="#000000" stroke-miterlimit="10" width="1001.796" height="586.628"/>
<rect id="groundcage3_2_" x="2003.308" y="1931.019" stroke="#000000" stroke-miterlimit="10" width="1001.797" height="586.636"/>
<rect id="groundcage1_5_" x="7969.087" y="1931.025" stroke="#000000" stroke-miterlimit="10" width="986.797" height="586.636"/>
<rect id="groundcage2_2_" x="5008.697" y="2398.148" stroke="#000000" stroke-miterlimit="10" width="986.797" height="119.506"/>
<rect id="groundcage1_6_" x="5995.493" y="2398.147" stroke="#000000" stroke-miterlimit="10" width="986.797" height="119.503"/>
<rect id="groundcage2_3_" x="4006.9" y="2398.148" stroke="#000000" stroke-miterlimit="10" width="1001.797" height="119.501"/>
<rect id="characterstart_1_" x="563.217" y="1448.193" fill="#7CD2E2" stroke="#000000" stroke-miterlimit="10" width="101.976" height="482.822"/>
<rect id="end_1_" x="8549.504" y="1689.604" fill="#FBD849" stroke="#000000" stroke-miterlimit="10" width="150.38" height="241.41"/>
<rect id="door" x="2271.318" y="-0.272" fill="#BD2329" stroke="#000000" stroke-miterlimit="10" width="228.092" height="1137.916"/>
<rect id="hole" x="4006.9" y="1931.015" fill="#BF1C5C" stroke="#000000" stroke-miterlimit="10" width="2975.39" height="467.132"/>
<rect id="spades_7_" x="4006.9" y="2355.305" fill="#C94A96" stroke="#000000" stroke-miterlimit="10" width="576.383" height="42.842"/>
<rect id="spades_2_" x="4583.283" y="2355.305" fill="#C94A96" stroke="#000000" stroke-miterlimit="10" width="576.385" height="42.842"/>
<rect id="spades_8_" x="5159.668" y="2355.305" fill="#C94A96" stroke="#000000" stroke-miterlimit="10" width="576.384" height="42.842"/>
<rect id="spades_16_" x="5736.052" y="2355.305" fill="#C94A96" stroke="#000000" stroke-miterlimit="10" width="576.384" height="42.842"/>
<rect id="spades_17_" x="6312.436" y="2355.305" fill="#C94A96" stroke="#000000" stroke-miterlimit="10" width="576.383" height="42.842"/>
<rect id="spades_18_" x="6888.818" y="2355.305" fill="#C94A96" stroke="#000000" stroke-miterlimit="10" width="576.385" height="42.842"/>
<rect id="groundcage4_2_" x="6982.29" y="1931.025" stroke="#000000" stroke-miterlimit="10" width="986.797" height="586.636"/>
<rect id="groundcage1_3_" x="3005.104" y="1931.015" stroke="#000000" stroke-miterlimit="10" width="1001.796" height="586.636"/>
</svg>
