<?xml version="1.0" encoding="utf-8"?>
<!-- Generator: Adobe Illustrator 15.1.0, SVG Export Plug-In . SVG Version: 6.00 Build 0)  -->
<!DOCTYPE svg PUBLIC "-//W3C//DTD SVG 1.1//EN" "http://www.w3.org/Graphics/SVG/1.1/DTD/svg11.dtd">
<svg version="1.1" id="Calque_1" xmlns="http://www.w3.org/2000/svg" xmlns:xlink="http://www.w3.org/1999/xlink" x="0px" y="0px"
	 width="16039.98px" height="2853.439px" viewBox="0 0 16039.98 2853.439" enable-background="new 0 0 16039.98 2853.439"
	 xml:space="preserve">
<rect id="characterstart" x="234.92" y="1286.957" fill="#7CD2E2" stroke="#000000" stroke-miterlimit="10" width="131.544" height="622.819"/>
<rect id="groundcage1_16_" x="0" y="1908.783" stroke="#000000" stroke-miterlimit="10" width="1289.854" height="471.584"/>
<rect id="groundcage2" x="1289.855" y="1908.783" stroke="#000000" stroke-miterlimit="10" width="1289.853" height="471.584"/>
<rect id="groundcage1_18_" x="2579.708" y="1908.783" stroke="#000000" stroke-miterlimit="10" width="1289.855" height="471.584"/>
<rect id="groundcage3" x="3869.563" y="1908.783" stroke="#000000" stroke-miterlimit="10" width="1289.854" height="471.584"/>
<rect id="platformcage2_3_" x="2914.894" y="952.915" fill="#9BCB56" stroke="#000000" stroke-miterlimit="10" width="561.131" height="318.619"/>
<rect id="platformcage3" x="1231.502" y="1590.15" fill="#DD192C" stroke="#000000" stroke-miterlimit="10" width="561.13" height="318.62"/>
<rect id="platformcage1_9_" x="3476.024" y="1271.533" fill="#70BF58" stroke="#000000" stroke-miterlimit="10" width="561.132" height="318.617"/>
<rect id="platformcage1_86_" x="4598.287" y="1590.158" fill="#70BF58" stroke="#000000" stroke-miterlimit="10" width="561.13" height="318.618"/>
<rect id="platformcage2_7_" x="4598.287" y="634.289" fill="#9BCB56" stroke="#000000" stroke-miterlimit="10" width="561.13" height="318.619"/>
<rect id="platformcage2_8_" x="5159.417" y="634.289" fill="#9BCB56" stroke="#000000" stroke-miterlimit="10" width="561.131" height="318.618"/>
<rect id="end_1_" x="15298.066" y="1275.139" fill="#FBD849" stroke="#000000" stroke-miterlimit="10" width="193.984" height="311.408"/>
<rect id="groundcage4" x="10879.967" y="1910.271" stroke="#000000" stroke-miterlimit="10" width="1289.855" height="471.584"/>
<rect id="groundcage1_23_" x="12169.822" y="2227.688" stroke="#000000" stroke-miterlimit="10" width="1289.854" height="471.583"/>
<rect id="groundcage3_2_" x="13459.676" y="2227.688" stroke="#000000" stroke-miterlimit="10" width="1289.857" height="471.584"/>
<rect id="groundcage1_25_" x="14750.125" y="1591.654" stroke="#000000" stroke-miterlimit="10" width="1289.855" height="471.581"/>
<rect id="groundcage1_2_" x="5159.417" y="1909.279" stroke="#000000" stroke-miterlimit="10" width="1289.855" height="471.584"/>
<rect id="groundcage1_3_" x="6449.272" y="1909.279" stroke="#000000" stroke-miterlimit="10" width="1289.856" height="471.584"/>
<rect id="groundcage2_1_" x="7739.129" y="1909.279" stroke="#000000" stroke-miterlimit="10" width="1289.854" height="471.584"/>
<rect id="groundcage1_51_" x="10879.967" y="2381.855" stroke="#000000" stroke-miterlimit="10" width="1289.855" height="471.584"/>
<rect id="groundcage3_1_" x="7010.402" y="2381.855" stroke="#000000" stroke-miterlimit="10" width="1289.855" height="471.584"/>
<rect id="groundcage1_54_" x="9590.111" y="2381.855" stroke="#000000" stroke-miterlimit="10" width="1289.855" height="471.584"/>
<rect id="groundcage1_53_" x="8300.258" y="2381.855" stroke="#000000" stroke-miterlimit="10" width="1289.854" height="471.584"/>
<rect id="spades_8_" x="12169.822" y="2172.423" fill="#C94A96" stroke="#000000" stroke-miterlimit="10" width="561.133" height="55.265"/>
<rect id="spades_13_" x="12730.955" y="2172.423" fill="#C94A96" stroke="#000000" stroke-miterlimit="10" width="561.129" height="55.265"/>
<rect id="spades_16_" x="13292.084" y="2172.423" fill="#C94A96" stroke="#000000" stroke-miterlimit="10" width="561.131" height="55.265"/>
<rect id="spades_14_" x="13853.215" y="2172.423" fill="#C94A96" stroke="#000000" stroke-miterlimit="10" width="561.129" height="55.265"/>
<rect id="spades_17_" x="14414.344" y="2172.423" fill="#C94A96" stroke="#000000" stroke-miterlimit="10" width="561.133" height="55.265"/>
<rect id="groundcage1_5_" x="14749.533" y="2063.235" stroke="#000000" stroke-miterlimit="10" width="1289.855" height="471.584"/>
<rect id="spades_6_" x="4037.156" y="1854.016" fill="#C94A96" stroke="#000000" stroke-miterlimit="10" width="561.13" height="55.265"/>
<rect id="spades_2_" x="5720.548" y="1854.016" fill="#C94A96" stroke="#000000" stroke-miterlimit="10" width="561.131" height="55.265"/>
<rect id="spades_4_" x="6842.812" y="1854.016" fill="#C94A96" stroke="#000000" stroke-miterlimit="10" width="561.127" height="55.265"/>
<rect id="platformcage2_1_" x="7403.94" y="1588.777" fill="#9BCB56" stroke="#000000" stroke-miterlimit="10" width="561.133" height="318.619"/>
<rect id="spades_1_" x="9028.982" y="2326.675" fill="#C94A96" stroke="#000000" stroke-miterlimit="10" width="561.129" height="55.266"/>
<rect id="groundcage1_20_" x="9590.111" y="1910.271" stroke="#000000" stroke-miterlimit="10" width="1289.855" height="471.584"/>
<rect id="platformcage3_1_" x="1792.633" y="1588.785" fill="#DD192C" stroke="#000000" stroke-miterlimit="10" width="561.13" height="318.619"/>
<rect id="platformcage3_3_" x="2353.764" y="1589.468" fill="#DD192C" stroke="#000000" stroke-miterlimit="10" width="561.13" height="318.619"/>
<rect id="platformcage3_2_" x="2914.895" y="1588.103" fill="#DD192C" stroke="#000000" stroke-miterlimit="10" width="561.13" height="318.619"/>
<rect id="platformcage3_4_" x="2353.764" y="1271.533" fill="#DD192C" stroke="#000000" stroke-miterlimit="10" width="561.13" height="318.619"/>
<rect id="platformcage1_6_" x="1792.632" y="1271.533" fill="#70BF58" stroke="#000000" stroke-miterlimit="10" width="561.131" height="318.619"/>
<rect id="platformcage2_2_" x="2914.894" y="1271.533" fill="#9BCB56" stroke="#000000" stroke-miterlimit="10" width="561.131" height="318.619"/>
<rect id="platformcage3_5_" x="3476.027" y="951.545" fill="#DD192C" stroke="#000000" stroke-miterlimit="10" width="561.129" height="318.62"/>
<rect id="platformcage3_6_" x="3476.024" y="1590.158" fill="#DD192C" stroke="#000000" stroke-miterlimit="10" width="561.131" height="318.619"/>
<rect id="platformcage3_8_" x="4598.288" y="952.907" fill="#535BA2" stroke="#000000" stroke-miterlimit="10" width="561.129" height="318.62"/>
<rect id="platformcage3_10_" x="4598.289" y="1271.533" fill="#DD192C" stroke="#000000" stroke-miterlimit="10" width="561.13" height="318.619"/>
<rect id="platformcage3_11_" x="5159.421" y="1588.785" fill="#DD192C" stroke="#000000" stroke-miterlimit="10" width="561.13" height="318.619"/>
<rect id="platformcage3_7_" x="5159.419" y="951.545" fill="#535BA2" stroke="#000000" stroke-miterlimit="10" width="561.129" height="318.62"/>
<rect id="platformcage3_9_" x="5159.421" y="1271.533" fill="#535BA2" stroke="#000000" stroke-miterlimit="10" width="561.13" height="318.619"/>
<rect id="platformcage3_13_" x="6281.679" y="1268.799" fill="#535BA2" stroke="#000000" stroke-miterlimit="10" width="561.13" height="318.619"/>
<rect id="platformcage3_12_" x="6281.681" y="1588.786" fill="#535BA2" stroke="#000000" stroke-miterlimit="10" width="561.13" height="318.619"/>
<rect id="platformcage3_15_" x="6281.678" y="632.242" fill="#535BA2" stroke="#000000" stroke-miterlimit="10" width="561.13" height="318.619"/>
<rect id="platformcage3_14_" x="6281.68" y="952.229" fill="#535BA2" stroke="#000000" stroke-miterlimit="10" width="561.13" height="318.619"/>
<rect id="platformcage3_16_" x="7403.941" y="1271.533" fill="#535BA2" stroke="#000000" stroke-miterlimit="10" width="561.132" height="318.619"/>
<rect id="platformcage3_17_" x="7965.072" y="1588.786" fill="#535BA2" stroke="#000000" stroke-miterlimit="10" width="561.13" height="318.619"/>
<rect id="platformcage3_19_" x="11608.691" y="1588.786" fill="#DD192C" stroke="#000000" stroke-miterlimit="10" width="561.129" height="318.619"/>
<rect id="platformcage3_18_" x="11047.562" y="1588.786" fill="#535BA2" stroke="#000000" stroke-miterlimit="10" width="561.129" height="318.619"/>
<rect id="platformcage3_20_" x="10486.432" y="1588.786" fill="#535BA2" stroke="#000000" stroke-miterlimit="10" width="561.131" height="318.619"/>
<rect id="platformcage3_21_" x="9925.303" y="1588.786" fill="#DD192C" stroke="#000000" stroke-miterlimit="10" width="561.129" height="318.619"/>
</svg>
