<?xml version="1.0" encoding="utf-8"?>
<!-- Generator: Adobe Illustrator 15.1.0, SVG Export Plug-In . SVG Version: 6.00 Build 0)  -->
<!DOCTYPE svg PUBLIC "-//W3C//DTD SVG 1.1//EN" "http://www.w3.org/Graphics/SVG/1.1/DTD/svg11.dtd">
<svg version="1.1" xmlns="http://www.w3.org/2000/svg" xmlns:xlink="http://www.w3.org/1999/xlink" x="0px" y="0px"
	 width="11169.08px" height="2853.439px" viewBox="0 0 11169.08 2853.439" enable-background="new 0 0 11169.08 2853.439"
	 xml:space="preserve">
<g id="Calque_2">
	<rect id="backlayer1_323_" x="1005.914" y="372.133" fill="#48C4C4" width="583.003" height="411.25"/>
	<rect id="backlayer1_1_" x="5184.326" y="372.133" fill="#48C4C4" width="583.003" height="411.25"/>
	<rect id="backlayer1_3_" x="9833.881" y="372.133" fill="#48C4C4" width="583.003" height="411.25"/>
</g>
<g id="Calque_1">
	<rect id="characterstart" x="652.115" y="1296.37" fill="#7CD2E2" width="85.176" height="403.285"/>
	<rect id="groundcage1_16_" x="500" y="1699.011" width="835.199" height="305.357"/>
	<rect id="groundcage1_1_" x="1335.2" y="1699.011" width="835.199" height="305.357"/>
	<rect id="groundcage1_3_" x="2170.398" y="1699.011" width="835.2" height="305.357"/>
	<rect id="groundcage4" x="3005.598" y="1699.011" width="835.199" height="305.357"/>
	<rect id="groundcage1_8_" x="3840.796" y="1699.011" width="835.199" height="305.357"/>
	<rect id="groundcage4_1_" x="4675.996" y="1699.011" width="835.199" height="305.357"/>
	<rect id="groundcage1_6_" x="5511.194" y="1699.011" width="835.201" height="305.357"/>
	<rect id="groundcage1_14_" x="6709.735" y="2004.689" width="835.199" height="305.357"/>
	<rect id="groundcage1_13_" x="7544.934" y="2004.689" width="835.2" height="305.357"/>
	<rect id="groundcage4_2_" x="5874.535" y="2004.689" width="835.2" height="305.357"/>
	<rect id="groundcage1_4_" x="6709.735" y="1699.011" width="835.199" height="305.357"/>
	<rect id="groundcage4_3_" x="9215.335" y="1905.506" width="835.199" height="305.357"/>
	<rect id="groundcage1_12_" x="9833.88" y="1799.021" width="835.199" height="305.357"/>
	<rect id="groundcage1_2_" x="9833.88" y="2104.379" width="835.199" height="305.357"/>
	<rect id="groundcage1_11_" x="8380.135" y="1905.506" width="835.199" height="305.357"/>
	<rect id="groundcage1_10_" x="9833.88" y="1493.664" width="835.199" height="305.357"/>
	<rect id="groundcage1_5_" x="7544.936" y="1698.113" width="835.199" height="305.357"/>
	<rect id="platformcage2_3_" x="2387.436" y="1080.073" fill="#9BCB56" width="363.341" height="206.31"/>
	<rect id="platformcage3" x="1297.416" y="1492.692" fill="#DD192C" width="363.339" height="206.311"/>
	<rect id="platformcage1_9_" x="2750.777" y="1286.382" fill="#70BF58" width="363.341" height="206.31"/>
	<rect id="platformcage1_86_" x="3477.457" y="1492.696" fill="#70BF58" width="363.34" height="206.311"/>
	<rect id="platformcage2_7_" x="3477.457" y="873.758" fill="#9BCB56" width="363.34" height="206.31"/>
	<rect id="platformcage2_8_" x="3840.798" y="873.758" fill="#9BCB56" width="363.34" height="206.31"/>
	<rect id="platformcage2_1_" x="5294.158" y="1491.804" fill="#9BCB56" width="363.342" height="206.31"/>
	<rect id="platformcage3_1_" x="1660.755" y="1491.808" fill="#DD192C" width="363.34" height="206.312"/>
	<rect id="platformcage3_3_" x="2024.096" y="1492.25" fill="#DD192C" width="363.34" height="206.312"/>
	<rect id="platformcage3_2_" x="2387.436" y="1491.365" fill="#DD192C" width="363.34" height="206.312"/>
	<rect id="platformcage3_4_" x="2024.096" y="1286.382" fill="#DD192C" width="363.34" height="206.311"/>
	<rect id="platformcage1_6_" x="1660.755" y="1286.382" fill="#70BF58" width="363.34" height="206.311"/>
	<rect id="platformcage2_2_" x="2387.436" y="1286.382" fill="#9BCB56" width="363.341" height="206.311"/>
	<rect id="platformcage3_5_" x="2750.777" y="1079.186" fill="#DD192C" width="363.34" height="206.312"/>
	<rect id="platformcage3_6_" x="2750.777" y="1492.696" fill="#DD192C" width="363.34" height="206.312"/>
	<rect id="platformcage3_10_" x="3477.459" y="1286.382" fill="#DD192C" width="363.34" height="206.311"/>
	<rect id="platformcage3_11_" x="3840.799" y="1491.808" fill="#DD192C" width="363.34" height="206.312"/>
	<rect id="platformcage3_19_" x="8016.796" y="1493.664" fill="#DD192C" width="363.34" height="206.311"/>
	<rect id="platformcage4" x="7290.114" y="1493.664" fill="#535BA2" width="363.342" height="206.311"/>
	<rect id="platformcage3_21_" x="6926.778" y="1493.664" fill="#DD192C" width="363.336" height="206.311"/>
	<rect id="platformcage4_1_" x="7653.456" y="1491.804" fill="#535BA2" width="363.342" height="206.31"/>
	<rect id="platformcage4_2_" x="5657.499" y="1491.808" fill="#535BA2" width="363.341" height="206.312"/>
	<rect id="platformcage4_3_" x="5294.159" y="1285.498" fill="#535BA2" width="363.34" height="206.31"/>
	<rect id="platformcage4_12_" x="4567.477" y="874.09" fill="#535BA2" width="363.342" height="206.311"/>
	<rect id="platformcage4_11_" x="4567.478" y="1493.021" fill="#535BA2" width="363.341" height="206.312"/>
	<rect id="platformcage4_10_" x="4567.477" y="1286.711" fill="#535BA2" width="363.342" height="206.31"/>
	<rect id="platformcage4_9_" x="4567.477" y="1080.4" fill="#535BA2" width="363.342" height="206.311"/>
	<rect id="platformcage4_5_" x="3840.798" y="1080.4" fill="#535BA2" width="363.34" height="206.311"/>
	<rect id="platformcage4_4_" x="3840.798" y="1286.711" fill="#535BA2" width="363.34" height="206.31"/>
	<rect id="platformcage4_6_" x="3477.457" y="1080.4" fill="#535BA2" width="363.34" height="206.311"/>
	<rect id="end_2_" x="10251.479" y="1090.38" fill="#FBD849" width="251.217" height="403.284"/>
	<rect id="spadesdown_3_" x="4204.139" y="1663.356" fill="#C94A96" width="363.338" height="35.976"/>
	<rect id="spadesdown_1_" x="3114.118" y="1663.031" fill="#C94A96" width="363.338" height="35.976"/>
	<rect id="spadesdown_2_" x="4930.819" y="1663.356" fill="#C94A96" width="363.338" height="35.976"/>
	<rect id="spadesdown_4_" x="6346.396" y="1968.713" fill="#C94A96" width="363.34" height="35.977"/>
	<rect id="spadesdown_5_" x="8380.137" y="1869.531" fill="#C94A96" width="363.339" height="35.975"/>
	<rect id="spadesdown_6_" x="8743.475" y="1869.531" fill="#C94A96" width="363.337" height="35.975"/>
	<rect id="spadesdown_7_" x="9106.812" y="1869.531" fill="#C94A96" width="363.338" height="35.975"/>
	<rect id="spadesdown_8_" x="9470.149" y="1869.531" fill="#C94A96" width="363.342" height="35.975"/>
	<rect id="blank_1_" x="284.483" fill="#BD6334" width="215.518" height="2004.368"/>
	<rect id="blank" x="10669.079" y="53.816" fill="#BD6334" width="215.52" height="2004.368"/>
</g>
</svg>
