<?xml version="1.0" encoding="utf-8"?>
<!-- Generator: Adobe Illustrator 15.1.0, SVG Export Plug-In . SVG Version: 6.00 Build 0)  -->
<!DOCTYPE svg PUBLIC "-//W3C//DTD SVG 1.1//EN" "http://www.w3.org/Graphics/SVG/1.1/DTD/svg11.dtd">
<svg version="1.1" id="Calque_1" xmlns="http://www.w3.org/2000/svg" xmlns:xlink="http://www.w3.org/1999/xlink" x="0px" y="0px"
	 width="16013.86px" height="11914.05px" viewBox="0 0 16013.86 11914.05" enable-background="new 0 0 16013.86 11914.05"
	 xml:space="preserve">
<rect id="shadows_4_" x="7659.627" y="1530.174" fill="#686868" width="3341.464" height="1347.277"/>
<rect id="shadows_6_" x="10776.39" y="3237.996" fill="#686868" width="2730.801" height="1347.277"/>
<rect id="shadows_5_" x="13876.548" y="155.802" fill="#686868" width="1767.389" height="4983.152"/>
<rect id="shadows_1_" x="141.341" y="7943.909" fill="#686868" width="3341.465" height="3970.409"/>
<rect id="shadows_2_" x="4882.773" y="8308.89" fill="#686868" width="2429.341" height="1713.367"/>
<rect id="groundcage1_27_" x="2647.439" y="11608.901" width="835.366" height="305.416"/>
<rect id="groundcage3" x="2647.439" y="11303.485" width="835.366" height="305.416"/>
<rect id="groundcage3_1_" x="2647.439" y="10998.069" width="835.366" height="305.416"/>
<rect id="groundcage3_2_" x="2647.439" y="10692.653" width="835.366" height="305.416"/>
<rect id="groundcage3_3_" x="2647.439" y="10387.237" width="835.366" height="305.416"/>
<rect id="groundcage3_4_" x="2647.439" y="10081.821" width="835.366" height="305.416"/>
<rect id="groundcage3_9_" x="141.341" y="11303.485" width="835.366" height="305.416"/>
<rect id="groundcage3_8_" x="141.341" y="10998.069" width="835.366" height="305.416"/>
<rect id="groundcage3_7_" x="141.341" y="10692.653" width="835.366" height="305.416"/>
<rect id="groundcage3_6_" x="141.341" y="10387.237" width="835.366" height="305.416"/>
<rect id="groundcage3_5_" x="141.341" y="10081.821" width="835.366" height="305.416"/>
<rect id="groundcage3_14_" x="141.341" y="9776.405" width="835.366" height="305.416"/>
<rect id="groundcage3_13_" x="141.341" y="9470.989" width="835.366" height="305.416"/>
<rect id="groundcage3_12_" x="141.341" y="9165.573" width="835.366" height="305.416"/>
<rect id="groundcage3_11_" x="141.341" y="8860.157" width="835.366" height="305.416"/>
<rect id="groundcage3_10_" x="141.341" y="8554.741" width="835.366" height="305.416"/>
<rect id="groundcage3_15_" x="141.341" y="8249.325" width="835.366" height="305.416"/>
<rect id="groundcage1_3_" x="3482.806" y="11608.901" width="835.366" height="305.416"/>
<rect id="groundcage1_2_" x="4318.173" y="11608.901" width="835.366" height="305.416"/>
<rect id="groundcage4_1_" x="5153.539" y="11608.901" width="835.366" height="305.416"/>
<rect id="groundcage1_4_" x="5988.907" y="11608.901" width="835.366" height="305.416"/>
<rect id="groundcage1_13_" x="4318.173" y="10692.653" width="835.367" height="305.416"/>
<rect id="groundcage1_15_" x="6824.272" y="11608.901" width="835.364" height="305.416"/>
<rect id="groundcage1_25_" x="6824.272" y="7943.909" width="835.364" height="305.416"/>
<rect id="groundcage3_113_" x="4318.173" y="7943.909" width="835.366" height="305.416"/>
<rect id="platformcage3_2_" x="6460.858" y="10990.523" fill="#DD192C" width="363.413" height="206.352"/>
<rect id="platformcage3_1_" x="6097.445" y="10990.523" fill="#DD192C" width="363.413" height="206.352"/>
<rect id="platformcage3_6_" x="6460.858" y="9748.116" fill="#DD192C" width="363.412" height="206.352"/>
<rect id="platformcage3_5_" x="6097.444" y="9748.116" fill="#DD192C" width="363.413" height="206.352"/>
<rect id="platformcage3_7_" x="5516.953" y="10367.172" fill="#DD192C" width="363.413" height="206.352"/>
<rect id="platformcage3_3_" x="5153.539" y="10367.172" fill="#DD192C" width="363.413" height="206.352"/>
<rect id="platformcage3_8_" x="6460.856" y="8505.709" fill="#DD192C" width="363.413" height="206.352"/>
<rect id="platformcage3_4_" x="6097.442" y="8505.709" fill="#DD192C" width="363.414" height="206.352"/>
<rect id="platformcage3_15_" x="5516.953" y="7638.488" fill="#DD192C" width="363.413" height="206.352"/>
<rect id="platformcage3_14_" x="5153.539" y="7638.488" fill="#DD192C" width="363.413" height="206.352"/>
<rect id="groundcage2" x="3482.807" y="7943.909" width="835.365" height="305.416"/>
<rect id="groundcage1_48_" x="1812.073" y="11608.901" width="835.366" height="305.416"/>
<rect id="groundcage1_65_" x="976.707" y="11608.901" width="835.366" height="305.416"/>
<rect id="groundcage4_2_" x="976.707" y="11608.901" width="835.366" height="305.416"/>
<rect id="groundcage1_64_" x="141.341" y="11608.901" width="835.366" height="305.416"/>
<rect id="pillevolutionb_2_" x="4192.465" y="11403.377" fill="#FB913B" width="50.686" height="61.859"/>
<rect id="pillevolutionb_3_" x="8179.412" y="7407.712" fill="#FB913B" width="50.686" height="61.858"/>
<rect id="groundcage1_61_" x="7659.637" y="7943.909" width="835.367" height="305.416"/>
<rect id="groundcage4_3_" x="8495.004" y="7943.909" width="835.367" height="305.416"/>
<rect id="groundcage1_59_" x="9330.371" y="7943.909" width="835.366" height="305.416"/>
<rect id="groundcage1_58_" x="10165.737" y="7943.909" width="835.365" height="305.416"/>
<rect id="groundcage1_57_" x="11001.103" y="7943.909" width="835.367" height="305.416"/>
<rect id="groundcage1_46_" x="11836.466" y="7943.909" width="835.365" height="305.416"/>
<rect id="groundcage1_24_" x="12671.831" y="7943.909" width="835.367" height="305.416"/>
<rect id="groundcage1_11_" x="13507.198" y="7943.909" width="835.367" height="305.416"/>
<rect id="groundcage1_69_" x="14342.564" y="7943.909" width="835.367" height="305.416"/>
<rect id="platformcage1_12_" x="8749.873" y="7531.19" fill="#70BF58" width="363.414" height="206.351"/>
<rect id="platformcage2_26_" x="9476.701" y="7531.19" fill="#9BCB56" width="363.411" height="206.35"/>
<rect id="platformcage2_76_" x="9476.702" y="7324.84" fill="#9BCB56" width="363.412" height="206.351"/>
<rect id="platformcage2_1_" x="9476.7" y="5880.378" fill="#9BCB56" width="363.41" height="206.353"/>
<rect id="platformcage2_33_" x="10566.94" y="6705.783" fill="#9BCB56" width="363.41" height="206.354"/>
<rect id="platformcage2_32_" x="10566.938" y="6499.433" fill="#9BCB56" width="363.412" height="206.351"/>
<rect id="platformcage2_31_" x="10566.94" y="6293.081" fill="#9BCB56" width="363.414" height="206.352"/>
<rect id="platformcage2_6_" x="10566.94" y="5467.675" fill="#9BCB56" width="363.414" height="206.352"/>
<rect id="platformcage1_90_" x="10203.526" y="7531.19" fill="#70BF58" width="363.414" height="206.354"/>
<rect id="platformcage1_4_" x="10203.526" y="7737.552" fill="#70BF58" width="363.412" height="206.354"/>
<rect id="platformcage1_89_" x="10203.526" y="7324.84" fill="#70BF58" width="363.414" height="206.351"/>
<rect id="platformcage1_28_" x="10203.526" y="7118.489" fill="#70BF58" width="363.414" height="206.351"/>
<rect id="platformcage2_38_" x="10203.526" y="6499.433" fill="#9BCB56" width="363.412" height="206.351"/>
<rect id="platformcage2_9_" x="12383.997" y="7737.554" fill="#9BCB56" width="363.412" height="206.35"/>
<rect id="platformcage2_21_" x="11657.172" y="7118.494" fill="#9BCB56" width="363.415" height="206.353"/>
<rect id="platformcage1_59_" x="11657.172" y="6293.087" fill="#70BF58" width="363.415" height="206.352"/>
<rect id="platformcage4_7_" x="8023.049" y="7737.552" fill="#535BA2" width="363.414" height="206.354"/>
<rect id="platformcage4_13_" x="8023.049" y="7531.199" fill="#535BA2" width="363.414" height="206.353"/>
<rect id="platformcage3_19_" x="8749.873" y="6912.138" fill="#DD192C" width="363.414" height="206.352"/>
<rect id="platformcage3_12_" x="8749.873" y="7119.99" fill="#DD192C" width="363.414" height="206.353"/>
<rect id="platformcage2_5_" x="8749.873" y="6705.784" fill="#9BCB56" width="363.414" height="206.354"/>
<rect id="platformcage4_20_" x="8749.873" y="7324.84" fill="#535BA2" width="363.414" height="206.353"/>
<rect id="platformcage4_21_" x="8749.873" y="7737.552" fill="#535BA2" width="363.414" height="206.354"/>
<rect id="platformcage4_22_" x="9476.697" y="7119.991" fill="#535BA2" width="363.413" height="206.352"/>
<rect id="platformcage4_23_" x="9476.7" y="7737.552" fill="#535BA2" width="363.414" height="206.354"/>
<rect id="platformcage4_24_" x="9476.702" y="6705.784" fill="#535BA2" width="363.412" height="206.353"/>
<rect id="platformcage1_1_" x="9476.7" y="6912.138" fill="#70BF58" width="363.414" height="206.352"/>
<rect id="platformcage3_11_" x="9476.702" y="6292.329" fill="#DD192C" width="363.412" height="206.353"/>
<rect id="platformcage3_10_" x="9476.702" y="6500.183" fill="#DD192C" width="363.412" height="206.352"/>
<rect id="platformcage3_9_" x="9476.702" y="6086.731" fill="#DD192C" width="363.412" height="206.353"/>
<rect id="platformcage3_16_" x="10203.524" y="5467.675" fill="#DD192C" width="363.414" height="206.352"/>
<rect id="platformcage3_17_" x="10203.524" y="5674.026" fill="#DD192C" width="363.414" height="206.352"/>
<rect id="platformcage3_18_" x="10566.94" y="5674.026" fill="#DD192C" width="363.412" height="206.352"/>
<rect id="platformcage3_20_" x="10566.94" y="5880.378" fill="#DD192C" width="363.412" height="206.352"/>
<rect id="platformcage3_26_" x="12383.997" y="6705.79" fill="#DD192C" width="363.414" height="206.353"/>
<rect id="platformcage3_25_" x="12383.997" y="6912.142" fill="#DD192C" width="363.414" height="206.353"/>
<rect id="platformcage3_28_" x="11657.172" y="7324.849" fill="#DD192C" width="363.415" height="206.353"/>
<rect id="platformcage3_29_" x="12383.997" y="7324.849" fill="#DD192C" width="363.414" height="206.353"/>
<rect id="platformcage3_30_" x="12383.995" y="7118.495" fill="#DD192C" width="363.414" height="206.352"/>
<rect id="platformcage3_27_" x="11657.172" y="7531.2" fill="#DD192C" width="363.415" height="206.353"/>
<rect id="platformcage3_22_" x="10566.94" y="7324.84" fill="#DD192C" width="363.412" height="206.353"/>
<rect id="platformcage3_23_" x="10566.937" y="7531.188" fill="#DD192C" width="363.414" height="206.354"/>
<rect id="platformcage3_24_" x="10566.94" y="7737.552" fill="#DD192C" width="363.412" height="206.354"/>
<rect id="platformcage4_25_" x="9476.697" y="5674.026" fill="#535BA2" width="363.413" height="206.352"/>
<rect id="platformcage4_28_" x="10203.526" y="5880.378" fill="#535BA2" width="363.414" height="206.353"/>
<rect id="platformcage4_29_" x="10203.524" y="6086.731" fill="#535BA2" width="363.414" height="206.353"/>
<rect id="platformcage4_46_" x="11657.172" y="6499.438" fill="#535BA2" width="363.415" height="206.352"/>
<rect id="platformcage4_45_" x="11657.168" y="6705.79" fill="#535BA2" width="363.417" height="206.353"/>
<rect id="platformcage4_63_" x="11654.754" y="6086.729" fill="#535BA2" width="363.415" height="206.353"/>
<rect id="platformcage4_47_" x="11657.172" y="6912.142" fill="#535BA2" width="363.415" height="206.352"/>
<rect id="platformcage4_32_" x="10203.524" y="6705.784" fill="#535BA2" width="363.414" height="206.353"/>
<rect id="platformcage4_31_" x="10203.526" y="6293.081" fill="#535BA2" width="363.414" height="206.352"/>
<rect id="platformcage4_33_" x="10203.526" y="6912.138" fill="#535BA2" width="363.414" height="206.352"/>
<rect id="platformcage4_34_" x="10566.94" y="6912.138" fill="#535BA2" width="363.412" height="206.352"/>
<rect id="platformcage4_35_" x="10566.937" y="7119.991" fill="#535BA2" width="363.414" height="206.352"/>
<rect id="platformcage4_30_" x="10566.938" y="6086.731" fill="#535BA2" width="363.412" height="206.353"/>
<rect id="platformcage4_48_" x="11657.168" y="7737.552" fill="#535BA2" width="363.417" height="206.352"/>
<rect id="platformcage4_49_" x="12383.995" y="7531.2" fill="#535BA2" width="363.414" height="206.353"/>
<rect id="platformcage4_26_" x="9476.697" y="5467.675" fill="#535BA2" width="363.413" height="206.352"/>
<rect id="spadesdown" x="7659.637" y="7907.922" fill="#C94A96" width="363.412" height="35.983"/>
<rect id="spadesdown_1_" x="8386.463" y="7907.926" fill="#C94A96" width="363.41" height="35.983"/>
<rect id="spadesdown_2_" x="9113.287" y="7907.922" fill="#C94A96" width="363.411" height="35.983"/>
<rect id="spadesdown_3_" x="9840.114" y="7907.922" fill="#C94A96" width="363.412" height="35.983"/>
<rect id="spadesdown_4_" x="10930.351" y="7907.921" fill="#C94A96" width="363.41" height="35.982"/>
<rect id="spadesdown_5_" x="11293.763" y="7907.921" fill="#C94A96" width="363.412" height="35.982"/>
<rect id="spadesdown_6_" x="12020.586" y="7907.921" fill="#C94A96" width="363.409" height="35.982"/>
<rect id="spadesdown_7_" x="12747.411" y="7907.921" fill="#C94A96" width="363.41" height="35.982"/>
<rect id="spadesdown_8_" x="13110.825" y="7907.921" fill="#C94A96" width="363.41" height="35.982"/>
<rect id="spadesdown_9_" x="13474.243" y="7907.921" fill="#C94A96" width="363.41" height="35.982"/>
<rect id="spadesdown_29_" x="13837.654" y="7907.921" fill="#C94A96" width="363.41" height="35.982"/>
<rect id="spadesdown_30_" x="14201.065" y="7907.921" fill="#C94A96" width="363.41" height="35.982"/>
<rect id="end_2_" x="1606.369" y="11201.696" fill="#FBD849" width="251.266" height="403.363"/>
<rect id="shadows_3_" x="2647.436" y="5045.444" fill="#686868" width="2506.103" height="2593.044"/>
<rect id="pillevolutiond_1_" x="3875.146" y="7031.613" fill="#9A549C" width="50.683" height="61.855"/>
<rect id="groundcage1_131_" x="5153.534" y="6514.558" width="835.364" height="305.418"/>
<rect id="groundcage3_114_" x="5153.533" y="4987.476" width="835.364" height="305.418"/>
<rect id="platformcage2_11_" x="3737.68" y="7181.797" fill="#9BCB56" width="363.412" height="206.352"/>
<rect id="platformcage2_49_" x="2647.438" y="6356.385" fill="#9BCB56" width="363.416" height="206.355"/>
<rect id="pillevolutionb_4_" x="3582.04" y="7031.611" fill="#BD5D32" width="50.686" height="61.857"/>
<rect id="platformcage4_50_" x="3374.264" y="7181.793" fill="#535BA2" width="363.415" height="206.354"/>
<rect id="platformcage4_27_" x="3010.85" y="6975.441" fill="#535BA2" width="363.414" height="206.352"/>
<rect id="platformcage4_2_" x="4790.127" y="6253.562" fill="#535BA2" width="363.414" height="206.352"/>
<rect id="platformcage4_53_" x="2647.436" y="6975.441" fill="#535BA2" width="363.414" height="206.352"/>
<rect id="platformcage3_31_" x="2647.44" y="6562.74" fill="#DD192C" width="363.412" height="206.354"/>
<rect id="platformcage3_34_" x="4790.127" y="6046.855" fill="#DD192C" width="363.413" height="206.354"/>
<rect id="platformcage3_32_" x="2647.44" y="7181.797" fill="#DD192C" width="363.412" height="206.354"/>
<rect id="platformcage3_33_" x="3010.848" y="7181.797" fill="#DD192C" width="363.412" height="206.354"/>
<rect id="platformcage2_2_" x="4790.127" y="6459.566" fill="#9BCB56" width="363.413" height="206.352"/>
<rect id="platformcage4_1_" x="4426.71" y="6459.562" fill="#535BA2" width="363.416" height="206.354"/>
<rect id="platformcage3_21_" x="4063.295" y="6459.566" fill="#DD192C" width="363.413" height="206.354"/>
<rect id="platformcage4_51_" x="2647.438" y="6769.09" fill="#535BA2" width="363.414" height="206.352"/>
<rect id="platformcage1_5_" x="4426.709" y="6253.209" fill="#70BF58" width="363.418" height="206.354"/>
<rect id="spadesdown_24_" x="3374.263" y="7602.506" fill="#C94A96" width="363.412" height="35.982"/>
<rect id="spadesdown_23_" x="3737.677" y="7602.504" fill="#C94A96" width="363.411" height="35.984"/>
<rect id="spadesdown_28_" x="2647.438" y="7602.506" fill="#C94A96" width="363.411" height="35.982"/>
<rect id="spadesdown_27_" x="3010.852" y="7602.504" fill="#C94A96" width="363.411" height="35.984"/>
<rect id="spadesleft_1_" x="2647.44" y="6114.4" fill="#C94A96" width="35.59" height="206.354"/>
<rect id="spadesleft_2_" x="2647.44" y="5908.048" fill="#C94A96" width="35.59" height="206.353"/>
<rect id="spadesleft_4_" x="2647.44" y="5705.6" fill="#C94A96" width="35.59" height="206.354"/>
<rect id="spadesleft_3_" x="2647.44" y="5499.246" fill="#C94A96" width="35.59" height="206.354"/>
<rect id="spadesleft_5_" x="2647.44" y="5292.893" fill="#C94A96" width="35.59" height="206.354"/>
<rect id="spadesleft_8_" x="3846.213" y="5573.024" fill="#C94A96" width="35.59" height="206.354"/>
<rect id="spadesleft_7_" x="3846.213" y="5366.671" fill="#C94A96" width="35.59" height="206.354"/>
<rect id="spadesleft_6_" x="3846.213" y="5160.317" fill="#C94A96" width="35.59" height="206.354"/>
<rect id="spadesdown_10_" x="3846.213" y="5779.378" fill="#C94A96" width="363.414" height="35.983"/>
<rect id="pillevolutiond_2_" x="4583.077" y="6083.473" fill="#9A549C" width="50.684" height="61.855"/>
<rect id="pillevolutionb_5_" x="4946.491" y="5926.444" fill="#BD5D32" width="50.686" height="61.856"/>
<rect id="platformcage4_3_" x="3482.799" y="5198.153" fill="#535BA2" width="363.414" height="206.352"/>
<rect id="platformcage4_4_" x="3482.799" y="5404.505" fill="#535BA2" width="363.414" height="206.352"/>
<rect id="platformcage4_5_" x="3482.799" y="5610.856" fill="#535BA2" width="363.414" height="206.352"/>
<rect id="platformcage4_8_" x="3482.799" y="5815.361" fill="#535BA2" width="363.414" height="206.352"/>
<rect id="platformcage4_9_" x="3846.213" y="5815.361" fill="#535BA2" width="363.415" height="206.352"/>
<rect id="groundcage1_126_" x="11836.461" y="4584.333" width="835.364" height="305.416"/>
<rect id="groundcage4_4_" x="9330.359" y="4584.333" width="835.366" height="305.416"/>
<rect id="groundcage1_124_" x="8494.994" y="4584.333" width="835.364" height="305.416"/>
<rect id="groundcage1_123_" x="7659.627" y="4584.333" width="835.366" height="305.416"/>
<rect id="groundcage1_122_" x="12671.824" y="4584.333" width="835.365" height="305.416"/>
<rect id="platformcage4_62_" x="9577.607" y="4117.987" fill="#535BA2" width="363.414" height="206.352"/>
<rect id="platformcage4_61_" x="10412.977" y="3705.283" fill="#535BA2" width="363.412" height="206.352"/>
<rect id="platformcage4_60_" x="8742.242" y="3705.283" fill="#535BA2" width="363.414" height="206.352"/>
<rect id="platformcage4_59_" x="10412.977" y="2054.471" fill="#535BA2" width="363.412" height="206.352"/>
<rect id="platformcage4_58_" x="8742.242" y="2054.471" fill="#535BA2" width="363.414" height="206.352"/>
<rect id="platformcage4_57_" x="9577.607" y="3292.58" fill="#535BA2" width="363.414" height="206.352"/>
<rect id="platformcage4_56_" x="8742.242" y="2879.877" fill="#535BA2" width="363.414" height="206.351"/>
<rect id="platformcage4_55_" x="10412.977" y="2879.877" fill="#535BA2" width="363.412" height="206.351"/>
<rect id="platformcage4_54_" x="9577.607" y="2467.174" fill="#535BA2" width="363.414" height="206.352"/>
<rect id="platformcage4_52_" x="10412.975" y="1229.064" fill="#535BA2" width="363.414" height="206.352"/>
<rect id="platformcage4_44_" x="8742.242" y="2054.471" fill="#535BA2" width="363.412" height="206.352"/>
<rect id="platformcage4_43_" x="10412.975" y="2054.471" fill="#535BA2" width="363.414" height="206.352"/>
<rect id="platformcage4_42_" x="9577.607" y="1641.768" fill="#535BA2" width="363.413" height="206.352"/>
<rect id="platformcage4_41_" x="11248.342" y="4117.987" fill="#535BA2" width="363.413" height="206.352"/>
<rect id="platformcage4_40_" x="12083.71" y="3705.283" fill="#535BA2" width="363.416" height="206.352"/>
<rect id="platformcage4_39_" x="11248.342" y="3292.58" fill="#535BA2" width="363.413" height="206.352"/>
<rect id="platformcage4_38_" x="12083.71" y="2879.877" fill="#535BA2" width="363.416" height="206.351"/>
<rect id="platformcage4_37_" x="11248.342" y="2467.174" fill="#535BA2" width="363.413" height="206.352"/>
<rect id="platformcage4_36_" x="12919.074" y="4117.987" fill="#535BA2" width="363.414" height="206.352"/>
<rect id="platformcage4_19_" x="12919.074" y="3292.58" fill="#535BA2" width="363.414" height="206.352"/>
<rect id="platformcage4_18_" x="12919.074" y="2467.174" fill="#535BA2" width="363.414" height="206.352"/>
<rect id="platformcage4_17_" x="12083.709" y="2054.471" fill="#535BA2" width="363.417" height="206.352"/>
<rect id="platformcage4_15_" x="11248.342" y="1641.768" fill="#535BA2" width="363.413" height="206.352"/>
<rect id="platformcage4_14_" x="11248.344" y="1641.768" fill="#535BA2" width="363.413" height="206.352"/>
<rect id="platformcage4_12_" x="12083.713" y="1229.064" fill="#535BA2" width="363.415" height="206.352"/>
<rect id="platformcage4_16_" x="11248.344" y="816.361" fill="#535BA2" width="363.413" height="206.352"/>
<rect id="platformcage4_11_" x="12919.086" y="816.361" fill="#535BA2" width="363.41" height="206.352"/>
<rect id="groundcage2_31_" x="7659.626" y="1224.757" width="835.367" height="305.416"/>
<rect id="groundcage3_89_" x="6824.26" y="1377.466" width="835.367" height="305.416"/>
<rect id="groundcage3_87_" x="9330.357" y="308.509" width="835.366" height="305.416"/>
<rect id="groundcage1_91_" x="13507.19" y="920.281" width="835.365" height="305.416"/>
<rect id="groundcage1_97_" x="13507.19" y="4584.333" width="835.365" height="305.416"/>
<rect id="groundcage1_100_" x="15177.928" y="4889.749" width="835.366" height="305.416"/>
<rect id="groundcage2_12_" x="13507.19" y="4889.749" width="835.365" height="305.416"/>
<rect id="groundcage4_5_" x="14342.56" y="4889.749" width="835.365" height="305.416"/>
<rect id="spadesdown_26_" x="14342.561" y="4853.954" fill="#C94A96" width="361.508" height="35.795"/>
<rect id="spadesdown_25_" x="14704.068" y="4853.954" fill="#C94A96" width="361.508" height="35.795"/>
<rect id="spadesdown_22_" x="15065.576" y="4853.954" fill="#C94A96" width="361.51" height="35.795"/>
<rect id="pillevolutiond_4_" x="14081.887" y="732.883" fill="#9A549C" width="50.684" height="61.855"/>
<rect id="spadesdown_21_" x="9802.312" y="4548.351" fill="#C94A96" width="363.413" height="35.982"/>
<rect id="spadesdown_20_" x="9438.898" y="4548.351" fill="#C94A96" width="363.413" height="35.982"/>
<rect id="spadesdown_19_" x="9075.486" y="4548.351" fill="#C94A96" width="363.413" height="35.982"/>
<rect id="spadesdown_18_" x="8712.072" y="4548.351" fill="#C94A96" width="363.413" height="35.982"/>
<rect id="spadesdown_17_" x="8348.66" y="4548.351" fill="#C94A96" width="363.413" height="35.982"/>
<rect id="spadesdown_16_" x="11836.461" y="4548.351" fill="#C94A96" width="363.411" height="35.982"/>
<rect id="spadesdown_15_" x="12199.871" y="4548.351" fill="#C94A96" width="363.413" height="35.985"/>
<rect id="spadesdown_13_" x="12563.283" y="4548.351" fill="#C94A96" width="363.413" height="35.982"/>
<rect id="spadesdown_12_" x="12926.697" y="4548.351" fill="#C94A96" width="363.413" height="35.982"/>
<rect id="spadesdown_11_" x="13290.109" y="4548.351" fill="#C94A96" width="363.413" height="35.982"/>
<rect id="spadesup_1_" x="10412.977" y="3911.635" fill="#C94A96" width="363.412" height="35.792"/>
<rect id="spadesup_2_" x="11248.342" y="4324.339" fill="#C94A96" width="363.413" height="35.791"/>
<rect id="spadesup_4_" x="8742.242" y="3084.635" fill="#C94A96" width="363.414" height="35.792"/>
<rect id="spadesup_3_" x="9577.607" y="3497.338" fill="#C94A96" width="363.414" height="35.792"/>
<rect id="spadesup_6_" x="8742.242" y="2260.822" fill="#C94A96" width="363.414" height="35.792"/>
<rect id="spadesup_5_" x="9577.607" y="2673.525" fill="#C94A96" width="363.414" height="35.792"/>
<rect id="spadesup_8_" x="10412.977" y="3086.229" fill="#C94A96" width="363.412" height="35.792"/>
<rect id="platformcage4_64_" x="10412.977" y="4530.69" fill="#535BA2" width="363.412" height="206.352"/>
<rect id="spadesup_39_" x="10412.977" y="4737.042" fill="#C94A96" width="363.412" height="35.791"/>
<rect id="spadesup_7_" x="11248.342" y="3498.932" fill="#C94A96" width="363.413" height="35.792"/>
<rect id="spadesup_10_" x="12083.711" y="3911.635" fill="#C94A96" width="363.411" height="35.792"/>
<rect id="spadesup_9_" x="12919.074" y="4324.339" fill="#C94A96" width="363.413" height="35.791"/>
<rect id="spadesup_15_" x="9577.609" y="1849.525" fill="#C94A96" width="363.413" height="35.792"/>
<rect id="spadesup_14_" x="10412.977" y="2262.229" fill="#C94A96" width="363.414" height="35.792"/>
<rect id="spadesup_13_" x="11248.342" y="2674.932" fill="#C94A96" width="363.413" height="35.792"/>
<rect id="spadesup_12_" x="12083.71" y="3087.635" fill="#C94A96" width="363.412" height="35.792"/>
<rect id="spadesup_11_" x="12919.074" y="3500.338" fill="#C94A96" width="363.413" height="35.792"/>
<rect id="spadesup_19_" x="10412.977" y="1435.231" fill="#C94A96" width="363.414" height="35.792"/>
<rect id="spadesup_18_" x="11248.342" y="1847.934" fill="#C94A96" width="363.413" height="35.792"/>
<rect id="spadesup_16_" x="12919.074" y="2673.34" fill="#C94A96" width="363.413" height="35.793"/>
<rect id="spadesup_21_" x="11248.342" y="1022.713" fill="#C94A96" width="363.413" height="35.792"/>
<rect id="spadesup_20_" x="12083.711" y="1435.416" fill="#C94A96" width="363.411" height="35.792"/>
<rect id="spadesup_22_" x="12919.086" y="1022.713" fill="#C94A96" width="363.41" height="35.792"/>
<rect id="spadesup_23_" x="8348.662" y="919.341" fill="#C94A96" width="363.412" height="35.792"/>
<rect id="spadesup_24_" x="8712.074" y="919.341" fill="#C94A96" width="363.412" height="35.792"/>
<rect id="spadesup_26_" x="9075.487" y="919.341" fill="#C94A96" width="363.412" height="35.792"/>
<rect id="spadesup_25_" x="9438.9" y="919.341" fill="#C94A96" width="363.412" height="35.792"/>
<rect id="spadesup_27_" x="9802.312" y="919.341" fill="#C94A96" width="363.412" height="35.792"/>
<rect id="spadesup_32_" x="10165.725" y="308.509" fill="#C94A96" width="363.412" height="35.792"/>
<rect id="spadesup_31_" x="10529.137" y="308.509" fill="#C94A96" width="363.412" height="35.792"/>
<rect id="spadesup_30_" x="10892.55" y="308.509" fill="#C94A96" width="363.412" height="35.792"/>
<rect id="spadesup_29_" x="11255.962" y="308.509" fill="#C94A96" width="363.416" height="35.792"/>
<rect id="spadesup_28_" x="11619.377" y="308.509" fill="#C94A96" width="363.409" height="35.792"/>
<rect id="spadesup_37_" x="11982.787" y="308.509" fill="#C94A96" width="363.412" height="35.792"/>
<rect id="spadesup_36_" x="12346.199" y="308.509" fill="#C94A96" width="363.412" height="35.792"/>
<rect id="spadesup_35_" x="12709.611" y="308.509" fill="#C94A96" width="363.412" height="35.792"/>
<rect id="spadesup_34_" x="13073.024" y="308.509" fill="#C94A96" width="363.412" height="35.792"/>
<rect id="groundcage3_88_" x="7659.626" y="919.341" width="835.367" height="305.416"/>
<rect id="platformcage4_10_" x="12919.074" y="1641.768" fill="#535BA2" width="363.414" height="206.352"/>
<rect id="spadesup_33_" x="12919.074" y="1847.934" fill="#C94A96" width="363.413" height="35.792"/>
<rect id="spadesup_17_" x="12083.714" y="2260.822" fill="#C94A96" width="363.414" height="35.792"/>
<rect id="groundcage1_83_" x="7659.627" y="2141.005" width="835.365" height="305.416"/>
<rect id="platformcage3_36_" x="11475.465" y="5096.102" fill="#DD192C" width="363.414" height="206.352"/>
<rect id="platformcage3_35_" x="11838.881" y="5096.102" fill="#DD192C" width="363.413" height="206.352"/>
<rect id="platformcage3_37_" x="11838.881" y="4889.749" fill="#DD192C" width="363.413" height="206.352"/>
<rect id="pillevolutiond_5_" x="11379.365" y="3973.5" fill="#9A549C" width="50.684" height="61.856"/>
<rect id="pillevolutionb_6_" x="9722.7" y="2328.949" fill="#BD5D32" width="50.686" height="61.857"/>
<rect id="pillevolutiond_6_" x="10569.342" y="1926.442" fill="#9A549C" width="50.684" height="61.855"/>
<rect id="pillevolutiona_1_" x="8051.965" y="1913.729" fill="#4877B5" width="50.686" height="61.854"/>
<rect id="groundcage1_275_" x="1717.468" y="2141.167" width="835.366" height="305.416"/>
<rect id="groundcage3_112_" x="882.102" y="1988.46" width="835.367" height="305.417"/>
<rect id="groundcage1_274_" x="2600.131" y="2446.583" width="835.368" height="305.416"/>
<rect id="groundcage1_273_" x="2600.131" y="2141.168" width="835.368" height="305.415"/>
<rect id="groundcage1_268_" x="1764.764" y="2446.583" width="835.366" height="305.416"/>
<rect id="spadesdown_35_" x="2396.268" y="2410.6" fill="#C94A96" width="363.413" height="35.984"/>
<rect id="groundcage1_267_" x="3435.498" y="2141.17" width="835.367" height="305.416"/>
<rect id="groundcage1_261_" x="4318.161" y="2141.172" width="835.367" height="305.415"/>
<rect id="groundcage1_265_" x="5153.528" y="2141.171" width="835.367" height="305.416"/>
<rect id="groundcage1_113_" x="6824.26" y="2141.005" width="835.368" height="305.416"/>
<rect id="groundcage1_1_" x="5988.896" y="2141.005" width="835.367" height="305.416"/>
<rect id="groundcage3_110_" x="3435.497" y="2446.585" width="835.367" height="305.416"/>
<rect id="groundcage3_111_" x="4318.16" y="2446.587" width="835.367" height="305.416"/>
<rect id="groundcage1_287_" x="3435.497" y="3057.417" width="835.367" height="305.416"/>
<rect id="groundcage4_6_" x="3435.497" y="3515.537" width="835.367" height="305.416"/>
<rect id="groundcage1_288_" x="4318.16" y="3515.537" width="835.367" height="305.416"/>
<rect id="groundcage1_296_" x="1717.467" y="3515.537" width="835.367" height="305.416"/>
<rect id="groundcage1_294_" x="2600.13" y="3515.537" width="835.367" height="305.416"/>
<rect id="groundcage1_292_" x="834.803" y="4126.04" width="835.368" height="305.415"/>
<rect id="spadesdown_33_" x="678.236" y="4090.058" fill="#C94A96" width="363.413" height="35.982"/>
<rect id="groundcage1_330_" x="2200.803" y="4126.04" width="835.367" height="305.415"/>
<rect id="spadesdown_32_" x="2405.098" y="4090.058" fill="#C94A96" width="363.413" height="35.982"/>
<rect id="groundcage3_109_" x="-0.564" y="3362.833" width="835.366" height="305.416"/>
<rect id="groundcage4_7_" x="882.1" y="3515.213" width="835.367" height="305.415"/>
<rect id="groundcage1_337_" x="3917.517" y="4125.759" width="835.368" height="305.415"/>
<rect id="spadesdown_31_" x="4121.812" y="4089.776" fill="#C94A96" width="363.413" height="35.982"/>
<rect id="groundcage1_129_" x="5153.526" y="3515.542" width="835.367" height="305.416"/>
<rect id="groundcage3_108_" x="6036.189" y="3668.251" width="835.367" height="305.415"/>
<rect id="spadesdown_34_" x="5920.172" y="3784.975" fill="#C94A96" width="363.414" height="35.983"/>
<rect id="pillevolutionb_1_" x="10594.683" y="4400.696" fill="#BD5D32" width="50.686" height="61.857"/>
<rect id="pillevolutionb_7_" x="10541.596" y="5240.596" fill="#BD5D32" width="50.686" height="61.857"/>
<rect id="shadows_7_" x="8749.873" y="5701.488" fill="#686868" width="2487.6" height="1989.326"/>
<rect id="groundcage3_19_" x="2647.439" y="9165.573" width="835.366" height="305.416"/>
<rect id="groundcage3_18_" x="2647.439" y="8860.157" width="835.366" height="305.416"/>
<rect id="groundcage3_17_" x="2647.439" y="8554.741" width="835.366" height="305.416"/>
<rect id="groundcage3_16_" x="2647.439" y="8249.325" width="835.366" height="305.416"/>
<rect id="groundcage3_23_" x="4318.173" y="10387.237" width="835.366" height="305.416"/>
<rect id="groundcage3_22_" x="4318.173" y="10081.821" width="835.366" height="305.416"/>
<rect id="groundcage3_21_" x="4318.173" y="9776.405" width="835.366" height="305.416"/>
<rect id="groundcage3_20_" x="4318.173" y="9470.989" width="835.366" height="305.416"/>
<rect id="groundcage3_27_" x="4318.173" y="9165.573" width="835.366" height="305.416"/>
<rect id="groundcage3_26_" x="4318.173" y="8860.157" width="835.366" height="305.416"/>
<rect id="groundcage3_25_" x="4318.173" y="8554.741" width="835.366" height="305.416"/>
<rect id="groundcage3_24_" x="4318.173" y="8249.325" width="835.366" height="305.416"/>
<rect id="groundcage3_31_" x="6824.271" y="11303.485" width="835.366" height="305.416"/>
<rect id="groundcage3_30_" x="6824.271" y="10998.069" width="835.366" height="305.416"/>
<rect id="groundcage3_29_" x="6824.271" y="10692.653" width="835.366" height="305.416"/>
<rect id="groundcage3_28_" x="6824.271" y="10387.237" width="835.366" height="305.416"/>
<rect id="groundcage3_35_" x="6824.271" y="10081.821" width="835.366" height="305.416"/>
<rect id="groundcage3_34_" x="6824.271" y="9776.405" width="835.366" height="305.416"/>
<rect id="groundcage3_33_" x="6824.271" y="9470.989" width="835.366" height="305.416"/>
<rect id="groundcage3_32_" x="6824.271" y="9165.573" width="835.366" height="305.416"/>
<rect id="groundcage3_38_" x="6824.271" y="8860.157" width="835.366" height="305.416"/>
<rect id="groundcage3_37_" x="6824.271" y="8554.741" width="835.366" height="305.416"/>
<rect id="groundcage3_36_" x="6824.271" y="8249.325" width="835.366" height="305.416"/>
<rect id="groundcage1_7_" x="3482.807" y="7638.488" width="835.364" height="305.416"/>
<rect id="groundcage1_8_" x="4318.174" y="7638.488" width="835.364" height="305.416"/>
<rect id="groundcage1_10_" x="1812.074" y="7638.488" width="835.364" height="305.416"/>
<rect id="groundcage1_9_" x="2647.441" y="7638.488" width="835.364" height="305.416"/>
<rect id="characterstart_4_" x="3718.423" y="11201.695" fill="#7CD2E2" width="85.193" height="403.363"/>
<rect id="groundcage3_48_" x="1812.073" y="7336.064" width="835.366" height="305.416"/>
<rect id="groundcage3_47_" x="1812.073" y="7030.648" width="835.366" height="305.416"/>
<rect id="groundcage3_46_" x="1812.073" y="6725.232" width="835.366" height="305.416"/>
<rect id="groundcage3_45_" x="1812.073" y="6419.816" width="835.366" height="305.416"/>
<rect id="groundcage3_44_" x="1812.073" y="6114.4" width="835.366" height="305.416"/>
<rect id="groundcage3_43_" x="1812.073" y="5808.984" width="835.366" height="305.416"/>
<rect id="groundcage3_42_" x="1812.073" y="5503.568" width="835.366" height="305.416"/>
<rect id="groundcage3_41_" x="1812.073" y="5198.152" width="835.366" height="305.416"/>
<rect id="groundcage3_51_" x="5153.532" y="6209.142" width="835.366" height="305.416"/>
<rect id="groundcage3_50_" x="5153.532" y="5903.726" width="835.366" height="305.416"/>
<rect id="groundcage3_49_" x="5153.532" y="5598.31" width="835.366" height="305.416"/>
<rect id="groundcage3_39_" x="5153.532" y="5292.894" width="835.366" height="305.416"/>
<rect id="groundcage3_57_" x="14342.564" y="7638.493" width="835.366" height="305.416"/>
<rect id="groundcage3_56_" x="14342.564" y="7333.077" width="835.366" height="305.416"/>
<rect id="groundcage3_55_" x="14342.564" y="7027.661" width="835.366" height="305.416"/>
<rect id="groundcage3_54_" x="14342.564" y="6722.245" width="835.366" height="305.416"/>
<rect id="groundcage3_53_" x="14342.564" y="6416.829" width="835.366" height="305.416"/>
<rect id="groundcage3_52_" x="14342.564" y="6111.413" width="835.366" height="305.416"/>
<rect id="groundcage3_60_" x="14342.564" y="5805.997" width="835.366" height="305.416"/>
<rect id="groundcage3_59_" x="14342.564" y="5500.581" width="835.366" height="305.416"/>
<rect id="groundcage3_58_" x="14342.564" y="5195.165" width="835.366" height="305.416"/>
<rect id="groundcage3_66_" x="15177.928" y="4584.333" width="835.366" height="305.416"/>
<rect id="groundcage3_65_" x="15177.928" y="4278.917" width="835.366" height="305.416"/>
<rect id="groundcage3_64_" x="15177.928" y="3973.5" width="835.366" height="305.416"/>
<rect id="groundcage3_63_" x="15177.928" y="3668.084" width="835.366" height="305.416"/>
<rect id="groundcage3_62_" x="15177.928" y="3362.668" width="835.366" height="305.416"/>
<rect id="groundcage3_61_" x="15177.928" y="3057.252" width="835.366" height="305.416"/>
<rect id="groundcage3_72_" x="15177.928" y="2751.837" width="835.366" height="305.416"/>
<rect id="groundcage3_71_" x="15177.928" y="2446.421" width="835.366" height="305.416"/>
<rect id="groundcage3_70_" x="15177.928" y="2141.005" width="835.366" height="305.416"/>
<rect id="groundcage3_69_" x="15177.928" y="1835.589" width="835.366" height="305.416"/>
<rect id="groundcage3_68_" x="15177.928" y="1530.173" width="835.366" height="305.416"/>
<rect id="groundcage3_67_" x="15177.928" y="1224.757" width="835.366" height="305.416"/>
<rect id="groundcage3_75_" x="15177.928" y="919.341" width="835.366" height="305.416"/>
<rect id="groundcage3_74_" x="15177.928" y="613.925" width="835.366" height="305.416"/>
<rect id="groundcage3_73_" x="15177.928" y="308.509" width="835.366" height="305.416"/>
<rect id="groundcage3_81_" x="13507.189" y="4279.857" width="835.366" height="305.416"/>
<rect id="groundcage3_80_" x="13507.189" y="3974.441" width="835.366" height="305.416"/>
<rect id="groundcage3_79_" x="13507.189" y="3669.025" width="835.366" height="305.416"/>
<rect id="groundcage3_78_" x="13507.189" y="3363.609" width="835.366" height="305.416"/>
<rect id="groundcage3_77_" x="13507.189" y="3058.193" width="835.366" height="305.416"/>
<rect id="groundcage3_76_" x="13507.189" y="2752.777" width="835.366" height="305.416"/>
<rect id="groundcage3_84_" x="13507.189" y="2447.361" width="835.366" height="305.416"/>
<rect id="groundcage3_83_" x="13507.189" y="2141.945" width="835.366" height="305.416"/>
<rect id="groundcage3_82_" x="13507.189" y="1836.529" width="835.366" height="305.416"/>
<rect id="groundcage3_86_" x="13507.189" y="1531.113" width="835.366" height="305.416"/>
<rect id="groundcage3_85_" x="13507.189" y="1225.697" width="835.366" height="305.416"/>
<rect id="groundcage3_92_" x="7659.626" y="3057.415" width="835.366" height="305.416"/>
<rect id="groundcage3_91_" x="7659.626" y="2751.999" width="835.366" height="305.416"/>
<rect id="groundcage3_90_" x="7659.626" y="2446.583" width="835.366" height="305.416"/>
<rect id="groundcage3_95_" x="7659.626" y="3973.663" width="835.366" height="305.416"/>
<rect id="groundcage3_96_" x="7659.626" y="4279.079" width="835.366" height="305.416"/>
<rect id="groundcage3_94_" x="7659.626" y="3668.247" width="835.366" height="305.416"/>
<rect id="groundcage3_93_" x="7659.626" y="3362.831" width="835.366" height="305.416"/>
<rect id="groundcage3_97_" x="4318.16" y="2751.999" width="835.366" height="305.416"/>
<rect id="groundcage3_98_" x="3435.498" y="2751.999" width="835.366" height="305.416"/>
<rect id="groundcage3_100_" x="-0.564" y="3667.92" width="835.366" height="305.416"/>
<rect id="groundcage3_101_" x="-0.564" y="3973.332" width="835.366" height="305.416"/>
<rect id="groundcage3_102_" x="882.1" y="3820.628" width="835.366" height="305.416"/>
<rect id="groundcage3_103_" x="1717.467" y="3820.628" width="835.366" height="305.416"/>
<rect id="groundcage3_104_" x="2600.13" y="3820.344" width="835.366" height="305.416"/>
<rect id="groundcage3_105_" x="3435.498" y="3820.344" width="835.366" height="305.416"/>
<rect id="groundcage3_106_" x="4318.16" y="3820.344" width="835.366" height="305.416"/>
<rect id="groundcage4" x="5200.823" y="3820.958" width="835.366" height="305.416"/>
<rect id="groundcage3_107_" x="6036.19" y="3362.834" width="835.366" height="305.416"/>
<rect id="groundcage2_1_" x="2647.441" y="7943.909" width="835.365" height="305.416"/>
<rect id="groundcage2_3_" x="1812.074" y="7943.909" width="835.365" height="305.416"/>
<rect id="groundcage2_2_" x="976.708" y="7943.909" width="835.365" height="305.416"/>
<rect id="groundcage2_4_" x="141.342" y="7943.909" width="835.365" height="305.416"/>
<rect id="groundcage2_5_" x="1812.074" y="4892.736" width="835.365" height="305.416"/>
<rect id="groundcage2_6_" x="2647.44" y="4892.736" width="835.365" height="305.416"/>
<rect id="groundcage2_7_" x="3482.805" y="4892.736" width="835.365" height="305.416"/>
<rect id="groundcage2_8_" x="4318.17" y="4892.736" width="835.365" height="305.416"/>
<rect id="groundcage2_9_" x="5153.533" y="4682.06" width="835.364" height="305.416"/>
<rect id="groundcage2_10_" x="6824.262" y="4584.333" width="835.364" height="305.416"/>
<rect id="groundcage2_11_" x="5988.896" y="4584.333" width="835.364" height="305.416"/>
<rect id="groundcage2_13_" x="6824.262" y="1682.881" width="835.364" height="305.416"/>
<rect id="groundcage2_14_" x="5988.897" y="1682.882" width="835.364" height="305.415"/>
<rect id="groundcage2_16_" x="5153.532" y="1682.882" width="835.364" height="305.416"/>
<rect id="groundcage2_15_" x="4318.167" y="1682.882" width="835.364" height="305.415"/>
<rect id="groundcage2_20_" x="3482.803" y="1682.882" width="835.364" height="305.416"/>
<rect id="groundcage2_19_" x="2647.438" y="1682.882" width="835.364" height="305.415"/>
<rect id="groundcage2_18_" x="1812.073" y="1682.882" width="835.364" height="305.416"/>
<rect id="groundcage2_17_" x="976.708" y="1682.883" width="835.364" height="305.415"/>
<rect id="groundcage2_23_" x="5988.893" y="3057.417" width="835.364" height="305.415"/>
<rect id="groundcage2_22_" x="5153.528" y="3057.417" width="835.364" height="305.416"/>
<rect id="groundcage2_21_" x="4318.163" y="3057.417" width="835.364" height="305.416"/>
<rect id="groundcage2_26_" x="2600.13" y="3057.417" width="835.364" height="305.415"/>
<rect id="groundcage2_25_" x="1764.766" y="3057.417" width="835.364" height="305.416"/>
<rect id="groundcage2_24_" x="929.401" y="3057.417" width="835.364" height="305.416"/>
<rect id="groundcage2_27_" x="94.037" y="3057.417" width="835.364" height="305.416"/>
<rect id="groundcage2_30_" x="9330.354" y="613.925" width="835.365" height="305.415"/>
<rect id="groundcage2_29_" x="8494.99" y="613.925" width="835.364" height="305.416"/>
<rect id="groundcage2_28_" x="7659.626" y="613.925" width="835.363" height="305.415"/>
<rect id="groundcage2_34_" x="11001.087" y="3.093" width="835.365" height="305.415"/>
<rect id="groundcage2_33_" x="10165.723" y="3.093" width="835.364" height="305.416"/>
<rect id="groundcage2_32_" x="9330.358" y="3.093" width="835.363" height="305.415"/>
<rect id="groundcage2_37_" x="13507.18" y="3.093" width="835.365" height="305.415"/>
<rect id="groundcage2_36_" x="12671.816" y="3.093" width="835.364" height="305.416"/>
<rect id="groundcage2_35_" x="11836.451" y="3.093" width="835.363" height="305.415"/>
<rect id="groundcage2_39_" x="15177.91" y="3.094" width="835.364" height="305.416"/>
<rect id="groundcage2_38_" x="14342.545" y="3.094" width="835.363" height="305.415"/>
</svg>
