<?xml version="1.0" encoding="utf-8"?>
<!-- Generator: Adobe Illustrator 15.1.0, SVG Export Plug-In . SVG Version: 6.00 Build 0)  -->
<!DOCTYPE svg PUBLIC "-//W3C//DTD SVG 1.1//EN" "http://www.w3.org/Graphics/SVG/1.1/DTD/svg11.dtd">
<svg version="1.1" id="Calque_1" xmlns="http://www.w3.org/2000/svg" xmlns:xlink="http://www.w3.org/1999/xlink" x="0px" y="0px"
	 width="6023.811px" height="4388.609px" viewBox="0 0 6023.811 4388.609" enable-background="new 0 0 6023.811 4388.609"
	 xml:space="preserve">
<rect id="end_3_" x="5076.19" y="663.608" fill="#FBD849" stroke="#000000" stroke-miterlimit="10" width="150.381" height="241.41"/>
<rect id="groundcage2_16_" x="6.516" y="3801.979" stroke="#000000" stroke-miterlimit="10" width="1001.796" height="586.627"/>
<rect id="groundcage3_9_" x="1008.312" y="3801.975" stroke="#000000" stroke-miterlimit="10" width="1001.797" height="586.635"/>
<rect id="groundcage1_11_" x="2010.108" y="3801.979" stroke="#000000" stroke-miterlimit="10" width="1001.796" height="586.627"/>
<rect id="groundcage3_8_" x="3011.904" y="3801.975" stroke="#000000" stroke-miterlimit="10" width="1001.797" height="586.635"/>
<rect id="groundcage2_15_" x="4013.701" y="3801.979" stroke="#000000" stroke-miterlimit="10" width="1001.796" height="586.627"/>
<rect id="spades_14_" x="1312.356" y="3759.137" fill="#C94A96" stroke="#000000" stroke-miterlimit="10" width="576.385" height="42.842"/>
<rect id="platformcage1_5_" x="928.715" y="3560.562" fill="#6FBF58" stroke="#000000" stroke-miterlimit="10" width="383.642" height="241.41"/>
<rect id="platformcage2_1_" x="1888.741" y="3319.152" fill="#6FBF58" stroke="#000000" stroke-miterlimit="10" width="383.372" height="482.826"/>
<rect id="spades_13_" x="2272.113" y="3759.137" fill="#C94A96" stroke="#000000" stroke-miterlimit="10" width="576.384" height="42.842"/>
<rect id="platformcage4_1_" x="2848.497" y="2353.498" fill="#6FBF58" stroke="#000000" stroke-miterlimit="10" width="383.372" height="1448.479"/>
<rect id="pillevolutiona_2_" x="2050.091" y="3197.182" fill="#4877B5" stroke="#000000" stroke-miterlimit="10" width="60.671" height="74.041"/>
<rect id="characterstart_4_" x="282.481" y="3319.154" fill="#7CD2E2" stroke="#000000" stroke-miterlimit="10" width="101.975" height="482.822"/>
<rect id="spades_12_" x="3231.869" y="3759.137" fill="#C94A96" stroke="#000000" stroke-miterlimit="10" width="576.384" height="42.842"/>
<rect id="platformcage5_1_" x="3808.253" y="905.019" fill="#6FBF58" stroke="#000000" stroke-miterlimit="10" width="383.372" height="2896.959"/>
<rect id="platformcage6_3_" x="4768.009" y="905.018" fill="#6FBF58" stroke="#000000" stroke-miterlimit="10" width="383.372" height="2896.958"/>
<rect id="spades_11_" x="4191.625" y="3759.137" fill="#C94A96" stroke="#000000" stroke-miterlimit="10" width="576.384" height="42.842"/>
<rect id="groundcage2_14_" x="5015.497" y="3801.979" stroke="#000000" stroke-miterlimit="10" width="1001.796" height="586.627"/>
<rect id="platformcage6_2_" x="5151.381" y="905.018" fill="#6FBF58" stroke="#000000" stroke-miterlimit="10" width="383.372" height="2896.958"/>
<rect id="spades_10_" x="5534.753" y="3759.137" fill="#C94A96" stroke="#000000" stroke-miterlimit="10" width="482.54" height="42.842"/>
</svg>
