<?xml version="1.0" encoding="utf-8"?>
<!-- Generator: Adobe Illustrator 15.1.0, SVG Export Plug-In . SVG Version: 6.00 Build 0)  -->
<!DOCTYPE svg PUBLIC "-//W3C//DTD SVG 1.1//EN" "http://www.w3.org/Graphics/SVG/1.1/DTD/svg11.dtd">
<svg version="1.1" id="Calque_1" xmlns="http://www.w3.org/2000/svg" xmlns:xlink="http://www.w3.org/1999/xlink" x="0px" y="0px"
	 width="6023.811px" height="4388.609px" viewBox="0 0 6023.811 4388.609" enable-background="new 0 0 6023.811 4388.609"
	 xml:space="preserve">
<rect id="groundcage2_16_" x="6.68" y="3789.36" stroke="#000000" stroke-miterlimit="10" width="1001.796" height="586.627"/>
<rect id="groundcage3_9_" x="1008.476" y="3789.356" stroke="#000000" stroke-miterlimit="10" width="1001.797" height="586.635"/>
<rect id="groundcage1_11_" x="2010.272" y="3789.36" stroke="#000000" stroke-miterlimit="10" width="1001.796" height="586.627"/>
<rect id="groundcage3_8_" x="3012.068" y="3789.356" stroke="#000000" stroke-miterlimit="10" width="1001.797" height="586.635"/>
<rect id="groundcage2_15_" x="4013.865" y="3789.36" stroke="#000000" stroke-miterlimit="10" width="1001.795" height="586.627"/>
<rect id="groundcage2_14_" x="5015.66" y="3789.36" stroke="#000000" stroke-miterlimit="10" width="1001.797" height="586.627"/>
<rect id="platformcage1_5_" x="2848.526" y="2340.898" fill="#6FBF58" stroke="#000000" stroke-miterlimit="10" width="383.642" height="241.409"/>
<rect id="platformcage2_1_" x="1888.769" y="3547.946" fill="#9BCB56" stroke="#000000" stroke-miterlimit="10" width="383.643" height="241.41"/>
<rect id="platformcage2_13_" x="1888.769" y="3306.536" fill="#9BCB56" stroke="#000000" stroke-miterlimit="10" width="383.643" height="241.41"/>
<rect id="platformcage2_22_" x="2848.526" y="3306.538" fill="#9BCB56" stroke="#000000" stroke-miterlimit="10" width="383.643" height="241.41"/>
<rect id="platformcage2_24_" x="2848.526" y="2823.718" fill="#9BCB56" stroke="#000000" stroke-miterlimit="10" width="383.643" height="241.41"/>
<rect id="platformcage2_27_" x="3808.282" y="892.402" fill="#9BCB56" stroke="#000000" stroke-miterlimit="10" width="383.643" height="241.41"/>
<rect id="platformcage2_29_" x="3808.282" y="1133.812" fill="#9BCB56" stroke="#000000" stroke-miterlimit="10" width="383.643" height="241.41"/>
<rect id="platformcage1_1_" x="2848.526" y="2582.308" fill="#6FBF58" stroke="#000000" stroke-miterlimit="10" width="383.642" height="241.41"/>
<rect id="platformcage1_11_" x="2848.526" y="3065.128" fill="#6FBF58" stroke="#000000" stroke-miterlimit="10" width="383.642" height="241.41"/>
<rect id="platformcage1_12_" x="2848.526" y="3547.946" fill="#6FBF58" stroke="#000000" stroke-miterlimit="10" width="383.642" height="241.41"/>
<rect id="platformcage2_11_" x="3808.282" y="1375.222" fill="#9BCB56" stroke="#000000" stroke-miterlimit="10" width="383.643" height="241.41"/>
<rect id="platformcage2_9_" x="3808.282" y="1616.632" fill="#9BCB56" stroke="#000000" stroke-miterlimit="10" width="383.643" height="241.409"/>
<rect id="platformcage1_14_" x="3808.282" y="1858.042" fill="#6FBF58" stroke="#000000" stroke-miterlimit="10" width="383.642" height="241.411"/>
<rect id="platformcage1_13_" x="3808.282" y="2099.453" fill="#6FBF58" stroke="#000000" stroke-miterlimit="10" width="383.642" height="241.411"/>
<rect id="platformcage2_23_" x="3808.282" y="2582.272" fill="#9BCB56" stroke="#000000" stroke-miterlimit="10" width="383.643" height="241.41"/>
<rect id="platformcage1_15_" x="3808.282" y="2340.863" fill="#6FBF58" stroke="#000000" stroke-miterlimit="10" width="383.642" height="241.409"/>
<rect id="platformcage2_25_" x="3808.282" y="3065.093" fill="#9BCB56" stroke="#000000" stroke-miterlimit="10" width="383.643" height="241.41"/>
<rect id="platformcage1_16_" x="3808.282" y="2823.683" fill="#6FBF58" stroke="#000000" stroke-miterlimit="10" width="383.642" height="241.41"/>
<rect id="platformcage2_26_" x="3808.282" y="3306.536" fill="#9BCB56" stroke="#000000" stroke-miterlimit="10" width="383.643" height="241.41"/>
<rect id="platformcage1_17_" x="3808.283" y="3547.946" fill="#6FBF58" stroke="#000000" stroke-miterlimit="10" width="383.642" height="241.41"/>
<rect id="platformcage2_14_" x="4768.037" y="1133.812" fill="#9BCB56" stroke="#000000" stroke-miterlimit="10" width="383.643" height="241.41"/>
<rect id="platformcage2_15_" x="5151.68" y="1133.812" fill="#9BCB56" stroke="#000000" stroke-miterlimit="10" width="383.643" height="241.41"/>
<rect id="platformcage2_28_" x="5151.68" y="1375.222" fill="#9BCB56" stroke="#000000" stroke-miterlimit="10" width="383.643" height="241.41"/>
<rect id="platformcage1_20_" x="4768.039" y="1375.222" fill="#6FBF58" stroke="#000000" stroke-miterlimit="10" width="383.641" height="241.41"/>
<rect id="platformcage1_21_" x="5151.68" y="1616.632" fill="#6FBF58" stroke="#000000" stroke-miterlimit="10" width="383.643" height="241.409"/>
<rect id="platformcage2_30_" x="4768.037" y="892.402" fill="#9BCB56" stroke="#000000" stroke-miterlimit="10" width="383.643" height="241.41"/>
<rect id="platformcage1_19_" x="4768.037" y="1616.632" fill="#6FBF58" stroke="#000000" stroke-miterlimit="10" width="383.643" height="241.409"/>
<rect id="platformcage1_22_" x="4768.037" y="1858.042" fill="#6FBF58" stroke="#000000" stroke-miterlimit="10" width="383.643" height="241.411"/>
<rect id="platformcage2_31_" x="5151.68" y="1858.042" fill="#9BCB56" stroke="#000000" stroke-miterlimit="10" width="383.643" height="241.411"/>
<rect id="platformcage2_32_" x="5151.68" y="2340.863" fill="#9BCB56" stroke="#000000" stroke-miterlimit="10" width="383.643" height="241.409"/>
<rect id="platformcage2_33_" x="5151.68" y="2099.453" fill="#9BCB56" stroke="#000000" stroke-miterlimit="10" width="383.643" height="241.411"/>
<rect id="platformcage2_34_" x="4768.037" y="2099.453" fill="#9BCB56" stroke="#000000" stroke-miterlimit="10" width="383.643" height="241.411"/>
<rect id="platformcage1_23_" x="4768.037" y="2340.863" fill="#6FBF58" stroke="#000000" stroke-miterlimit="10" width="383.643" height="241.409"/>
<rect id="platformcage1_24_" x="5151.68" y="2582.272" fill="#6FBF58" stroke="#000000" stroke-miterlimit="10" width="383.643" height="241.41"/>
<rect id="platformcage1_25_" x="4768.037" y="2582.272" fill="#6FBF58" stroke="#000000" stroke-miterlimit="10" width="383.643" height="241.41"/>
<rect id="platformcage1_26_" x="5151.68" y="2823.683" fill="#6FBF58" stroke="#000000" stroke-miterlimit="10" width="383.643" height="241.41"/>
<rect id="platformcage2_35_" x="5151.68" y="3547.946" fill="#9BCB56" stroke="#000000" stroke-miterlimit="10" width="383.643" height="241.41"/>
<rect id="platformcage2_36_" x="4768.037" y="3547.946" fill="#9BCB56" stroke="#000000" stroke-miterlimit="10" width="383.643" height="241.41"/>
<rect id="platformcage2_37_" x="5151.68" y="3306.536" fill="#9BCB56" stroke="#000000" stroke-miterlimit="10" width="383.643" height="241.41"/>
<rect id="platformcage2_38_" x="5151.68" y="3065.093" fill="#9BCB56" stroke="#000000" stroke-miterlimit="10" width="383.643" height="241.41"/>
<rect id="platformcage1_18_" x="5151.68" y="892.402" fill="#6FBF58" stroke="#000000" stroke-miterlimit="10" width="383.643" height="241.41"/>
<rect id="platformcage1_27_" x="4768.037" y="3306.536" fill="#6FBF58" stroke="#000000" stroke-miterlimit="10" width="383.643" height="241.41"/>
<rect id="platformcage1_28_" x="4768.037" y="3065.093" fill="#6FBF58" stroke="#000000" stroke-miterlimit="10" width="383.643" height="241.41"/>
<rect id="platformcage1_29_" x="4768.039" y="2823.718" fill="#6FBF58" stroke="#000000" stroke-miterlimit="10" width="383.641" height="241.41"/>
<rect id="pillevolutionb_1_" x="2050.255" y="3184.565" fill="#FB913B" stroke="#000000" stroke-miterlimit="10" width="60.671" height="74.041"/>
<rect id="characterstart_4_" x="282.646" y="3306.536" fill="#7CD2E2" stroke="#000000" stroke-miterlimit="10" width="101.975" height="482.822"/>
<rect id="spades_14_" x="1312.521" y="3746.519" fill="#C94A96" stroke="#000000" stroke-miterlimit="10" width="576.385" height="42.842"/>
<rect id="spades_13_" x="2272.277" y="3746.519" fill="#C94A96" stroke="#000000" stroke-miterlimit="10" width="576.384" height="42.842"/>
<rect id="spades_12_" x="3232.033" y="3746.519" fill="#C94A96" stroke="#000000" stroke-miterlimit="10" width="576.384" height="42.842"/>
<rect id="spades_11_" x="4191.789" y="3746.519" fill="#C94A96" stroke="#000000" stroke-miterlimit="10" width="576.383" height="42.842"/>
<rect id="spades_10_" x="5534.916" y="3746.519" fill="#C94A96" stroke="#000000" stroke-miterlimit="10" width="482.541" height="42.842"/>
<rect id="end_3_" x="5076.49" y="641.57" fill="#FBD849" stroke="#000000" stroke-miterlimit="10" width="150.381" height="241.41"/>
</svg>
