<?xml version="1.0" encoding="utf-8"?>
<!-- Generator: Adobe Illustrator 15.1.0, SVG Export Plug-In . SVG Version: 6.00 Build 0)  -->
<!DOCTYPE svg PUBLIC "-//W3C//DTD SVG 1.1//EN" "http://www.w3.org/Graphics/SVG/1.1/DTD/svg11.dtd">
<svg version="1.1" id="Calque_1" xmlns="http://www.w3.org/2000/svg" xmlns:xlink="http://www.w3.org/1999/xlink" x="0px" y="0px"
	 width="9366.79px" height="4312.87px" viewBox="0 0 9366.79 4312.87" enable-background="new 0 0 9366.79 4312.87"
	 xml:space="preserve">
<rect id="spades_15_" x="4581.785" y="3565.059" fill="#C94A96" stroke="#000000" stroke-miterlimit="10" width="435" height="42.842"/>
<rect id="pillevolutiona_2_" x="2910.642" y="3705.888" fill="#4877B5" stroke="#000000" stroke-miterlimit="10" width="60.671" height="74.041"/>
<rect id="characterstart_3_" x="275.966" y="3464.799" fill="#7CD2E2" stroke="#000000" stroke-miterlimit="10" width="101.975" height="482.822"/>
<rect id="pillevolutionb_2_" x="3396.4" y="3705.888" fill="#BD5D32" stroke="#000000" stroke-miterlimit="10" width="60.671" height="74.041"/>
<rect id="door_1_" x="7952.655" y="-0.014" fill="#BD2329" stroke="#000000" stroke-miterlimit="10" width="228.092" height="1137.915"/>
<rect id="end_4_" x="9074.099" y="896.491" fill="#FBD849" stroke="#000000" stroke-miterlimit="10" width="150.381" height="241.41"/>
<rect id="trigger" x="6394.734" y="3925.337" fill="#F76A34" stroke="#000000" stroke-miterlimit="10" width="289.105" height="21.421"/>
<rect id="groundcage1_90_" x="1999.844" y="3947.297" stroke="#000000" stroke-miterlimit="10" width="999.922" height="365.581"/>
<rect id="groundcage1_89_" x="2999.766" y="3947.298" stroke="#000000" stroke-miterlimit="10" width="999.922" height="365.581"/>
<rect id="groundcage1_88_" x="3999.688" y="3947.297" stroke="#000000" stroke-miterlimit="10" width="999.922" height="365.581"/>
<rect id="groundcage1_97_" x="4999.609" y="3947.298" stroke="#000000" stroke-miterlimit="10" width="999.922" height="365.581"/>
<rect id="groundcage1_96_" x="5999.531" y="3947.299" stroke="#000000" stroke-miterlimit="10" width="999.922" height="365.581"/>
<rect id="groundcage1_95_" x="6999.453" y="3854.899" stroke="#000000" stroke-miterlimit="10" width="999.922" height="365.581"/>
<rect id="spades_2_" x="5451.785" y="3565.059" fill="#C94A96" stroke="#000000" stroke-miterlimit="10" width="435.001" height="42.842"/>
<rect id="platformcage1_81_" x="5016.785" y="3360.9" fill="#70BF58" stroke="#000000" stroke-miterlimit="10" width="435" height="247"/>
<rect id="platformcage1_83_" x="5016.785" y="2619.901" fill="#70BF58" stroke="#000000" stroke-miterlimit="10" width="435" height="247"/>
<rect id="platformcage2_20_" x="5016.785" y="3113.901" fill="#9BCB56" stroke="#000000" stroke-miterlimit="10" width="435" height="247"/>
<rect id="platformcage2_21_" x="5016.785" y="2866.901" fill="#9BCB56" stroke="#000000" stroke-miterlimit="10" width="435" height="247"/>
<rect id="platformcage2_30_" x="5016.785" y="2372.901" fill="#9BCB56" stroke="#000000" stroke-miterlimit="10" width="435" height="247"/>
<rect id="platformcage1_46_" x="5886.787" y="3360.901" fill="#70BF58" stroke="#000000" stroke-miterlimit="10" width="435" height="247"/>
<rect id="platformcage1_47_" x="5886.787" y="3113.901" fill="#70BF58" stroke="#000000" stroke-miterlimit="10" width="435" height="247"/>
<rect id="platformcage1_54_" x="5886.787" y="2619.901" fill="#70BF58" stroke="#000000" stroke-miterlimit="10" width="435" height="247"/>
<rect id="platformcage2_39_" x="5886.787" y="2866.901" fill="#9BCB56" stroke="#000000" stroke-miterlimit="10" width="435" height="247"/>
<rect id="platformcage1_58_" x="5886.787" y="2372.901" fill="#70BF58" stroke="#000000" stroke-miterlimit="10" width="435" height="247"/>
<rect id="platformcage1_66_" x="5886.785" y="2125.901" fill="#70BF58" stroke="#000000" stroke-miterlimit="10" width="435.001" height="247"/>
<rect id="platformcage1_59_" x="5886.787" y="1631.901" fill="#70BF58" stroke="#000000" stroke-miterlimit="10" width="435" height="247"/>
<rect id="platformcage2_40_" x="5886.787" y="1878.901" fill="#9BCB56" stroke="#000000" stroke-miterlimit="10" width="435" height="247"/>
<rect id="platformcage1_60_" x="5886.787" y="1384.901" fill="#70BF58" stroke="#000000" stroke-miterlimit="10" width="435" height="247"/>
<rect id="spades_5_" x="6321.787" y="3565.059" fill="#C94A96" stroke="#000000" stroke-miterlimit="10" width="435" height="42.842"/>
<rect id="platformcage1_42_" x="6756.787" y="3360.901" fill="#70BF58" stroke="#000000" stroke-miterlimit="10" width="435" height="247"/>
<rect id="platformcage1_30_" x="6756.787" y="2866.901" fill="#70BF58" stroke="#000000" stroke-miterlimit="10" width="435" height="247"/>
<rect id="platformcage2_44_" x="6756.787" y="3113.901" fill="#9BCB56" stroke="#000000" stroke-miterlimit="10" width="435" height="247"/>
<rect id="platformcage1_32_" x="6756.789" y="2619.901" fill="#70BF58" stroke="#000000" stroke-miterlimit="10" width="435" height="247"/>
<rect id="platformcage1_31_" x="6756.787" y="2372.901" fill="#70BF58" stroke="#000000" stroke-miterlimit="10" width="435.001" height="247"/>
<rect id="platformcage2_41_" x="6756.789" y="2125.901" fill="#9BCB56" stroke="#000000" stroke-miterlimit="10" width="435" height="247"/>
<rect id="platformcage1_34_" x="6756.789" y="1878.901" fill="#70BF58" stroke="#000000" stroke-miterlimit="10" width="435" height="247"/>
<rect id="platformcage1_33_" x="6756.787" y="1631.901" fill="#70BF58" stroke="#000000" stroke-miterlimit="10" width="435.001" height="247"/>
<rect id="platformcage2_42_" x="6756.788" y="1137.901" fill="#9BCB56" stroke="#000000" stroke-miterlimit="10" width="435" height="247"/>
<rect id="platformcage1_35_" x="7191.787" y="1137.901" fill="#70BF58" stroke="#000000" stroke-miterlimit="10" width="435" height="247"/>
<rect id="platformcage1_36_" x="7626.788" y="1137.901" fill="#70BF58" stroke="#000000" stroke-miterlimit="10" width="435" height="247"/>
<rect id="platformcage2_43_" x="8061.788" y="1137.901" fill="#9BCB56" stroke="#000000" stroke-miterlimit="10" width="435" height="247"/>
<rect id="platformcage1_38_" x="8496.788" y="1137.901" fill="#70BF58" stroke="#000000" stroke-miterlimit="10" width="435" height="247"/>
<rect id="platformcage1_37_" x="8931.79" y="1137.901" fill="#70BF58" stroke="#000000" stroke-miterlimit="10" width="435" height="247"/>
<rect id="platformcage2_45_" x="5886.786" y="1137.901" fill="#9BCB56" stroke="#000000" stroke-miterlimit="10" width="435" height="247"/>
<rect id="platformcage2_46_" x="5016.785" y="2125.902" fill="#9BCB56" stroke="#000000" stroke-miterlimit="10" width="435" height="247"/>
<rect id="platformcage2_49_" x="6756.789" y="1384.901" fill="#9BCB56" stroke="#000000" stroke-miterlimit="10" width="435" height="247"/>
<rect id="platformcage2_53_" x="7626.787" y="1384.901" fill="#9BCB56" stroke="#000000" stroke-miterlimit="10" width="435" height="247"/>
<rect id="platformcage2_57_" x="7191.787" y="1384.901" fill="#9BCB56" stroke="#000000" stroke-miterlimit="10" width="435" height="247"/>
<rect id="platformcage1_44_" x="8061.788" y="1384.901" fill="#70BF58" stroke="#000000" stroke-miterlimit="10" width="435" height="247"/>
<rect id="platformcage2_47_" x="8496.789" y="1384.901" fill="#9BCB56" stroke="#000000" stroke-miterlimit="10" width="435" height="247"/>
<rect id="platformcage1_43_" x="8931.789" y="1384.901" fill="#70BF58" stroke="#000000" stroke-miterlimit="10" width="435" height="247"/>
<rect id="platformcage1_75_" x="7191.787" y="1631.901" fill="#70BF58" stroke="#000000" stroke-miterlimit="10" width="435" height="247"/>
<rect id="platformcage1_80_" x="7191.788" y="1878.902" fill="#70BF58" stroke="#000000" stroke-miterlimit="10" width="435" height="247"/>
<rect id="platformcage1_61_" x="7191.788" y="2130.252" fill="#70BF58" stroke="#000000" stroke-miterlimit="10" width="435" height="247"/>
<rect id="platformcage1_51_" x="7191.791" y="2374.404" fill="#70BF58" stroke="#000000" stroke-miterlimit="10" width="435" height="247"/>
<rect id="platformcage1_102_" x="7191.793" y="2621.404" fill="#70BF58" stroke="#000000" stroke-miterlimit="10" width="435.001" height="247"/>
<rect id="platformcage1_49_" x="7191.794" y="2868.403" fill="#70BF58" stroke="#000000" stroke-miterlimit="10" width="435" height="247"/>
<rect id="platformcage1_63_" x="7191.798" y="3115.403" fill="#70BF58" stroke="#000000" stroke-miterlimit="10" width="435" height="247"/>
<rect id="platformcage2_67_" x="7191.787" y="3363.902" fill="#9BCB56" stroke="#000000" stroke-miterlimit="10" width="435" height="247"/>
<rect id="groundcage1_14_" y="3947.297" stroke="#000000" stroke-miterlimit="10" width="999.922" height="365.581"/>
<rect id="groundcage1_13_" x="999.922" y="3947.298" stroke="#000000" stroke-miterlimit="10" width="999.922" height="365.581"/>
<rect id="platformcage1_98_" x="5016.785" y="3607.9" fill="#70BF58" stroke="#000000" stroke-miterlimit="10" width="435" height="247"/>
<rect id="platformcage1_74_" x="4581.785" y="3607.901" fill="#70BF58" stroke="#000000" stroke-miterlimit="10" width="435" height="247"/>
<rect id="platformcage1_73_" x="4146.785" y="3607.901" fill="#70BF58" stroke="#000000" stroke-miterlimit="10" width="435" height="247"/>
<rect id="platformcage1_68_" x="5451.785" y="3607.901" fill="#70BF58" stroke="#000000" stroke-miterlimit="10" width="435.002" height="247"/>
<rect id="platformcage1_67_" x="6756.787" y="3607.901" fill="#70BF58" stroke="#000000" stroke-miterlimit="10" width="435" height="247"/>
<rect id="platformcage1_41_" x="6321.786" y="3607.902" fill="#70BF58" stroke="#000000" stroke-miterlimit="10" width="435.001" height="247"/>
<rect id="platformcage1_40_" x="5886.786" y="3607.902" fill="#70BF58" stroke="#000000" stroke-miterlimit="10" width="435.001" height="247"/>
<rect id="platformcage1_92_" x="7191.787" y="3607.901" fill="#70BF58" stroke="#000000" stroke-miterlimit="10" width="435.002" height="247"/>
</svg>
