<?xml version="1.0" encoding="utf-8"?>
<!-- Generator: Adobe Illustrator 15.1.0, SVG Export Plug-In . SVG Version: 6.00 Build 0)  -->
<!DOCTYPE svg PUBLIC "-//W3C//DTD SVG 1.1//EN" "http://www.w3.org/Graphics/SVG/1.1/DTD/svg11.dtd">
<svg version="1.1" id="Calque_1" xmlns="http://www.w3.org/2000/svg" xmlns:xlink="http://www.w3.org/1999/xlink" x="0px" y="0px"
	 width="16018.5px" height="5435.21px" viewBox="0 0 16018.5 5435.21" enable-background="new 0 0 16018.5 5435.21"
	 xml:space="preserve">
<rect id="pillevolutionb_1_" x="1897.848" y="3219.215" fill="#FB913B" stroke="#000000" stroke-miterlimit="10" width="50.685" height="61.859"/>
<rect id="characterstart_4_" x="263.232" y="3375.597" fill="#7CD2E2" stroke="#000000" stroke-miterlimit="10" width="85.193" height="403.362"/>
<rect id="groundcage1_27_" x="0.001" y="3755.411" stroke="#000000" stroke-miterlimit="10" width="835.366" height="305.415"/>
<rect id="groundcage1_11_" x="835.369" y="3755.411" stroke="#000000" stroke-miterlimit="10" width="835.366" height="305.415"/>
<rect id="groundcage1_29_" x="1670.734" y="3755.411" stroke="#000000" stroke-miterlimit="10" width="835.367" height="305.415"/>
<rect id="groundcage1_28_" x="2506.102" y="3755.411" stroke="#000000" stroke-miterlimit="10" width="835.366" height="305.415"/>
<rect id="groundcage1_31_" x="3341.468" y="3755.411" stroke="#000000" stroke-miterlimit="10" width="835.366" height="305.415"/>
<rect id="groundcage1_30_" x="4176.834" y="3755.411" stroke="#000000" stroke-miterlimit="10" width="835.367" height="305.415"/>
<rect id="platformcage1_12_" x="2468.309" y="3342.693" fill="#70BF58" stroke="#000000" stroke-miterlimit="10" width="363.413" height="206.352"/>
<rect id="platformcage2_26_" x="3195.135" y="3342.695" fill="#9BCB56" stroke="#000000" stroke-miterlimit="10" width="363.414" height="206.348"/>
<rect id="platformcage2_76_" x="3195.137" y="3136.344" fill="#9BCB56" stroke="#000000" stroke-miterlimit="10" width="363.413" height="206.352"/>
<rect id="platformcage2_10_" x="3195.135" y="1691.881" fill="#9BCB56" stroke="#000000" stroke-miterlimit="10" width="363.411" height="206.353"/>
<rect id="platformcage2_33_" x="4285.375" y="2517.287" fill="#9BCB56" stroke="#000000" stroke-miterlimit="10" width="363.41" height="206.355"/>
<rect id="platformcage2_32_" x="4285.374" y="2310.936" fill="#9BCB56" stroke="#000000" stroke-miterlimit="10" width="363.411" height="206.351"/>
<rect id="platformcage2_31_" x="4285.375" y="2104.585" fill="#9BCB56" stroke="#000000" stroke-miterlimit="10" width="363.414" height="206.351"/>
<rect id="platformcage2_6_" x="4285.375" y="1279.179" fill="#9BCB56" stroke="#000000" stroke-miterlimit="10" width="363.414" height="206.351"/>
<rect id="platformcage1_90_" x="3921.962" y="3342.695" fill="#70BF58" stroke="#000000" stroke-miterlimit="10" width="363.413" height="206.353"/>
<rect id="platformcage1_4_" x="3921.962" y="3549.055" fill="#70BF58" stroke="#000000" stroke-miterlimit="10" width="363.412" height="206.354"/>
<rect id="platformcage1_89_" x="3921.962" y="3136.344" fill="#70BF58" stroke="#000000" stroke-miterlimit="10" width="363.413" height="206.352"/>
<rect id="platformcage1_28_" x="3921.962" y="2929.993" fill="#70BF58" stroke="#000000" stroke-miterlimit="10" width="363.413" height="206.351"/>
<rect id="platformcage2_38_" x="3921.962" y="2310.936" fill="#9BCB56" stroke="#000000" stroke-miterlimit="10" width="363.412" height="206.351"/>
<rect id="spades_7_" x="3558.55" y="3719.621" fill="#C94A96" stroke="#000000" stroke-miterlimit="10" width="363.412" height="35.79"/>
<rect id="spades_9_" x="2831.722" y="3719.621" fill="#C94A96" stroke="#000000" stroke-miterlimit="10" width="363.413" height="35.79"/>
<rect id="spades_10_" x="2104.896" y="3719.616" fill="#C94A96" stroke="#000000" stroke-miterlimit="10" width="363.412" height="35.791"/>
<rect id="spades_11_" x="1378.07" y="3719.616" fill="#C94A96" stroke="#000000" stroke-miterlimit="10" width="363.413" height="35.791"/>
<rect id="spades_3_" x="4648.782" y="3435.238" fill="#C94A96" stroke="#000000" stroke-miterlimit="10" width="363.413" height="35.795"/>
<rect id="groundcage1_32_" x="5012.201" y="3678.217" stroke="#000000" stroke-miterlimit="10" width="835.366" height="305.418"/>
<rect id="groundcage1_33_" x="5012.201" y="3983.635" stroke="#000000" stroke-miterlimit="10" width="835.366" height="305.419"/>
<rect id="groundcage1_37_" x="5012.201" y="4289.054" stroke="#000000" stroke-miterlimit="10" width="835.366" height="305.417"/>
<rect id="groundcage1_35_" x="5012.201" y="4594.471" stroke="#000000" stroke-miterlimit="10" width="835.366" height="305.42"/>
<rect id="groundcage1_40_" x="5847.567" y="4824.372" stroke="#000000" stroke-miterlimit="10" width="835.367" height="305.416"/>
<rect id="groundcage1_39_" x="6682.935" y="4824.372" stroke="#000000" stroke-miterlimit="10" width="835.367" height="305.416"/>
<rect id="groundcage1_41_" x="5894.865" y="3755.411" stroke="#000000" stroke-miterlimit="10" width="835.366" height="305.415"/>
<rect id="groundcage1_7_" x="6730.231" y="3755.411" stroke="#000000" stroke-miterlimit="10" width="835.366" height="305.415"/>
<rect id="groundcage1_45_" x="7565.598" y="3755.411" stroke="#000000" stroke-miterlimit="10" width="835.366" height="305.415"/>
<rect id="groundcage1_44_" x="8400.964" y="3755.411" stroke="#000000" stroke-miterlimit="10" width="835.369" height="305.415"/>
<rect id="groundcage1_42_" x="5894.865" y="4060.826" stroke="#000000" stroke-miterlimit="10" width="835.366" height="305.418"/>
<rect id="groundcage1_4_" x="6730.231" y="4060.826" stroke="#000000" stroke-miterlimit="10" width="835.366" height="305.418"/>
<rect id="groundcage1_46_" x="5894.865" y="4366.244" stroke="#000000" stroke-miterlimit="10" width="835.366" height="305.419"/>
<rect id="groundcage1_43_" x="6730.231" y="4366.244" stroke="#000000" stroke-miterlimit="10" width="835.366" height="305.419"/>
<rect id="spades_18_" x="6602.794" y="4788.121" fill="#C94A96" stroke="#000000" stroke-miterlimit="10" width="363.414" height="35.793"/>
<rect id="spades_19_" x="6239.383" y="4788.121" fill="#C94A96" stroke="#000000" stroke-miterlimit="10" width="363.411" height="35.793"/>
<rect id="shadows_3_" x="9683.889" y="2074.299" fill="#686868" stroke="#F98238" stroke-miterlimit="10" width="5499.246" height="2137.924"/>
<rect id="shadows_2_" x="7580.059" y="1310.754" fill="#686868" stroke="#F98238" stroke-miterlimit="10" width="7603.073" height="1010.174"/>
<rect id="end_4_" x="8650.57" y="2025.323" fill="#FBD849" stroke="#000000" stroke-miterlimit="10" width="125.634" height="201.682"/>
<rect id="pillevolutiond_4_" x="12990.487" y="3875.877" fill="#9A549C" stroke="#F98238" stroke-miterlimit="10" width="50.684" height="61.854"/>
<rect id="groundforest1_77_" x="9335.566" y="4823.056" stroke="#000000" stroke-miterlimit="10" width="835.368" height="305.419"/>
<rect id="groundforest1_76_" x="10170.932" y="4823.056" stroke="#000000" stroke-miterlimit="10" width="835.369" height="305.419"/>
<rect id="groundforest1_75_" x="11006.301" y="4823.056" stroke="#000000" stroke-miterlimit="10" width="835.369" height="305.419"/>
<rect id="groundforest1_74_" x="11841.67" y="4823.056" stroke="#000000" stroke-miterlimit="10" width="835.364" height="305.419"/>
<rect id="groundforest1_73_" x="12677.033" y="4823.056" stroke="#000000" stroke-miterlimit="10" width="835.366" height="305.419"/>
<rect id="groundforest1_72_" x="13512.4" y="4823.056" stroke="#000000" stroke-miterlimit="10" width="835.366" height="305.419"/>
<rect id="groundforest1_71_" x="14347.766" y="4823.056" stroke="#000000" stroke-miterlimit="10" width="835.366" height="305.419"/>
<rect id="groundforest1_70_" x="15183.133" y="4823.056" stroke="#000000" stroke-miterlimit="10" width="835.367" height="305.419"/>
<rect id="groundforest1_69_" x="15183.133" y="4212.223" stroke="#000000" stroke-miterlimit="10" width="835.367" height="305.418"/>
<rect id="groundforest1_68_" x="10071.697" y="4364.931" stroke="#000000" stroke-miterlimit="10" width="835.366" height="305.42"/>
<rect id="groundforest1_67_" x="10907.064" y="4364.931" stroke="#000000" stroke-miterlimit="10" width="835.367" height="305.42"/>
<rect id="groundforest1_64_" x="11742.432" y="4364.931" stroke="#000000" stroke-miterlimit="10" width="835.365" height="305.42"/>
<rect id="groundforest1_63_" x="12577.797" y="4364.931" stroke="#000000" stroke-miterlimit="10" width="835.368" height="305.42"/>
<rect id="groundforest1_59_" x="15183.133" y="4517.641" stroke="#000000" stroke-miterlimit="10" width="835.367" height="305.415"/>
<rect id="groundforest1_58_" x="10071.698" y="4051.297" stroke="#000000" stroke-miterlimit="10" width="835.365" height="305.416"/>
<rect id="groundforest1_57_" x="10907.063" y="4051.297" stroke="#000000" stroke-miterlimit="10" width="835.367" height="305.416"/>
<rect id="groundforest1_56_" x="11742.431" y="4051.297" stroke="#000000" stroke-miterlimit="10" width="835.365" height="305.416"/>
<rect id="groundforest1_55_" x="12577.797" y="4051.297" stroke="#000000" stroke-miterlimit="10" width="835.368" height="305.416"/>
<rect id="groundforest1_54_" x="9236.332" y="2227.004" stroke="#000000" stroke-miterlimit="10" width="835.366" height="305.419"/>
<rect id="groundforest1_53_" x="8400.964" y="2227.004" stroke="#000000" stroke-miterlimit="10" width="835.369" height="305.419"/>
<rect id="groundforest1_52_" x="7570.128" y="2227.004" stroke="#000000" stroke-miterlimit="10" width="835.366" height="305.419"/>
<rect id="pillevolutiond_3_" x="11318.305" y="3422.208" fill="#9A549C" stroke="#F98238" stroke-miterlimit="10" width="50.685" height="61.856"/>
<rect id="groundforest1_51_" x="15183.133" y="3906.802" stroke="#000000" stroke-miterlimit="10" width="835.367" height="305.421"/>
<rect id="groundforest1_50_" x="15183.133" y="3295.967" stroke="#000000" stroke-miterlimit="10" width="835.367" height="305.42"/>
<rect id="groundforest1_49_" x="15183.133" y="3601.387" stroke="#000000" stroke-miterlimit="10" width="835.367" height="305.417"/>
<rect id="pillevolutionb_3_" x="14838.127" y="4746.338" fill="#BD5D32" stroke="#F98238" stroke-miterlimit="10" width="50.688" height="61.856"/>
<rect id="spadesdownforest_8_" x="10788.348" y="4787.266" fill="#C94A96" stroke="#000000" stroke-miterlimit="10" width="363.417" height="35.79"/>
<rect id="spadesdownforest_4_" x="11151.765" y="4787.266" fill="#C94A96" stroke="#000000" stroke-miterlimit="10" width="363.412" height="35.79"/>
<rect id="spadesdownforest_9_" x="10219.727" y="4787.266" fill="#C94A96" stroke="#000000" stroke-miterlimit="10" width="363.415" height="35.79"/>
<rect id="spadesdownforest_10_" x="11720.381" y="4787.266" fill="#C94A96" stroke="#000000" stroke-miterlimit="10" width="363.414" height="35.79"/>
<rect id="spadesdownforest_11_" x="12083.795" y="4787.266" fill="#C94A96" stroke="#000000" stroke-miterlimit="10" width="363.415" height="35.79"/>
<rect id="spadesdownforest_13_" x="12652.42" y="4787.266" fill="#C94A96" stroke="#000000" stroke-miterlimit="10" width="363.415" height="35.79"/>
<rect id="spadesdownforest_12_" x="13015.828" y="4787.266" fill="#C94A96" stroke="#000000" stroke-miterlimit="10" width="363.413" height="35.79"/>
<rect id="spadesdownforest_15_" x="10071.697" y="4015.506" fill="#C94A96" stroke="#000000" stroke-miterlimit="10" width="363.416" height="35.791"/>
<rect id="spadesdownforest_14_" x="10435.109" y="4015.506" fill="#C94A96" stroke="#000000" stroke-miterlimit="10" width="363.413" height="35.791"/>
<rect id="spadesdownforest_17_" x="10798.522" y="4015.506" fill="#C94A96" stroke="#000000" stroke-miterlimit="10" width="363.414" height="35.791"/>
<rect id="spadesdownforest_16_" x="11161.934" y="4015.506" fill="#C94A96" stroke="#000000" stroke-miterlimit="10" width="363.419" height="35.791"/>
<rect id="spades_12_" x="5739.021" y="3435.238" fill="#C94A96" stroke="#000000" stroke-miterlimit="10" width="363.415" height="35.795"/>
<rect id="platformcage2_9_" x="6102.436" y="3264.682" fill="#9BCB56" stroke="#000000" stroke-miterlimit="10" width="363.412" height="206.35"/>
<rect id="platformcage2_21_" x="5375.608" y="2645.623" fill="#9BCB56" stroke="#000000" stroke-miterlimit="10" width="363.413" height="206.354"/>
<rect id="platformcage1_59_" x="5375.609" y="1820.216" fill="#70BF58" stroke="#000000" stroke-miterlimit="10" width="363.413" height="206.351"/>
<rect id="spades_5_" x="6465.849" y="3435.238" fill="#C94A96" stroke="#000000" stroke-miterlimit="10" width="363.413" height="35.795"/>
<rect id="spades_20_" x="5012.195" y="3435.238" fill="#C94A96" stroke="#000000" stroke-miterlimit="10" width="363.412" height="35.795"/>
<rect id="platformcage2_16_" x="7192.676" y="3264.679" fill="#9BCB56" stroke="#000000" stroke-miterlimit="10" width="363.414" height="206.354"/>
<rect id="spades_15_" x="6829.261" y="3435.238" fill="#C94A96" stroke="#000000" stroke-miterlimit="10" width="363.413" height="35.795"/>
<rect id="spades_21_" x="7556.09" y="3435.238" fill="#C94A96" stroke="#000000" stroke-miterlimit="10" width="363.414" height="35.795"/>
<rect id="spades_22_" x="8872.92" y="3719.616" fill="#C94A96" stroke="#000000" stroke-miterlimit="10" width="363.413" height="35.795"/>
<rect id="pillevolutiona_4_" x="8713.386" y="3666.855" fill="#4877B5" stroke="#000000" stroke-miterlimit="10" width="50.686" height="61.854"/>
<rect id="spades_23_" x="8195.806" y="3719.616" fill="#C94A96" stroke="#000000" stroke-miterlimit="10" width="363.414" height="35.795"/>
<rect id="groundcage1_13_" x="5012.201" y="4899.891" stroke="#000000" stroke-miterlimit="10" width="835.366" height="305.418"/>
<rect id="groundcage1_10_" x="7565.598" y="4060.826" stroke="#000000" stroke-miterlimit="10" width="835.366" height="305.418"/>
<rect id="groundcage1_14_" x="8400.964" y="4060.826" stroke="#000000" stroke-miterlimit="10" width="835.369" height="305.418"/>
<rect id="groundcage1_47_" x="0.002" y="4060.826" stroke="#000000" stroke-miterlimit="10" width="835.367" height="305.418"/>
<rect id="groundcage1_38_" x="835.369" y="4060.826" stroke="#000000" stroke-miterlimit="10" width="835.367" height="305.418"/>
<rect id="groundcage1_36_" x="1670.735" y="4060.826" stroke="#000000" stroke-miterlimit="10" width="835.366" height="305.418"/>
<rect id="groundcage1_34_" x="2506.102" y="4060.826" stroke="#000000" stroke-miterlimit="10" width="835.366" height="305.418"/>
<rect id="groundcage1_26_" x="3341.468" y="4060.826" stroke="#000000" stroke-miterlimit="10" width="835.367" height="305.418"/>
<rect id="groundcage1_22_" x="4176.835" y="4060.826" stroke="#000000" stroke-miterlimit="10" width="835.366" height="305.418"/>
<rect id="groundcage1_49_" x="5847.567" y="5129.788" stroke="#000000" stroke-miterlimit="10" width="835.367" height="305.422"/>
<rect id="groundcage1_48_" x="6682.935" y="5129.79" stroke="#000000" stroke-miterlimit="10" width="835.367" height="305.42"/>
<rect id="spades_24_" x="7881.716" y="4994.475" fill="#C94A96" stroke="#000000" stroke-miterlimit="10" width="363.412" height="35.792"/>
<rect id="spades_25_" x="8608.544" y="4994.475" fill="#C94A96" stroke="#000000" stroke-miterlimit="10" width="363.412" height="35.792"/>
<rect id="groundforest1_1_" x="9236.332" y="4060.826" stroke="#000000" stroke-miterlimit="10" width="835.366" height="305.418"/>
<rect id="groundforest1_4_" x="9236.333" y="3755.411" stroke="#000000" stroke-miterlimit="10" width="835.363" height="305.415"/>
<rect id="groundforest1_3_" x="9236.332" y="3449.989" stroke="#000000" stroke-miterlimit="10" width="835.366" height="305.422"/>
<rect id="groundforest1_5_" x="9236.332" y="3143.262" stroke="#000000" stroke-miterlimit="10" width="835.366" height="305.415"/>
<rect id="groundforest1_9_" x="9236.332" y="2837.842" stroke="#000000" stroke-miterlimit="10" width="835.366" height="305.42"/>
<rect id="groundforest1_8_" x="9236.333" y="2532.424" stroke="#000000" stroke-miterlimit="10" width="835.363" height="305.418"/>
<rect id="groundforest1_10_" x="15183.133" y="2990.551" stroke="#000000" stroke-miterlimit="10" width="835.367" height="305.416"/>
<rect id="platformcage2_11_" x="11161.943" y="3594.609" fill="#9BCB56" stroke="#000000" stroke-miterlimit="10" width="363.411" height="206.35"/>
<rect id="groundforest1_6_" x="7570.128" y="1921.589" stroke="#000000" stroke-miterlimit="10" width="835.366" height="305.416"/>
<rect id="groundforest1_11_" x="7570.128" y="1616.169" stroke="#000000" stroke-miterlimit="10" width="835.366" height="305.419"/>
<rect id="groundforest1_7_" x="7570.128" y="1310.754" stroke="#000000" stroke-miterlimit="10" width="835.366" height="305.416"/>
<rect id="platformcage2_49_" x="10071.699" y="2769.197" fill="#9BCB56" stroke="#000000" stroke-miterlimit="10" width="363.416" height="206.354"/>
<rect id="groundcage1_9_" x="8353.67" y="5030.265" stroke="#000000" stroke-miterlimit="10" width="835.368" height="305.415"/>
<rect id="groundcage1_1_" x="7518.302" y="5030.265" stroke="#000000" stroke-miterlimit="10" width="835.367" height="305.415"/>
<rect id="groundcage1_8_" x="9189.037" y="5030.265" stroke="#000000" stroke-miterlimit="10" width="835.367" height="305.415"/>
<rect id="spadesdownforest_2_" x="9243.31" y="4787.266" fill="#C94A96" stroke="#000000" stroke-miterlimit="10" width="363.414" height="35.79"/>
<rect id="spadesdownforest_1_" x="9606.724" y="4787.266" fill="#C94A96" stroke="#000000" stroke-miterlimit="10" width="363.412" height="35.79"/>
<rect id="pillevolutiond_1_" x="9767.975" y="2043.372" fill="#9A549C" stroke="#F98238" stroke-miterlimit="10" width="50.688" height="61.854"/>
<rect id="pillevolutionb_2_" x="11006.301" y="3444.423" fill="#BD5D32" stroke="#F98238" stroke-miterlimit="10" width="50.687" height="61.856"/>
<rect id="platformcage3_7_" x="1816.309" y="1819.142" fill="#DD192C" stroke="#000000" stroke-miterlimit="10" width="363.413" height="206.353"/>
<rect id="platformcage4_8_" x="1816.309" y="2137.761" fill="#535BA2" stroke="#000000" stroke-miterlimit="10" width="363.413" height="206.352"/>
<rect id="platformcage4_7_" x="1741.484" y="3549.055" fill="#535BA2" stroke="#000000" stroke-miterlimit="10" width="363.413" height="206.353"/>
<rect id="platformcage4_13_" x="1741.484" y="3342.703" fill="#535BA2" stroke="#000000" stroke-miterlimit="10" width="363.413" height="206.352"/>
<rect id="pillevolutionb_4_" x="8401.494" y="4678.857" fill="#FB913B" stroke="#000000" stroke-miterlimit="10" width="50.685" height="61.859"/>
<rect id="platformcage4_14_" x="7518.302" y="4824.372" fill="#535BA2" stroke="#000000" stroke-miterlimit="10" width="363.413" height="206.352"/>
<rect id="platformcage4_15_" x="8245.131" y="4824.373" fill="#535BA2" stroke="#000000" stroke-miterlimit="10" width="363.413" height="206.352"/>
<rect id="platformcage4_16_" x="8971.955" y="4823.056" fill="#535BA2" stroke="#000000" stroke-miterlimit="10" width="363.413" height="206.352"/>
<rect id="platformcage4_17_" x="13413.164" y="4463.999" fill="#535BA2" stroke="#000000" stroke-miterlimit="10" width="363.413" height="206.352"/>
<rect id="platformcage4_18_" x="13776.578" y="4463.999" fill="#535BA2" stroke="#000000" stroke-miterlimit="10" width="363.413" height="206.352"/>
<rect id="platformcage3_8_" x="13413.166" y="4051.297" fill="#DD192C" stroke="#000000" stroke-miterlimit="10" width="363.412" height="206.352"/>
<rect id="platformcage4_19_" x="13413.164" y="4257.646" fill="#535BA2" stroke="#000000" stroke-miterlimit="10" width="363.413" height="206.352"/>
<rect id="platformcage4_50_" x="10798.525" y="3594.605" fill="#535BA2" stroke="#000000" stroke-miterlimit="10" width="363.413" height="206.352"/>
<rect id="platformcage4_27_" x="10435.111" y="3388.252" fill="#535BA2" stroke="#000000" stroke-miterlimit="10" width="363.413" height="206.352"/>
<rect id="platformcage4_53_" x="10071.697" y="3388.253" fill="#535BA2" stroke="#000000" stroke-miterlimit="10" width="363.413" height="206.352"/>
<rect id="platformcage1_1_" x="13776.576" y="4257.645" fill="#70BF58" stroke="#000000" stroke-miterlimit="10" width="363.419" height="206.355"/>
<rect id="platformcage3_31_" x="10071.701" y="2975.552" fill="#DD192C" stroke="#000000" stroke-miterlimit="10" width="363.412" height="206.353"/>
<rect id="platformcage3_32_" x="10071.701" y="3594.607" fill="#DD192C" stroke="#000000" stroke-miterlimit="10" width="363.412" height="206.354"/>
<rect id="platformcage3_33_" x="10435.109" y="3594.607" fill="#DD192C" stroke="#000000" stroke-miterlimit="10" width="363.412" height="206.354"/>
<rect id="platformcage4_51_" x="10071.699" y="3181.902" fill="#535BA2" stroke="#000000" stroke-miterlimit="10" width="363.413" height="206.352"/>
<rect id="platformcage1_5_" x="10435.111" y="3181.9" fill="#70BF58" stroke="#000000" stroke-miterlimit="10" width="363.419" height="206.355"/>
<rect id="platformcage2_4_" x="1378.07" y="2137.759" fill="#9BCB56" stroke="#000000" stroke-miterlimit="10" width="363.413" height="206.355"/>
<rect id="platformcage1_2_" x="1378.07" y="1820.217" fill="#70BF58" stroke="#000000" stroke-miterlimit="10" width="363.413" height="206.349"/>
<rect id="platformcage3_9_" x="2468.309" y="2723.641" fill="#DD192C" stroke="#000000" stroke-miterlimit="10" width="363.413" height="206.354"/>
<rect id="platformcage3_12_" x="2468.309" y="2931.494" fill="#DD192C" stroke="#000000" stroke-miterlimit="10" width="363.413" height="206.353"/>
<rect id="platformcage2_5_" x="2468.309" y="2517.288" fill="#9BCB56" stroke="#000000" stroke-miterlimit="10" width="363.413" height="206.355"/>
<rect id="platformcage4_20_" x="2468.309" y="3136.344" fill="#535BA2" stroke="#000000" stroke-miterlimit="10" width="363.413" height="206.352"/>
<rect id="platformcage4_21_" x="2468.309" y="3549.056" fill="#535BA2" stroke="#000000" stroke-miterlimit="10" width="363.413" height="206.353"/>
<rect id="platformcage4_22_" x="3195.134" y="2931.494" fill="#535BA2" stroke="#000000" stroke-miterlimit="10" width="363.413" height="206.353"/>
<rect id="platformcage4_23_" x="3195.136" y="3549.055" fill="#535BA2" stroke="#000000" stroke-miterlimit="10" width="363.413" height="206.353"/>
<rect id="platformcage4_24_" x="3195.137" y="2517.289" fill="#535BA2" stroke="#000000" stroke-miterlimit="10" width="363.413" height="206.352"/>
<rect id="platformcage1_3_" x="3195.136" y="2723.643" fill="#70BF58" stroke="#000000" stroke-miterlimit="10" width="363.413" height="206.351"/>
<rect id="platformcage3_14_" x="3195.136" y="2103.833" fill="#DD192C" stroke="#000000" stroke-miterlimit="10" width="363.413" height="206.353"/>
<rect id="platformcage3_13_" x="3195.136" y="2311.686" fill="#DD192C" stroke="#000000" stroke-miterlimit="10" width="363.413" height="206.353"/>
<rect id="platformcage3_15_" x="3195.136" y="1898.235" fill="#DD192C" stroke="#000000" stroke-miterlimit="10" width="363.413" height="206.353"/>
<rect id="platformcage3_16_" x="3921.96" y="1279.178" fill="#DD192C" stroke="#000000" stroke-miterlimit="10" width="363.413" height="206.353"/>
<rect id="platformcage3_17_" x="3921.96" y="1485.53" fill="#DD192C" stroke="#000000" stroke-miterlimit="10" width="363.413" height="206.353"/>
<rect id="platformcage3_18_" x="4285.375" y="1485.53" fill="#DD192C" stroke="#000000" stroke-miterlimit="10" width="363.413" height="206.353"/>
<rect id="platformcage3_20_" x="4285.375" y="1691.881" fill="#DD192C" stroke="#000000" stroke-miterlimit="10" width="363.413" height="206.353"/>
<rect id="platformcage3_26_" x="6102.436" y="2232.919" fill="#DD192C" stroke="#000000" stroke-miterlimit="10" width="363.413" height="206.353"/>
<rect id="platformcage3_25_" x="6102.436" y="2439.271" fill="#DD192C" stroke="#000000" stroke-miterlimit="10" width="363.413" height="206.353"/>
<rect id="platformcage3_28_" x="5375.61" y="2851.978" fill="#DD192C" stroke="#000000" stroke-miterlimit="10" width="363.413" height="206.353"/>
<rect id="platformcage3_29_" x="6102.436" y="2851.978" fill="#DD192C" stroke="#000000" stroke-miterlimit="10" width="363.413" height="206.353"/>
<rect id="platformcage3_30_" x="6102.435" y="2645.624" fill="#DD192C" stroke="#000000" stroke-miterlimit="10" width="363.413" height="206.353"/>
<rect id="platformcage3_27_" x="5375.61" y="3058.329" fill="#DD192C" stroke="#000000" stroke-miterlimit="10" width="363.413" height="206.353"/>
<rect id="platformcage3_22_" x="4285.375" y="3136.344" fill="#DD192C" stroke="#000000" stroke-miterlimit="10" width="363.413" height="206.352"/>
<rect id="platformcage3_23_" x="4285.372" y="3342.693" fill="#DD192C" stroke="#000000" stroke-miterlimit="10" width="363.413" height="206.352"/>
<rect id="platformcage3_24_" x="4285.375" y="3549.055" fill="#DD192C" stroke="#000000" stroke-miterlimit="10" width="363.413" height="206.354"/>
<rect id="platformcage4_25_" x="3195.134" y="1485.53" fill="#535BA2" stroke="#000000" stroke-miterlimit="10" width="363.413" height="206.352"/>
<rect id="platformcage4_28_" x="3921.962" y="1691.882" fill="#535BA2" stroke="#000000" stroke-miterlimit="10" width="363.414" height="206.352"/>
<rect id="platformcage4_29_" x="3921.96" y="1898.235" fill="#535BA2" stroke="#000000" stroke-miterlimit="10" width="363.413" height="206.352"/>
<rect id="platformcage4_46_" x="5375.61" y="2026.567" fill="#535BA2" stroke="#000000" stroke-miterlimit="10" width="363.414" height="206.352"/>
<rect id="platformcage4_45_" x="5375.608" y="2232.919" fill="#535BA2" stroke="#000000" stroke-miterlimit="10" width="363.413" height="206.352"/>
<rect id="platformcage4_47_" x="5375.61" y="2439.271" fill="#535BA2" stroke="#000000" stroke-miterlimit="10" width="363.413" height="206.352"/>
<rect id="platformcage4_32_" x="3921.959" y="2517.289" fill="#535BA2" stroke="#000000" stroke-miterlimit="10" width="363.414" height="206.352"/>
<rect id="platformcage4_31_" x="3921.962" y="2104.584" fill="#535BA2" stroke="#000000" stroke-miterlimit="10" width="363.413" height="206.352"/>
<rect id="platformcage4_33_" x="3921.962" y="2723.642" fill="#535BA2" stroke="#000000" stroke-miterlimit="10" width="363.413" height="206.353"/>
<rect id="platformcage4_34_" x="4285.375" y="2723.642" fill="#535BA2" stroke="#000000" stroke-miterlimit="10" width="363.413" height="206.353"/>
<rect id="platformcage4_35_" x="4285.372" y="2931.495" fill="#535BA2" stroke="#000000" stroke-miterlimit="10" width="363.414" height="206.353"/>
<rect id="platformcage4_30_" x="4285.373" y="1898.235" fill="#535BA2" stroke="#000000" stroke-miterlimit="10" width="363.413" height="206.352"/>
<rect id="platformcage4_37_" x="4648.787" y="3471.034" fill="#535BA2" stroke="#000000" stroke-miterlimit="10" width="363.414" height="206.353"/>
<rect id="platformcage4_36_" x="5012.2" y="3471.034" fill="#535BA2" stroke="#000000" stroke-miterlimit="10" width="363.414" height="206.353"/>
<rect id="platformcage4_39_" x="5375.608" y="3471.034" fill="#535BA2" stroke="#000000" stroke-miterlimit="10" width="363.413" height="206.353"/>
<rect id="platformcage4_48_" x="5375.608" y="3264.681" fill="#535BA2" stroke="#000000" stroke-miterlimit="10" width="363.413" height="206.353"/>
<rect id="platformcage4_49_" x="6102.435" y="3058.33" fill="#535BA2" stroke="#000000" stroke-miterlimit="10" width="363.413" height="206.352"/>
<rect id="platformcage4_38_" x="5739.021" y="3471.034" fill="#535BA2" stroke="#000000" stroke-miterlimit="10" width="363.413" height="206.353"/>
<rect id="platformcage4_41_" x="6102.436" y="3471.034" fill="#535BA2" stroke="#000000" stroke-miterlimit="10" width="363.413" height="206.353"/>
<rect id="platformcage4_40_" x="6465.849" y="3471.034" fill="#535BA2" stroke="#000000" stroke-miterlimit="10" width="363.413" height="206.353"/>
<rect id="platformcage4_43_" x="6829.263" y="3471.034" fill="#535BA2" stroke="#000000" stroke-miterlimit="10" width="363.413" height="206.353"/>
<rect id="platformcage4_42_" x="7192.676" y="3471.034" fill="#535BA2" stroke="#000000" stroke-miterlimit="10" width="363.413" height="206.353"/>
<rect id="platformcage4_44_" x="7556.09" y="3471.033" fill="#535BA2" stroke="#000000" stroke-miterlimit="10" width="363.414" height="206.353"/>
<rect id="platformcage4_26_" x="3195.134" y="1279.179" fill="#535BA2" stroke="#000000" stroke-miterlimit="10" width="363.413" height="206.352"/>
</svg>
