<?xml version="1.0" encoding="utf-8"?>
<!-- Generator: Adobe Illustrator 15.1.0, SVG Export Plug-In . SVG Version: 6.00 Build 0)  -->
<!DOCTYPE svg PUBLIC "-//W3C//DTD SVG 1.1//EN" "http://www.w3.org/Graphics/SVG/1.1/DTD/svg11.dtd">
<svg version="1.1" id="Calque_1" xmlns="http://www.w3.org/2000/svg" xmlns:xlink="http://www.w3.org/1999/xlink" x="0px" y="0px"
	 width="6063.641px" height="3482.02px" viewBox="0 0 6063.641 3482.02" enable-background="new 0 0 6063.641 3482.02"
	 xml:space="preserve">
<rect id="groundcage2_4_" x="0.937" y="1722.172" stroke="#000000" stroke-miterlimit="10" width="1001.796" height="586.628"/>
<rect id="groundcage4_1_" x="1002.732" y="2308.805" stroke="#000000" stroke-miterlimit="10" width="1001.797" height="586.627"/>
<rect id="groundcage1_7_" x="2055.518" y="1722.173" stroke="#000000" stroke-miterlimit="10" width="1001.796" height="586.628"/>
<rect id="groundcage3_3_" x="1002.732" y="1722.168" stroke="#000000" stroke-miterlimit="10" width="1001.797" height="586.636"/>
<rect id="groundcage3_5_" x="3057.313" y="1722.168" stroke="#000000" stroke-miterlimit="10" width="1001.797" height="586.636"/>
<rect id="groundcage1_4_" x="2055.518" y="2308.805" stroke="#000000" stroke-miterlimit="10" width="1001.796" height="586.627"/>
<rect id="groundcage2_6_" x="2004.528" y="2926.795" stroke="#000000" stroke-miterlimit="10" width="1001.796" height="554.629"/>
<rect id="groundcage1_8_" x="1002.733" y="2894.795" stroke="#000000" stroke-miterlimit="10" width="1001.796" height="586.629"/>
<rect id="groundcage1_9_" x="3006.324" y="2926.795" stroke="#000000" stroke-miterlimit="10" width="1001.796" height="554.629"/>
<rect id="groundcage2_7_" x="4008.121" y="2926.795" stroke="#000000" stroke-miterlimit="10" width="1001.796" height="554.629"/>
<rect id="groundcage1_10_" x="5009.917" y="2926.795" stroke="#000000" stroke-miterlimit="10" width="1052.787" height="554.629"/>
<rect id="groundcage2_8_" x="3057.314" y="2308.801" stroke="#000000" stroke-miterlimit="10" width="1001.795" height="585.994"/>
<rect id="groundcage2_5_" x="4059.11" y="1722.173" stroke="#000000" stroke-miterlimit="10" width="1001.796" height="586.628"/>
<rect id="groundcage3_4_" x="5060.907" y="1722.168" stroke="#000000" stroke-miterlimit="10" width="1001.797" height="586.636"/>
<rect id="spades_1_" x="3183.435" y="1679.182" fill="#C94A96" stroke="#000000" stroke-miterlimit="10" width="576.385" height="42.842"/>
<rect id="end_2_" x="4972.321" y="2840.014" fill="#FBD849" stroke="#000000" stroke-miterlimit="10" width="75.191" height="86.781"/>
<rect id="platformcage1_1_" x="2799.793" y="1480.608" fill="#6FBF58" stroke="#000000" stroke-miterlimit="10" width="383.642" height="241.41"/>
<rect id="platformcage2" x="3759.819" y="1239.197" fill="#6FBF58" stroke="#000000" stroke-miterlimit="10" width="383.372" height="482.826"/>
<rect id="platformcage3" x="4719.575" y="997.492" fill="#6FBF58" stroke="#000000" stroke-miterlimit="10" width="766.745" height="724.232"/>
<rect id="spades_3_" x="4143.191" y="1679.182" fill="#C94A96" stroke="#000000" stroke-miterlimit="10" width="576.384" height="42.842"/>
<rect id="spades_4_" x="5486.32" y="1678.883" fill="#C94A96" stroke="#000000" stroke-miterlimit="10" width="576.384" height="42.842"/>
<rect id="pillevolutiona" x="5263.806" y="861.363" fill="#4877B5" stroke="#000000" stroke-miterlimit="10" width="60.671" height="74.041"/>
<rect id="groundcage2_9_" x="0.937" y="2894.795" stroke="#000000" stroke-miterlimit="10" width="1001.796" height="586.629"/>
<rect id="groundcage2_10_" x="0.937" y="2308.805" stroke="#000000" stroke-miterlimit="10" width="1001.796" height="586.627"/>
<rect id="characterstart_2_" x="261.834" y="1239.197" fill="#7CD2E2" stroke="#000000" stroke-miterlimit="10" width="101.976" height="482.822"/>
</svg>
