<?xml version="1.0" encoding="utf-8"?>
<!-- Generator: Adobe Illustrator 15.1.0, SVG Export Plug-In . SVG Version: 6.00 Build 0)  -->
<!DOCTYPE svg PUBLIC "-//W3C//DTD SVG 1.1//EN" "http://www.w3.org/Graphics/SVG/1.1/DTD/svg11.dtd">
<svg version="1.1" id="Calque_1" xmlns="http://www.w3.org/2000/svg" xmlns:xlink="http://www.w3.org/1999/xlink" x="0px" y="0px"
	 width="16018.5px" height="5435.21px" viewBox="0 0 16018.5 5435.21" enable-background="new 0 0 16018.5 5435.21"
	 xml:space="preserve">
<rect id="pillevolutionb_1_" x="1897.847" y="3205.373" fill="#FB913B" width="50.685" height="61.859"/>
<rect id="characterstart_4_" x="263.231" y="3333.532" fill="#7CD2E2" width="85.193" height="403.363"/>
<rect id="groundcage1_27_" x="0" y="3741.571" width="835.366" height="305.416"/>
<rect id="groundcage1_11_" x="835.368" y="3741.571" width="835.366" height="305.416"/>
<rect id="groundcage4_1_" x="1670.734" y="3741.571" width="835.367" height="305.416"/>
<rect id="groundcage1_28_" x="2506.101" y="3741.571" width="835.366" height="305.416"/>
<rect id="groundcage1_31_" x="3341.467" y="3741.571" width="835.366" height="305.416"/>
<rect id="groundcage1_30_" x="4176.833" y="3741.571" width="835.367" height="305.416"/>
<rect id="platformcage1_12_" x="2468.308" y="3328.852" fill="#70BF58" width="363.414" height="206.352"/>
<rect id="platformcage2_26_" x="3195.134" y="3328.854" fill="#9BCB56" width="363.414" height="206.349"/>
<rect id="platformcage2_76_" x="3195.136" y="3122.502" fill="#9BCB56" width="363.413" height="206.352"/>
<rect id="platformcage2_10_" x="3195.134" y="1678.04" fill="#9BCB56" width="363.411" height="206.353"/>
<rect id="platformcage2_33_" x="4285.374" y="2503.445" fill="#9BCB56" width="363.411" height="206.355"/>
<rect id="platformcage2_32_" x="4285.373" y="2297.094" fill="#9BCB56" width="363.412" height="206.351"/>
<rect id="platformcage2_31_" x="4285.374" y="2090.744" fill="#9BCB56" width="363.414" height="206.351"/>
<rect id="platformcage2_6_" x="4285.374" y="1265.337" fill="#9BCB56" width="363.414" height="206.351"/>
<rect id="platformcage1_90_" x="3921.962" y="3328.854" fill="#70BF58" width="363.413" height="206.353"/>
<rect id="platformcage1_4_" x="3921.961" y="3535.214" fill="#70BF58" width="363.413" height="206.354"/>
<rect id="platformcage1_89_" x="3921.962" y="3122.502" fill="#70BF58" width="363.413" height="206.352"/>
<rect id="platformcage1_28_" x="3921.962" y="2916.151" fill="#70BF58" width="363.413" height="206.351"/>
<rect id="platformcage2_38_" x="3921.961" y="2297.094" fill="#9BCB56" width="363.412" height="206.351"/>
<rect id="groundcage3_11_" x="5012.199" y="3664.376" width="835.367" height="305.418"/>
<rect id="groundcage3_16_" x="5894.863" y="3741.57" width="835.367" height="305.418"/>
<rect id="groundcage3_17_" x="5894.863" y="4046.988" width="835.367" height="305.418"/>
<rect id="groundcage2_2_" x="5894.863" y="4352.408" width="835.367" height="305.418"/>
<rect id="groundcage3_12_" x="5012.199" y="3969.794" width="835.367" height="305.418"/>
<rect id="groundcage3_13_" x="5012.199" y="4275.212" width="835.367" height="305.418"/>
<rect id="groundcage3_14_" x="5012.199" y="4580.63" width="835.367" height="305.418"/>
<rect id="groundcage3_15_" x="5012.199" y="4886.048" width="835.367" height="305.418"/>
<rect id="groundcage1_40_" x="5847.566" y="4810.536" width="835.367" height="305.416"/>
<rect id="groundcage1_39_" x="6682.934" y="4810.536" width="835.367" height="305.416"/>
<rect id="groundcage4_2_" x="6730.23" y="3741.571" width="835.366" height="305.416"/>
<rect id="groundcage1_45_" x="7565.597" y="3741.571" width="835.366" height="305.416"/>
<rect id="groundcage1_44_" x="8400.963" y="3741.571" width="835.369" height="305.416"/>
<rect id="groundcage3_19_" x="6730.23" y="4046.987" width="835.366" height="305.42"/>
<rect id="groundcage2_3_" x="6730.23" y="4352.407" width="835.366" height="305.42"/>
<rect id="groundcage2_5_" x="7565.596" y="4046.988" width="835.367" height="305.418"/>
<rect id="groundcage2_4_" x="8400.963" y="4046.987" width="835.366" height="305.42"/>
<rect id="groundcage2_7_" x="12577.797" y="4342.876" width="835.366" height="305.42"/>
<rect id="groundcage2_8_" x="11742.428" y="4342.876" width="835.366" height="305.42"/>
<rect id="groundcage2_10_" x="10907.062" y="4342.876" width="835.366" height="305.42"/>
<rect id="groundcage2_9_" x="10071.695" y="4342.876" width="835.366" height="305.42"/>
<rect id="groundcage2_6_" x="9236.332" y="4046.987" width="835.366" height="305.42"/>
<rect id="shadows_3_" x="9683.889" y="2060.457" fill="#686868" width="5499.246" height="2137.929"/>
<rect id="shadows_2_" x="7580.059" y="227.954" fill="#686868" width="7603.074" height="2079.132"/>
<rect id="end_4_" x="8650.57" y="2011.481" fill="#FBD849" width="125.633" height="201.682"/>
<rect id="pillevolutiond_4_" x="12990.486" y="3862.036" fill="#9A549C" width="50.684" height="61.855"/>
<rect id="pillevolutiond_3_" x="11318.305" y="3408.366" fill="#9A549C" width="50.684" height="61.855"/>
<rect id="pillevolutionb_3_" x="14840.852" y="4745.441" fill="#BD5D32" width="50.688" height="61.856"/>
<rect id="platformcage2_9_" x="6102.434" y="3250.84" fill="#9BCB56" width="363.413" height="206.351"/>
<rect id="platformcage2_21_" x="5375.608" y="2631.781" fill="#9BCB56" width="363.412" height="206.354"/>
<rect id="platformcage1_59_" x="5375.609" y="1806.374" fill="#70BF58" width="363.413" height="206.351"/>
<rect id="platformcage2_16_" x="7192.675" y="3250.837" fill="#9BCB56" width="363.415" height="206.355"/>
<rect id="pillevolutiona_4_" x="8713.385" y="3653.015" fill="#4877B5" width="50.686" height="61.854"/>
<rect id="platformcage2_11_" x="11161.941" y="3580.767" fill="#9BCB56" width="363.412" height="206.352"/>
<rect id="platformcage2_49_" x="10071.699" y="2755.355" fill="#9BCB56" width="363.416" height="206.354"/>
<rect id="groundcage4_3_" x="8353.668" y="5016.429" width="835.368" height="305.414"/>
<rect id="groundcage1_1_" x="7518.301" y="5016.429" width="835.367" height="305.414"/>
<rect id="groundcage1_8_" x="9189.037" y="5016.429" width="835.368" height="305.414"/>
<rect id="pillevolutiond_1_" x="9767.975" y="2029.53" fill="#9A549C" width="50.688" height="61.854"/>
<rect id="pillevolutionb_2_" x="11006.301" y="3430.581" fill="#BD5D32" width="50.686" height="61.857"/>
<rect id="platformcage4_7_" x="1741.483" y="3535.214" fill="#535BA2" width="363.413" height="206.354"/>
<rect id="platformcage4_13_" x="1741.483" y="3328.861" fill="#535BA2" width="363.413" height="206.353"/>
<rect id="pillevolutionb_4_" x="8401.496" y="4626.897" fill="#FB913B" width="50.682" height="61.859"/>
<rect id="platformcage4_14_" x="7518.301" y="4810.536" fill="#535BA2" width="363.413" height="206.352"/>
<rect id="platformcage4_15_" x="8245.131" y="4810.536" fill="#535BA2" width="363.412" height="206.352"/>
<rect id="platformcage4_16_" x="8971.955" y="4809.22" fill="#535BA2" width="363.413" height="206.352"/>
<rect id="platformcage4_17_" x="13413.164" y="4450.163" fill="#535BA2" width="363.414" height="206.352"/>
<rect id="platformcage4_18_" x="13776.578" y="4450.163" fill="#535BA2" width="363.414" height="206.352"/>
<rect id="platformcage3_8_" x="13413.168" y="4037.458" fill="#DD192C" width="363.41" height="206.354"/>
<rect id="platformcage4_19_" x="13413.164" y="4243.81" fill="#535BA2" width="363.414" height="206.352"/>
<rect id="platformcage4_50_" x="10798.525" y="3580.763" fill="#535BA2" width="363.414" height="206.354"/>
<rect id="platformcage4_27_" x="10435.111" y="3374.411" fill="#535BA2" width="363.414" height="206.352"/>
<rect id="platformcage4_53_" x="10071.697" y="3374.411" fill="#535BA2" width="363.414" height="206.352"/>
<rect id="platformcage1_1_" x="13776.576" y="4243.808" fill="#70BF58" width="363.418" height="206.355"/>
<rect id="platformcage3_31_" x="10071.701" y="2961.71" fill="#DD192C" width="363.412" height="206.353"/>
<rect id="platformcage3_32_" x="10071.701" y="3580.767" fill="#DD192C" width="363.412" height="206.354"/>
<rect id="platformcage3_33_" x="10435.109" y="3580.767" fill="#DD192C" width="363.412" height="206.354"/>
<rect id="platformcage4_51_" x="10071.699" y="3168.061" fill="#535BA2" width="363.414" height="206.351"/>
<rect id="platformcage1_5_" x="10435.111" y="3168.059" fill="#70BF58" width="363.418" height="206.354"/>
<rect id="platformcage3_9_" x="2468.308" y="2709.799" fill="#DD192C" width="363.413" height="206.353"/>
<rect id="platformcage3_12_" x="2468.308" y="2917.652" fill="#DD192C" width="363.413" height="206.353"/>
<rect id="platformcage2_5_" x="2468.308" y="2503.446" fill="#9BCB56" width="363.413" height="206.355"/>
<rect id="platformcage4_20_" x="2468.308" y="3122.502" fill="#535BA2" width="363.413" height="206.352"/>
<rect id="platformcage4_21_" x="2468.308" y="3535.214" fill="#535BA2" width="363.414" height="206.354"/>
<rect id="platformcage4_22_" x="3195.133" y="2917.652" fill="#535BA2" width="363.413" height="206.353"/>
<rect id="platformcage4_23_" x="3195.135" y="3535.214" fill="#535BA2" width="363.414" height="206.354"/>
<rect id="platformcage4_24_" x="3195.136" y="2503.447" fill="#535BA2" width="363.413" height="206.352"/>
<rect id="platformcage1_3_" x="3195.135" y="2709.8" fill="#70BF58" width="363.414" height="206.351"/>
<rect id="platformcage3_14_" x="3195.136" y="2089.991" fill="#DD192C" width="363.413" height="206.353"/>
<rect id="platformcage3_13_" x="3195.136" y="2297.844" fill="#DD192C" width="363.413" height="206.353"/>
<rect id="platformcage3_15_" x="3195.136" y="1884.393" fill="#DD192C" width="363.413" height="206.353"/>
<rect id="platformcage3_16_" x="3921.96" y="1265.336" fill="#DD192C" width="363.413" height="206.353"/>
<rect id="platformcage3_17_" x="3921.96" y="1471.688" fill="#DD192C" width="363.413" height="206.353"/>
<rect id="platformcage3_18_" x="4285.375" y="1471.688" fill="#DD192C" width="363.413" height="206.353"/>
<rect id="platformcage3_20_" x="4285.375" y="1678.04" fill="#DD192C" width="363.413" height="206.353"/>
<rect id="platformcage3_26_" x="6102.434" y="2219.077" fill="#DD192C" width="363.414" height="206.353"/>
<rect id="platformcage3_25_" x="6102.434" y="2425.429" fill="#DD192C" width="363.414" height="206.353"/>
<rect id="platformcage3_28_" x="5375.609" y="2838.136" fill="#DD192C" width="363.413" height="206.353"/>
<rect id="platformcage3_29_" x="6102.434" y="2838.136" fill="#DD192C" width="363.414" height="206.353"/>
<rect id="platformcage3_30_" x="6102.434" y="2631.782" fill="#DD192C" width="363.413" height="206.353"/>
<rect id="platformcage3_27_" x="5375.609" y="3044.487" fill="#DD192C" width="363.413" height="206.353"/>
<rect id="platformcage3_22_" x="4285.374" y="3122.502" fill="#DD192C" width="363.413" height="206.352"/>
<rect id="platformcage3_23_" x="4285.371" y="3328.852" fill="#DD192C" width="363.414" height="206.353"/>
<rect id="platformcage3_24_" x="4285.374" y="3535.214" fill="#DD192C" width="363.413" height="206.354"/>
<rect id="platformcage4_25_" x="3195.133" y="1471.688" fill="#535BA2" width="363.413" height="206.352"/>
<rect id="platformcage4_28_" x="3921.961" y="1678.041" fill="#535BA2" width="363.414" height="206.352"/>
<rect id="platformcage4_29_" x="3921.959" y="1884.393" fill="#535BA2" width="363.413" height="206.352"/>
<rect id="platformcage4_46_" x="5375.609" y="2012.725" fill="#535BA2" width="363.413" height="206.352"/>
<rect id="platformcage4_45_" x="5375.606" y="2219.078" fill="#535BA2" width="363.415" height="206.352"/>
<rect id="platformcage4_47_" x="5375.609" y="2425.429" fill="#535BA2" width="363.413" height="206.352"/>
<rect id="platformcage4_32_" x="3921.958" y="2503.447" fill="#535BA2" width="363.414" height="206.352"/>
<rect id="platformcage4_31_" x="3921.961" y="2090.743" fill="#535BA2" width="363.414" height="206.352"/>
<rect id="platformcage4_33_" x="3921.961" y="2709.8" fill="#535BA2" width="363.414" height="206.353"/>
<rect id="platformcage4_34_" x="4285.374" y="2709.8" fill="#535BA2" width="363.413" height="206.353"/>
<rect id="platformcage4_35_" x="4285.371" y="2917.653" fill="#535BA2" width="363.414" height="206.353"/>
<rect id="platformcage4_30_" x="4285.372" y="1884.393" fill="#535BA2" width="363.414" height="206.352"/>
<rect id="platformcage4_37_" x="4648.786" y="3457.192" fill="#535BA2" width="363.414" height="206.354"/>
<rect id="platformcage4_36_" x="5012.199" y="3457.192" fill="#535BA2" width="363.414" height="206.354"/>
<rect id="platformcage4_39_" x="5375.606" y="3457.192" fill="#535BA2" width="363.415" height="206.354"/>
<rect id="platformcage4_48_" x="5375.606" y="3250.839" fill="#535BA2" width="363.415" height="206.352"/>
<rect id="platformcage4_49_" x="6102.434" y="3044.488" fill="#535BA2" width="363.414" height="206.352"/>
<rect id="platformcage4_38_" x="5739.02" y="3457.192" fill="#535BA2" width="363.414" height="206.354"/>
<rect id="platformcage4_41_" x="6102.434" y="3457.192" fill="#535BA2" width="363.414" height="206.354"/>
<rect id="platformcage4_40_" x="6465.848" y="3457.192" fill="#535BA2" width="363.413" height="206.354"/>
<rect id="platformcage4_43_" x="6829.261" y="3457.192" fill="#535BA2" width="363.414" height="206.354"/>
<rect id="platformcage4_42_" x="7192.674" y="3457.192" fill="#535BA2" width="363.414" height="206.354"/>
<rect id="platformcage4_44_" x="7556.089" y="3457.192" fill="#535BA2" width="363.414" height="206.352"/>
<rect id="platformcage4_26_" x="3195.133" y="1265.337" fill="#535BA2" width="363.413" height="206.352"/>
<rect id="spadesdown" x="1378.072" y="3705.584" fill="#C94A96" width="363.411" height="35.983"/>
<rect id="spadesdown_1_" x="2104.896" y="3705.588" fill="#C94A96" width="363.411" height="35.983"/>
<rect id="spadesdown_2_" x="2831.721" y="3705.584" fill="#C94A96" width="363.411" height="35.983"/>
<rect id="spadesdown_3_" x="3558.549" y="3705.584" fill="#C94A96" width="363.411" height="35.983"/>
<rect id="spadesdown_4_" x="4648.788" y="3421.208" fill="#C94A96" width="363.411" height="35.982"/>
<rect id="spadesdown_5_" x="5012.201" y="3421.208" fill="#C94A96" width="363.411" height="35.982"/>
<rect id="spadesdown_6_" x="5739.021" y="3421.208" fill="#C94A96" width="363.411" height="35.982"/>
<rect id="spadesdown_7_" x="6465.849" y="3421.208" fill="#C94A96" width="363.411" height="35.982"/>
<rect id="spadesdown_8_" x="6829.262" y="3421.208" fill="#C94A96" width="363.411" height="35.982"/>
<rect id="spadesdown_11_" x="8872.92" y="3705.588" fill="#C94A96" width="363.41" height="35.983"/>
<rect id="spadesdown_12_" x="7881.713" y="4981.236" fill="#C94A96" width="363.412" height="35.983"/>
<rect id="spadesdown_13_" x="8608.543" y="4979.588" fill="#C94A96" width="363.412" height="35.983"/>
<rect id="spadesdown_14_" x="6239.382" y="4774.553" fill="#C94A96" width="363.411" height="35.983"/>
<rect id="spadesdown_15_" x="6602.793" y="4774.552" fill="#C94A96" width="363.411" height="35.983"/>
<rect id="spadesdown_16_" x="9606.721" y="4773.236" fill="#C94A96" width="363.41" height="35.983"/>
<rect id="spadesdown_17_" x="9243.309" y="4773.235" fill="#C94A96" width="363.412" height="35.983"/>
<rect id="spadesdown_18_" x="10219.729" y="4773.333" fill="#C94A96" width="363.41" height="35.983"/>
<rect id="spadesdown_19_" x="11151.764" y="4773.332" fill="#C94A96" width="363.412" height="35.983"/>
<rect id="spadesdown_20_" x="10788.35" y="4773.333" fill="#C94A96" width="363.412" height="35.983"/>
<rect id="spadesdown_21_" x="11720.383" y="4773.332" fill="#C94A96" width="363.411" height="35.983"/>
<rect id="spadesdown_22_" x="12083.797" y="4773.331" fill="#C94A96" width="363.412" height="35.983"/>
<rect id="spadesdown_26_" x="12652.414" y="4773.236" fill="#C94A96" width="363.412" height="35.983"/>
<rect id="spadesdown_25_" x="13015.828" y="4773.235" fill="#C94A96" width="363.412" height="35.983"/>
<rect id="spadesdown_24_" x="10798.523" y="4001.475" fill="#C94A96" width="363.412" height="35.983"/>
<rect id="spadesdown_23_" x="11161.938" y="4001.474" fill="#C94A96" width="363.412" height="35.983"/>
<rect id="spadesdown_28_" x="10071.699" y="4001.475" fill="#C94A96" width="363.41" height="35.983"/>
<rect id="spadesdown_27_" x="10435.113" y="4001.474" fill="#C94A96" width="363.41" height="35.983"/>
<g id="Calque_2">
	<rect id="groundcage1_67_" x="9335.566" y="4809.22" width="835.367" height="305.418"/>
	<rect id="groundcage1_66_" x="10170.932" y="4809.22" width="835.369" height="305.418"/>
	<rect id="groundcage1_65_" x="11006.301" y="4809.22" width="835.369" height="305.418"/>
	<rect id="groundcage4_6_" x="11841.67" y="4809.22" width="835.363" height="305.418"/>
	<rect id="groundcage1_63_" x="12677.033" y="4809.22" width="835.367" height="305.418"/>
	<rect id="groundcage1_62_" x="13512.4" y="4809.22" width="835.365" height="305.418"/>
	<rect id="groundcage4_7_" x="14347.766" y="4809.22" width="835.367" height="305.418"/>
	<rect id="groundcage1_60_" x="15183.133" y="4809.22" width="835.367" height="305.418"/>
	<rect id="groundcage3_18_" x="15183.133" y="4501.88" width="835.367" height="305.418"/>
	<rect id="groundcage3_20_" x="15183.133" y="4196.462" width="835.367" height="305.418"/>
	<rect id="groundcage3_21_" x="15183.133" y="3891.044" width="835.367" height="305.418"/>
	<rect id="groundcage3_24_" x="15183.133" y="3585.626" width="835.367" height="305.418"/>
	<rect id="groundcage3_23_" x="15183.133" y="3280.208" width="835.367" height="305.418"/>
	<rect id="groundcage3_22_" x="15183.133" y="2974.79" width="835.367" height="305.418"/>
	<rect id="groundcage3_27_" x="15183.133" y="2669.372" width="835.367" height="305.418"/>
	<rect id="groundcage3_26_" x="15183.133" y="2363.954" width="835.367" height="305.418"/>
	<rect id="groundcage3_25_" x="15183.133" y="2058.536" width="835.367" height="305.418"/>
	<rect id="groundcage3_28_" x="15183.133" y="1753.118" width="835.367" height="305.418"/>
	<rect id="groundcage4_5_" x="10071.697" y="4037.458" width="835.365" height="305.418"/>
	<rect id="groundcage1_52_" x="10907.062" y="4037.458" width="835.367" height="305.418"/>
	<rect id="groundcage1_51_" x="11742.43" y="4037.458" width="835.365" height="305.418"/>
	<rect id="groundcage4_4_" x="12577.795" y="4037.458" width="835.369" height="305.418"/>
	<rect id="groundcage4" x="9236.332" y="2213.163" width="835.367" height="305.419"/>
	<rect id="groundcage1_24_" x="8400.963" y="2213.163" width="835.369" height="305.419"/>
	<rect id="groundcage2_1_" x="8400.963" y="2518.581" width="835.369" height="305.419"/>
	<rect id="groundcage2" x="7570.127" y="2213.163" width="835.367" height="305.419"/>
	<rect id="groundcage1_20_" x="9236.332" y="3741.571" width="835.363" height="305.416"/>
	<rect id="groundcage3" x="7570.127" y="75.246" width="835.367" height="305.416"/>
	<rect id="groundcage3_1_" x="7570.127" y="380.662" width="835.367" height="305.416"/>
	<rect id="groundcage3_2_" x="7570.127" y="686.077" width="835.367" height="305.416"/>
	<rect id="groundcage3_5_" x="7570.127" y="991.493" width="835.367" height="305.416"/>
	<rect id="groundcage3_4_" x="7570.127" y="1296.908" width="835.367" height="305.416"/>
	<rect id="groundcage3_7_" x="9236.33" y="2518.582" width="835.367" height="305.415"/>
	<rect id="groundcage3_8_" x="9236.33" y="2823.998" width="835.367" height="305.415"/>
	<rect id="groundcage3_9_" x="9236.33" y="3129.422" width="835.367" height="305.415"/>
	<rect id="groundcage3_10_" x="9236.33" y="3434.837" width="835.367" height="305.415"/>
	<rect id="groundcage3_3_" x="7570.127" y="1602.324" width="835.367" height="305.416"/>
	<rect id="groundcage3_6_" x="7570.127" y="1907.75" width="835.367" height="305.416"/>
	<rect id="groundcage1_74_" x="15183.133" y="1760.951" width="835.367" height="305.415"/>
</g>
</svg>
